<svg id="Layer_1" data-name="Layer 1" xmlns="http://www.w3.org/2000/svg" viewBox="0 0 1078.3 248.8"><defs><style>.cls-1{fill:#b75860;}.cls-2{fill:#d3666f;}.cls-3{fill:#e75755;}.cls-4{fill:#4163ae;}.cls-5{fill:#7089c5;}.cls-6{fill:#4756a5;}.cls-7{fill:#fff;}.cls-8{fill:#6400df;}.cls-9{fill:#f37269;}.cls-10{fill:#ec6966;}.cls-11{fill:#f3f3f3;}.cls-12{fill:#003240;}.cls-13{opacity:0.13;}.cls-14{fill:#010101;}.cls-15{fill:#ffd87c;}.cls-16{fill:#72c6b9;}.cls-17,.cls-18{isolation:isolate;font-family:ComicSansMS-Bold, Comic Sans MS;font-weight:700;}.cls-17{font-size:145.45px;fill:#cddc29;}.cls-18{font-size:124.88px;fill:#ed1c24;}</style></defs><title>attendance1</title><g id="_2" data-name=" 2"><g id="_1" data-name=" 1"><polygon class="cls-1" points="0 0 0 248.8 360.8 248.8 1.4 0 0 0"/><polygon class="cls-2" points="1078.3 0 1.4 0 360.8 248.8 1078.3 248.8 1078.3 0"/></g></g><path class="cls-3" d="M121.8,36.5,87,216.1a5.91,5.91,0,0,0,4.7,6.9,4.1,4.1,0,0,0,1.1.1h18.3Z" transform="translate(0 0)"/><path class="cls-4" d="M122.2,35.8l-23,176.4a9.71,9.71,0,0,0,8.5,10.9,4.87,4.87,0,0,0,1.2.1h33.8l-19-188.1Z" transform="translate(0 0)"/><path class="cls-5" d="M122.2,35.8,111.9,211a11.44,11.44,0,0,0,10.8,12.1h51.1Z" transform="translate(0 0)"/><path class="cls-6" d="M121.8,37.2l5,173.8a11.44,11.44,0,0,0,10.8,12.1h51.1Z" transform="translate(0 0)"/><path class="cls-7" d="M363.1,223.2H164.4a10.2,10.2,0,0,1-10.1-8.4L124,49.4a12.24,12.24,0,0,1,9.8-14.2A15,15,0,0,1,136,35H332.4a10.2,10.2,0,0,1,10.1,8.4L373.2,211a10.39,10.39,0,0,1-8.2,12A13.66,13.66,0,0,1,363.1,223.2Z" transform="translate(0 0)"/><path class="cls-8" d="M128,70.9H347.7l-5.6-31.2a5.69,5.69,0,0,0-5.6-4.7H123.6a1.9,1.9,0,0,0-1.9,1.9v.3Z" transform="translate(0 0)"/><path class="cls-4" d="M133.1,25.6a9.5,9.5,0,0,0-9.5,9.5h1.8a7.71,7.71,0,1,1,15.4-.6v.6a7.67,7.67,0,0,1-7.3,7.7v1.8a10,10,0,0,0,2.4-.4,9.5,9.5,0,0,0,6.3-6.6,9.86,9.86,0,0,0,.3-2.4,9.31,9.31,0,0,0-9.4-9.6Z" transform="translate(0 0)"/><path class="cls-4" d="M136.1,43.6a1.27,1.27,0,0,1-.1.6,2.12,2.12,0,1,1-1.5-2.6A2.23,2.23,0,0,1,136.1,43.6Z" transform="translate(0 0)"/><path class="cls-4" d="M167.3,25.6a9.5,9.5,0,0,0-9.5,9.5h1.8a7.71,7.71,0,1,1,15.4-.6v.6a6.72,6.72,0,0,1-.4,2.4,7.42,7.42,0,0,1-4.8,4.8,7.79,7.79,0,0,1-2.1.4v1.8a10,10,0,0,0,2.4-.4,9.5,9.5,0,0,0,6.3-6.6,9.86,9.86,0,0,0,.3-2.4A9.41,9.41,0,0,0,167.3,25.6Z" transform="translate(0 0)"/><path class="cls-4" d="M170.2,43.6a1.27,1.27,0,0,1-.1.6,2,2,0,0,1-3.9-1.1,2,2,0,0,1,2-1.5,2.09,2.09,0,0,1,1.6.8A1.75,1.75,0,0,1,170.2,43.6Z" transform="translate(0 0)"/><path class="cls-4" d="M201.4,25.6a9.5,9.5,0,0,0-9.5,9.5h1.8a7.7,7.7,0,1,1,15.4,0,6.72,6.72,0,0,1-.4,2.4,7.42,7.42,0,0,1-4.8,4.8,7.79,7.79,0,0,1-2.1.4v1.8a10,10,0,0,0,2.4-.4,9.5,9.5,0,0,0,6.3-6.6,9.86,9.86,0,0,0,.3-2.4,9.23,9.23,0,0,0-9.4-9.5Z" transform="translate(0 0)"/><path class="cls-4" d="M204.4,43.6a1.27,1.27,0,0,1-.1.6,1.94,1.94,0,1,1,.1-.6Z" transform="translate(0 0)"/><path class="cls-4" d="M235.6,25.6a9.5,9.5,0,0,0-9.5,9.5h1.8a7.71,7.71,0,1,1,15.4-.6v.6a7.67,7.67,0,0,1-7.3,7.7v1.8a10,10,0,0,0,2.4-.4,9.5,9.5,0,0,0,6.3-6.6,9.86,9.86,0,0,0,.3-2.4,9.37,9.37,0,0,0-9.4-9.6Z" transform="translate(0 0)"/><path class="cls-4" d="M238.5,43.6a1.27,1.27,0,0,1-.1.6,2,2,0,1,1,.1-.6Z" transform="translate(0 0)"/><path class="cls-4" d="M269.7,25.6a9.5,9.5,0,0,0-9.5,9.5H262a7.7,7.7,0,1,1,15.4,0,7.67,7.67,0,0,1-7.3,7.7v1.8a10,10,0,0,0,2.4-.4,9.5,9.5,0,0,0,6.3-6.6,9.86,9.86,0,0,0,.3-2.4A9.31,9.31,0,0,0,269.7,25.6Z" transform="translate(0 0)"/><path class="cls-4" d="M272.7,43.6a1.27,1.27,0,0,1-.1.6,2,2,0,1,1-3.9-1.1,2,2,0,0,1,2-1.5,2.09,2.09,0,0,1,1.6.8A2.45,2.45,0,0,1,272.7,43.6Z" transform="translate(0 0)"/><path class="cls-4" d="M303.9,25.6a9.5,9.5,0,0,0-9.5,9.5h1.8a7.7,7.7,0,0,1,15.4,0,6.72,6.72,0,0,1-.4,2.4,7.42,7.42,0,0,1-4.8,4.8,7.79,7.79,0,0,1-2.1.4v1.8a10,10,0,0,0,2.4-.4,9.5,9.5,0,0,0,6.3-6.6,9.86,9.86,0,0,0,.3-2.4A9.35,9.35,0,0,0,303.9,25.6Z" transform="translate(0 0)"/><path class="cls-4" d="M306.8,43.6a1.27,1.27,0,0,1-.1.6,2,2,0,1,1-1.4-2.5A1.9,1.9,0,0,1,306.8,43.6Z" transform="translate(0 0)"/><path class="cls-4" d="M338,25.6a9.5,9.5,0,0,0-9.5,9.5h1.8a7.71,7.71,0,0,1,15.4-.6v.6a7.67,7.67,0,0,1-7.3,7.7v1.8a10,10,0,0,0,2.4-.4,9.5,9.5,0,0,0,6.3-6.6,9.86,9.86,0,0,0,.3-2.4,9.25,9.25,0,0,0-9.4-9.6Z" transform="translate(0 0)"/><path class="cls-4" d="M341,43.6a1.27,1.27,0,0,1-.1.6,2.12,2.12,0,1,1-1.5-2.6A2.23,2.23,0,0,1,341,43.6Z" transform="translate(0 0)"/><path class="cls-5" d="M255,129.5H244a3.09,3.09,0,0,1-2.8-2.3L239,116.1a1.91,1.91,0,0,1,1.4-2.3,4.33,4.33,0,0,0,.5-.1H252a3.09,3.09,0,0,1,2.8,2.3l2.2,11.1a1.85,1.85,0,0,1-1.3,2.3A2,2,0,0,1,255,129.5Z" transform="translate(0 0)"/><path class="cls-5" d="M283.1,129.5H272a3.09,3.09,0,0,1-2.8-2.3L267,116.1a2,2,0,0,1,1.4-2.3c.2,0,.3-.1.5-.1H280a3.09,3.09,0,0,1,2.8,2.3l2.2,11.1a1.85,1.85,0,0,1-1.3,2.3A1.49,1.49,0,0,1,283.1,129.5Z" transform="translate(0 0)"/><path class="cls-4" d="M311.1,129.5H300a3.09,3.09,0,0,1-2.8-2.3l-2.1-11.1a1.84,1.84,0,0,1,1.4-2.3,4.33,4.33,0,0,0,.5-.1h11a3.09,3.09,0,0,1,2.8,2.3l2.2,11.1a1.91,1.91,0,0,1-1.4,2.3A.75.75,0,0,1,311.1,129.5Z" transform="translate(0 0)"/><path class="cls-5" d="M171,129.5H159.9a3.09,3.09,0,0,1-2.8-2.3L155,116.1a1.91,1.91,0,0,1,1.4-2.3,4.33,4.33,0,0,0,.5-.1H168a3.09,3.09,0,0,1,2.8,2.3l2.1,11.1a1.85,1.85,0,0,1-1.3,2.3A1.27,1.27,0,0,1,171,129.5Z" transform="translate(0 0)"/><path class="cls-9" d="M158.8,96.2H154a1.19,1.19,0,0,1-1.2-1l-.9-4.8a.8.8,0,0,1,.6-1h5a1.19,1.19,0,0,1,1.2,1l.9,4.8a.89.89,0,0,1-.6,1Z" transform="translate(0 0)"/><path class="cls-5" d="M199,129.5H187.9a3.09,3.09,0,0,1-2.8-2.3L183,116.1a1.91,1.91,0,0,1,1.4-2.3,4.33,4.33,0,0,0,.5-.1H196a3.09,3.09,0,0,1,2.8,2.3l2.1,11.1a1.85,1.85,0,0,1-1.3,2.3A1.27,1.27,0,0,1,199,129.5Z" transform="translate(0 0)"/><path class="cls-5" d="M227,129.5H215.9a3.09,3.09,0,0,1-2.8-2.3L211,116.1a1.91,1.91,0,0,1,1.4-2.3,4.33,4.33,0,0,0,.5-.1H224a3.09,3.09,0,0,1,2.8,2.3l2.2,11.1a1.91,1.91,0,0,1-1.4,2.3A1.27,1.27,0,0,1,227,129.5Z" transform="translate(0 0)"/><path class="cls-4" d="M339.1,129.5H328a3.09,3.09,0,0,1-2.8-2.3l-2.1-11.1a1.91,1.91,0,0,1,1.4-2.3,4.33,4.33,0,0,0,.5-.1h11.1a3.09,3.09,0,0,1,2.8,2.3l2.1,11.1a1.91,1.91,0,0,1-1.4,2.3A.75.75,0,0,1,339.1,129.5Z" transform="translate(0 0)"/><path class="cls-5" d="M250.4,105.4H239.3a3,3,0,0,1-2.8-2.3L234.4,92a1.91,1.91,0,0,1,1.4-2.3,4.33,4.33,0,0,0,.5-.1h11.1a3,3,0,0,1,2.8,2.3l2.1,11.1a1.91,1.91,0,0,1-1.4,2.3A.9.9,0,0,1,250.4,105.4Z" transform="translate(0 0)"/><path class="cls-5" d="M278.4,105.4H267.3a3,3,0,0,1-2.8-2.3L262.4,92a1.91,1.91,0,0,1,1.4-2.3c.2,0,.3-.1.5-.1h11.1a3,3,0,0,1,2.8,2.3l2.1,11.1a1.91,1.91,0,0,1-1.4,2.3A.75.75,0,0,1,278.4,105.4Z" transform="translate(0 0)"/><path class="cls-4" d="M306.4,105.4H295.3a3,3,0,0,1-2.8-2.3L290.4,92a1.91,1.91,0,0,1,1.4-2.3c.2,0,.3-.1.5-.1h11.1a3.09,3.09,0,0,1,2.8,2.3l2.2,11.1a1.91,1.91,0,0,1-1.4,2.3A1.27,1.27,0,0,1,306.4,105.4Z" transform="translate(0 0)"/><path class="cls-4" d="M334.5,105.4H323.4a3.09,3.09,0,0,1-2.8-2.3L318.5,92a1.91,1.91,0,0,1,1.4-2.3c.2,0,.3-.1.5-.1h11.1a3.09,3.09,0,0,1,2.8,2.3l2.2,11.1a2,2,0,0,1-1.4,2.3A1.76,1.76,0,0,1,334.5,105.4Z" transform="translate(0 0)"/><path class="cls-5" d="M260,155.1H248.9a3.09,3.09,0,0,1-2.8-2.3L244,141.7a1.91,1.91,0,0,1,1.4-2.3c.2,0,.3-.1.5-.1H257a3.09,3.09,0,0,1,2.8,2.3l2.2,11.1a1.91,1.91,0,0,1-1.4,2.3A1.27,1.27,0,0,1,260,155.1Z" transform="translate(0 0)"/><path class="cls-5" d="M288,155.1H276.9a3.09,3.09,0,0,1-2.8-2.3L272,141.7a1.91,1.91,0,0,1,1.4-2.3c.2,0,.3-.1.5-.1H285a3.09,3.09,0,0,1,2.8,2.3l2.1,11.1a1.85,1.85,0,0,1-1.3,2.3A1.27,1.27,0,0,1,288,155.1Z" transform="translate(0 0)"/><path class="cls-4" d="M316,155.1H305a3.09,3.09,0,0,1-2.8-2.3L300,141.7a2,2,0,0,1,1.4-2.3c.2,0,.3-.1.5-.1H313a3.09,3.09,0,0,1,2.8,2.3l2.1,11.1a1.91,1.91,0,0,1-1.4,2.3A.75.75,0,0,1,316,155.1Z" transform="translate(0 0)"/><path class="cls-5" d="M175.9,155.1H164.8a3.09,3.09,0,0,1-2.8-2.3l-2.2-11.1a2,2,0,0,1,1.4-2.3c.2,0,.3-.1.5-.1h11.1a3,3,0,0,1,2.8,2.3l2.1,11.1a1.91,1.91,0,0,1-1.4,2.3C176.3,155.1,176.1,155.1,175.9,155.1Z" transform="translate(0 0)"/><path class="cls-5" d="M204,155.1H192.8a3.09,3.09,0,0,1-2.8-2.3l-2.1-11.1a1.91,1.91,0,0,1,1.4-2.3,4.33,4.33,0,0,0,.5-.1h11.1a3,3,0,0,1,2.8,2.3l2.1,11.1a1.91,1.91,0,0,1-1.4,2.3A.6.6,0,0,1,204,155.1Z" transform="translate(0 0)"/><path class="cls-5" d="M232,155.1H220.9a3.09,3.09,0,0,1-2.8-2.3L216,141.7a1.91,1.91,0,0,1,1.4-2.3c.2,0,.3-.1.5-.1H229a3,3,0,0,1,2.8,2.3l2.1,11.1a1.84,1.84,0,0,1-1.4,2.3A.9.9,0,0,1,232,155.1Z" transform="translate(0 0)"/><path class="cls-4" d="M344.1,155.1H333a3.09,3.09,0,0,1-2.8-2.3l-2.1-11.1a1.91,1.91,0,0,1,1.4-2.3,4.33,4.33,0,0,0,.5-.1h11a3,3,0,0,1,2.8,2.3l2.2,11.1a1.85,1.85,0,0,1-1.3,2.3A1.49,1.49,0,0,1,344.1,155.1Z" transform="translate(0 0)"/><path class="cls-5" d="M264.9,180.7H253.8a3,3,0,0,1-2.8-2.3l-2.1-11.1a1.91,1.91,0,0,1,1.4-2.3c.2,0,.3-.1.5-.1h11.1a3,3,0,0,1,2.8,2.3l2.2,11.1a1.84,1.84,0,0,1-1.4,2.2A.85.85,0,0,1,264.9,180.7Z" transform="translate(0 0)"/><path class="cls-5" d="M293,180.7H281.9a3.09,3.09,0,0,1-2.8-2.3L277,167.3a1.91,1.91,0,0,1,1.4-2.3c.2,0,.3-.1.5-.1H290a3.09,3.09,0,0,1,2.8,2.3l2.1,11.2a1.84,1.84,0,0,1-1.4,2.2A4.33,4.33,0,0,0,293,180.7Z" transform="translate(0 0)"/><path class="cls-4" d="M321,180.7H309.9a3.09,3.09,0,0,1-2.8-2.3L305,167.2a1.91,1.91,0,0,1,1.4-2.3c.2,0,.3-.1.5-.1H318a3.09,3.09,0,0,1,2.8,2.3l2.1,11.2a1.84,1.84,0,0,1-1.4,2.2A1.69,1.69,0,0,1,321,180.7Z" transform="translate(0 0)"/><path class="cls-5" d="M180.8,180.7H169.7a3,3,0,0,1-2.7-2.3l-2.2-11.1a2,2,0,0,1,1.4-2.3c.2,0,.3-.1.5-.1h11.1a3.09,3.09,0,0,1,2.8,2.3l2.1,11.1a1.84,1.84,0,0,1-1.4,2.2C181.1,180.6,181,180.7,180.8,180.7Z" transform="translate(0 0)"/><path class="cls-9" d="M208.9,180.7H197.8a3.09,3.09,0,0,1-2.8-2.3l-2.2-11.1a1.91,1.91,0,0,1,1.4-2.3,4.33,4.33,0,0,0,.5-.1h11.1a3,3,0,0,1,2.8,2.3l2.1,11.1a1.84,1.84,0,0,1-1.4,2.2A.76.76,0,0,1,208.9,180.7Z" transform="translate(0 0)"/><path class="cls-5" d="M236.9,180.7H225.8a3.09,3.09,0,0,1-2.8-2.3l-2.1-11.1a1.91,1.91,0,0,1,1.4-2.3,4.33,4.33,0,0,0,.5-.1h11.1a3,3,0,0,1,2.8,2.3l2.2,11.1a1.84,1.84,0,0,1-1.4,2.2A3.93,3.93,0,0,1,236.9,180.7Z" transform="translate(0 0)"/><path class="cls-4" d="M349,180.7H337.9a3.09,3.09,0,0,1-2.8-2.3L333,167.3a1.91,1.91,0,0,1,1.4-2.3,4.33,4.33,0,0,0,.5-.1H346a3.09,3.09,0,0,1,2.8,2.3l2.1,11.2a1.84,1.84,0,0,1-1.4,2.2A1.09,1.09,0,0,1,349,180.7Z" transform="translate(0 0)"/><path class="cls-5" d="M269.6,204.8H258.5a3.09,3.09,0,0,1-2.8-2.3l-2.1-11.1a2,2,0,0,1,1.4-2.3c.2,0,.3-.1.5-.1h11.1a3.09,3.09,0,0,1,2.8,2.3l2.1,11.1a1.84,1.84,0,0,1-1.4,2.2A.65.65,0,0,1,269.6,204.8Z" transform="translate(0 0)"/><path class="cls-5" d="M297.6,204.8H286.5a3.09,3.09,0,0,1-2.8-2.3l-2.1-11.1a1.84,1.84,0,0,1,1.4-2.3,4.33,4.33,0,0,0,.5-.1h11.1a3.09,3.09,0,0,1,2.8,2.3l2.1,11.1a1.84,1.84,0,0,1-1.4,2.2A.55.55,0,0,1,297.6,204.8Z" transform="translate(0 0)"/><path class="cls-4" d="M325.6,204.8H314.5a3.09,3.09,0,0,1-2.8-2.3l-2.1-11.1a1.91,1.91,0,0,1,1.4-2.3,4.33,4.33,0,0,0,.5-.1h11.1a3.09,3.09,0,0,1,2.8,2.3l2.1,11.1a1.84,1.84,0,0,1-1.4,2.2A.55.55,0,0,1,325.6,204.8Z" transform="translate(0 0)"/><path class="cls-5" d="M185.5,204.8H174.4a3.09,3.09,0,0,1-2.8-2.3l-2.1-11.1a1.91,1.91,0,0,1,1.4-2.3,4.33,4.33,0,0,0,.5-.1h11.1a3.09,3.09,0,0,1,2.8,2.3l2.1,11.1a1.84,1.84,0,0,1-1.4,2.2A.65.65,0,0,1,185.5,204.8Z" transform="translate(0 0)"/><path class="cls-5" d="M213.5,204.8H202.4a3.09,3.09,0,0,1-2.8-2.3l-2.1-11.1a1.91,1.91,0,0,1,1.4-2.3,4.33,4.33,0,0,0,.5-.1h11.1a3.09,3.09,0,0,1,2.8,2.3l2.2,11.1a1.84,1.84,0,0,1-1.4,2.2A.85.85,0,0,1,213.5,204.8Z" transform="translate(0 0)"/><path class="cls-5" d="M241.5,204.8H230.4a3.09,3.09,0,0,1-2.8-2.3l-2.1-11.1a2,2,0,0,1,1.4-2.3c.2,0,.3-.1.5-.1h11.1a3.09,3.09,0,0,1,2.8,2.3l2.1,11.1a1.84,1.84,0,0,1-1.4,2.2C241.9,204.8,241.7,204.8,241.5,204.8Z" transform="translate(0 0)"/><path class="cls-5" d="M192.5,91.8H163a.86.86,0,0,1-.8-.8h0a.86.86,0,0,1,.8-.8h29.4a.79.79,0,0,1,.8.8h0A.77.77,0,0,1,192.5,91.8Z" transform="translate(0 0)"/><path class="cls-5" d="M193.3,95.4H164a.86.86,0,0,1-.8-.8h0a.86.86,0,0,1,.8-.8h29.4a.86.86,0,0,1,.8.8h0a.88.88,0,0,1-.9.8Z" transform="translate(0 0)"/><path class="cls-7" d="M160.9,65.3H150.8a1.54,1.54,0,0,1-1.5-1.5h0a1.54,1.54,0,0,1,1.5-1.5h10.1a1.54,1.54,0,0,1,1.5,1.5h0A1.54,1.54,0,0,1,160.9,65.3Z" transform="translate(0 0)"/><path class="cls-7" d="M188.6,65.3H178.5a1.54,1.54,0,0,1-1.5-1.5h0a1.54,1.54,0,0,1,1.5-1.5h10.1a1.54,1.54,0,0,1,1.5,1.5h0A1.54,1.54,0,0,1,188.6,65.3Z" transform="translate(0 0)"/><path class="cls-7" d="M216.3,65.3H206.2a1.54,1.54,0,0,1-1.5-1.5h0a1.54,1.54,0,0,1,1.5-1.5h10.1a1.54,1.54,0,0,1,1.5,1.5h0A1.54,1.54,0,0,1,216.3,65.3Z" transform="translate(0 0)"/><path class="cls-7" d="M244,65.3H233.9a1.54,1.54,0,0,1-1.5-1.5h0a1.54,1.54,0,0,1,1.5-1.5H244a1.54,1.54,0,0,1,1.5,1.5h0A1.54,1.54,0,0,1,244,65.3Z" transform="translate(0 0)"/><path class="cls-7" d="M271.7,65.3H261.6a1.54,1.54,0,0,1-1.5-1.5h0a1.54,1.54,0,0,1,1.5-1.5h10.1a1.54,1.54,0,0,1,1.5,1.5h0A1.47,1.47,0,0,1,271.7,65.3Z" transform="translate(0 0)"/><path class="cls-7" d="M299.4,65.3H289.3a1.54,1.54,0,0,1-1.5-1.5h0a1.54,1.54,0,0,1,1.5-1.5h10.1a1.54,1.54,0,0,1,1.5,1.5h0A1.47,1.47,0,0,1,299.4,65.3Z" transform="translate(0 0)"/><path class="cls-7" d="M327.1,65.3H317a1.54,1.54,0,0,1-1.5-1.5h0a1.54,1.54,0,0,1,1.5-1.5h10.1a1.54,1.54,0,0,1,1.5,1.5h0A1.47,1.47,0,0,1,327.1,65.3Z" transform="translate(0 0)"/><path class="cls-10" d="M263.3,105.6c-2.2,0-3.8-.7-4.7-2.1-1.7-2.6-.4-6.3,3.9-11a55.94,55.94,0,0,1,6.8-6.1c.1-.1.3-.1.5.1a.25.25,0,0,1-.1.4c-.1.1-14.2,10.5-10.5,16.2,1.2,1.8,3.7,1.9,5.5,1.7,3.5-.4,8-2.3,12.2-5s7.3-6,8.3-8.8c.6-1.8.5-3.1-.6-3.8-1.3-.9-4.1-.9-7.4,0a24.34,24.34,0,0,0-8.4,4.1.35.35,0,0,1-.5-.5,25.75,25.75,0,0,1,8.6-4.3c3.6-1,6.5-1,8,.1.9.6,1.8,1.9.8,4.5-1,2.9-4.1,6.2-8.5,9.1-4.2,2.8-8.9,4.7-12.4,5.1A3.06,3.06,0,0,1,263.3,105.6Z" transform="translate(0 0)"/><circle class="cls-11" cx="389.4" cy="117.5" r="93.4"/><path class="cls-12" d="M388.8,202.8h0a1.11,1.11,0,0,1,1.1,1.1v5.3a1.1,1.1,0,0,1-1,1.1h0a1,1,0,0,1-1-1.1v-5.3A.87.87,0,0,1,388.8,202.8Z" transform="translate(0 0)"/><path class="cls-12" d="M388.8,23.3h0a1.1,1.1,0,0,1,1.1,1v5.3a1,1,0,0,1-1,1h0a1,1,0,0,1-1-1V24.3A.86.86,0,0,1,388.8,23.3Z" transform="translate(0 0)"/><path class="cls-12" d="M476.5,116.3h5.3a1,1,0,0,1,1,1.1h0a1.1,1.1,0,0,1-1,1.1h-5.3a1,1,0,0,1-1-1.1h0A1,1,0,0,1,476.5,116.3Z" transform="translate(0 0)"/><path class="cls-12" d="M297.1,116.5h5.3a1.1,1.1,0,0,1,1.1,1h0a1.1,1.1,0,0,1-1,1.1h-5.3a1.1,1.1,0,0,1-1.1-1h0A1,1,0,0,1,297.1,116.5Z" transform="translate(0 0)"/><path class="cls-12" d="M458,181.6h0a1.09,1.09,0,0,1-1.5,0l-3.7-3.7a1.07,1.07,0,0,1-.1-1.4l.1-.1h0a1.09,1.09,0,0,1,1.5,0l3.7,3.7A1.09,1.09,0,0,1,458,181.6Z" transform="translate(0 0)"/><path class="cls-12" d="M331.3,54.5h0a1.09,1.09,0,0,1-1.5,0l-3.7-3.7a1.09,1.09,0,0,1,0-1.5h0a1.07,1.07,0,0,1,1.4-.1l.1.1,3.7,3.7A.94.94,0,0,1,331.3,54.5Z" transform="translate(0 0)"/><path class="cls-12" d="M450,54.8l3.7-3.8a1.09,1.09,0,0,1,1.5,0h0a1.09,1.09,0,0,1,0,1.5l-3.7,3.8a1.09,1.09,0,0,1-1.5,0h0A1.09,1.09,0,0,1,450,54.8Z" transform="translate(0 0)"/><path class="cls-12" d="M324.6,183.1l3.7-3.8a1.09,1.09,0,0,1,1.5,0h0a1.09,1.09,0,0,1,0,1.5l-3.7,3.8a1.09,1.09,0,0,1-1.5,0h0A1.09,1.09,0,0,1,324.6,183.1Z" transform="translate(0 0)"/><path class="cls-12" d="M389.4,212.7a95.6,95.6,0,1,1,67.6-28A95.6,95.6,0,0,1,389.4,212.7Zm0-186.9a91.3,91.3,0,1,0,91.3,91.3,91.33,91.33,0,0,0-91.3-91.3Z" transform="translate(0 0)"/><g class="cls-13"><path class="cls-12" d="M389.4,210.3A93.21,93.21,0,1,1,455.3,183,92.17,92.17,0,0,1,389.4,210.3Zm0-182.2a89,89,0,1,0,89,89h0A89.13,89.13,0,0,0,389.4,28.1Z" transform="translate(0 0)"/><path class="cls-14" d="M389.4,210.5a93.55,93.55,0,1,1,66-27.4A92.33,92.33,0,0,1,389.4,210.5Zm0-186.4a92.87,92.87,0,1,0,65.8,27.2,93,93,0,0,0-65.8-27.2Zm0,182.2a89.2,89.2,0,1,1,89.2-89.2h0A89.15,89.15,0,0,1,389.4,206.3Zm0-178a88.8,88.8,0,1,0,88.8,88.8h0a89,89,0,0,0-88.8-88.8Z" transform="translate(0 0)"/></g><path class="cls-12" d="M388.8,117.8h0a1.58,1.58,0,0,1-1.6-1.6h0V79.8a1.58,1.58,0,0,1,1.6-1.6h0a1.58,1.58,0,0,1,1.6,1.6v36.4A1.58,1.58,0,0,1,388.8,117.8Z" transform="translate(0 0)"/><path class="cls-15" d="M388.8,119.4h0c-.2,0-.4-.7-.4-1.6V81.4c0-.9.2-1.6.4-1.6h0c.2,0,.4.7.4,1.6v36.4C389.2,118.7,389,119.4,388.8,119.4Z" transform="translate(0 0)"/><path class="cls-12" d="M388.4,118.8h0c.6-.7,1.9-.6,3,.3L435,155.3c1,.9,1.4,2.1.8,2.9h0c-.6.7-1.9.6-3-.3l-43.6-36.2C388.2,120.8,387.9,119.5,388.4,118.8Z" transform="translate(0 0)"/><path class="cls-16" d="M390.8,120.5l.4-.1c.2-.2-.4-.5.6.3l41,34.2c1,.8,1.6,1.6,1.5,1.8h0c-.2.2-1-.3-2-1.1l-41-33.7C390.3,121.2,390.6,120.7,390.8,120.5Z" transform="translate(0 0)"/><ellipse class="cls-12" cx="388.79" cy="117.85" rx="4.7" ry="4.6" transform="translate(210.18 482.74) rotate(-80.78)"/><circle class="cls-15" cx="388.8" cy="117.8" r="3"/><text class="cls-17" transform="translate(48.93 202.76)">P</text><text class="cls-18" transform="translate(304.88 147.2)">A</text></svg>