<svg xmlns="http://www.w3.org/2000/svg" viewBox="0 0 1078.29 248.76"><defs><style>.cls-1{isolation:isolate;}.cls-2{fill:#e3c83b;}.cls-3{fill:#f6d93c;}.cls-4,.cls-5{fill:#00b8d4;}.cls-11,.cls-5{mix-blend-mode:multiply;}.cls-6{font-size:71.44px;}.cls-10,.cls-15,.cls-6{fill:#fff;font-family:Montserrat-Bold, Montserrat;font-weight:700;}.cls-7,.cls-9{fill:none;}.cls-7{stroke:#00b8d4;}.cls-13,.cls-14,.cls-7,.cls-9{stroke-miterlimit:10;stroke-width:1.42px;}.cls-8{fill:#ff4081;}.cls-9{stroke:#ff4081;}.cls-10{font-size:76.69px;}.cls-11{fill:#c73265;opacity:0.5;}.cls-12,.cls-13,.cls-14{fill:red;}.cls-13{stroke:#ffab00;}.cls-14{stroke:red;}.cls-15{font-size:64.12px;}.cls-16{fill:#bdbdbd;}</style></defs><title>chat</title><g class="cls-1"><g id="OBJECTS"><g id="DESIGNED_BY_FREEPIK" data-name="DESIGNED BY FREEPIK"><g id="_2" data-name="2"><g id="_1" data-name="1"><polygon class="cls-2" points="0 0 0 248.76 360.79 248.76 1.36 0 0 0"/><polygon class="cls-3" points="1078.29 0 1.36 0 360.79 248.76 1078.29 248.76 1078.29 0"/></g></g></g><polygon class="cls-4" points="110.14 127.5 118.07 150.19 90.31 127.5 110.14 127.5"/><rect class="cls-4" x="68.83" y="48.19" width="117.64" height="79.31" rx="11.35"/><path class="cls-5" d="M-106.95,143.79a10.58,10.58,0,0,0-10.58,10.57v31.75h26A10.57,10.57,0,0,0-81,175.54V143.79Z" transform="translate(267.43 -58.62)"/><text class="cls-6" transform="translate(107.09 112.77)">?</text><path class="cls-7" d="M-203,175.07V117.85a15.14,15.14,0,0,1,15.14-15.15h37.51" transform="translate(267.43 -58.62)"/><path class="cls-7" d="M-146,190.22h54.3a15.15,15.15,0,0,0,15.15-15.15V117.85" transform="translate(267.43 -58.62)"/><path class="cls-8" d="M2.75,135.75H-100.82a11.35,11.35,0,0,0-11.35,11.35v62.42a11.35,11.35,0,0,0,11.35,11.35H-89l-8.51,24.36,29.79-24.36H2.75A11.35,11.35,0,0,0,14.1,209.52V147.1A11.35,11.35,0,0,0,2.75,135.75Z" transform="translate(267.43 -58.62)"/><path class="cls-9" d="M-120.21,186.88V144.26a16.79,16.79,0,0,1,16.79-16.79h33.1" transform="translate(267.43 -58.62)"/><path class="cls-9" d="M-97.53,229.15h-5.89a16.79,16.79,0,0,1-16.79-16.79" transform="translate(267.43 -58.62)"/><line class="cls-9" x1="270.09" y1="170.53" x2="195.16" y2="170.53"/><path class="cls-9" d="M-52.76,127.47H5.35a16.79,16.79,0,0,1,16.79,16.79v68.1" transform="translate(267.43 -58.62)"/><path class="cls-9" d="M-115.54,159.93v-14a13.13,13.13,0,0,1,13.12-13.12h64.56" transform="translate(267.43 -58.62)"/><path class="cls-9" d="M-94.67,223.83h-7.75a13.13,13.13,0,0,1-13.12-13.12V173.58" transform="translate(267.43 -58.62)"/><line class="cls-9" x1="234.71" y1="165.21" x2="202.43" y2="165.21"/><path class="cls-9" d="M17.47,210.71A13.12,13.12,0,0,1,4.35,223.83H-26.87" transform="translate(267.43 -58.62)"/><path class="cls-9" d="M-12.15,132.79H4.35a13.12,13.12,0,0,1,13.12,13.12v50.55" transform="translate(267.43 -58.62)"/><text class="cls-10" transform="translate(196.33 146.45)">?</text><path class="cls-11" d="M2.75,135.75h-8.4V166.1a8.78,8.78,0,0,0,8.78,8.77h11V147.1A11.35,11.35,0,0,0,2.75,135.75Z" transform="translate(267.43 -58.62)"/><line class="cls-7" x1="132.06" y1="44.09" x2="214.67" y2="44.09"/><line class="cls-7" x1="97.91" y1="38.69" x2="186.47" y2="38.69"/><line class="cls-7" x1="60.02" y1="84.51" x2="60.02" y2="135.78"/><polygon class="cls-12" points="302.45 110.58 295.34 130.94 320.25 110.58 302.45 110.58"/><rect class="cls-12" x="267.46" y="39.4" width="105.58" height="71.18" rx="8.77"/><line class="cls-13" x1="263.64" y1="64.44" x2="263.64" y2="45.46"/><path class="cls-14" d="M109.43,116v47.18a10.29,10.29,0,0,1-10.29,10.29H56.93" transform="translate(267.43 -58.62)"/><line class="cls-14" x1="237.58" y1="35.18" x2="356.46" y2="35.18"/><text class="cls-15" transform="translate(301.8 97.36)">?</text><line class="cls-14" x1="252.12" y1="30.63" x2="338.08" y2="30.63"/><line class="cls-14" x1="338.08" y1="118.83" x2="384.19" y2="118.83"/><path class="cls-9" d="M-23,110.63a3.82,3.82,0,0,1-3.83,3.83,3.82,3.82,0,0,1-3.82-3.83,3.82,3.82,0,0,1,3.82-3.82A3.82,3.82,0,0,1-23,110.63Z" transform="translate(267.43 -58.62)"/><circle class="cls-13" cx="316.42" cy="131.96" r="3.83"/><path class="cls-7" d="M-179.77,205.07a3.82,3.82,0,0,1-3.82,3.82,3.82,3.82,0,0,1-3.83-3.82,3.82,3.82,0,0,1,3.83-3.83A3.82,3.82,0,0,1-179.77,205.07Z" transform="translate(267.43 -58.62)"/><circle class="cls-8" cx="202.88" cy="51.57" r="0.89"/><circle class="cls-8" cx="206.78" cy="51.57" r="0.89"/><circle class="cls-8" cx="210.68" cy="51.57" r="0.89"/><circle class="cls-8" cx="214.58" cy="51.57" r="0.89"/><circle class="cls-8" cx="218.48" cy="51.57" r="0.89"/><circle class="cls-8" cx="222.38" cy="51.57" r="0.89"/><circle class="cls-8" cx="226.29" cy="51.57" r="0.89"/><circle class="cls-8" cx="202.88" cy="54.95" r="0.89"/><circle class="cls-8" cx="206.78" cy="54.95" r="0.89"/><circle class="cls-8" cx="210.68" cy="54.95" r="0.89"/><circle class="cls-8" cx="214.58" cy="54.95" r="0.89"/><circle class="cls-8" cx="218.48" cy="54.95" r="0.89"/><circle class="cls-8" cx="222.38" cy="54.95" r="0.89"/><circle class="cls-8" cx="226.29" cy="54.95" r="0.89"/><circle class="cls-8" cx="202.88" cy="58.34" r="0.89"/><circle class="cls-8" cx="206.78" cy="58.34" r="0.89"/><circle class="cls-8" cx="210.68" cy="58.34" r="0.89"/><circle class="cls-8" cx="214.58" cy="58.34" r="0.89"/><circle class="cls-8" cx="218.48" cy="58.34" r="0.89"/><circle class="cls-8" cx="222.38" cy="58.34" r="0.89"/><circle class="cls-8" cx="226.29" cy="58.34" r="0.89"/><circle class="cls-8" cx="202.88" cy="61.72" r="0.89"/><circle class="cls-8" cx="206.78" cy="61.72" r="0.89"/><circle class="cls-8" cx="210.68" cy="61.72" r="0.89"/><circle class="cls-8" cx="214.58" cy="61.72" r="0.89"/><circle class="cls-8" cx="218.48" cy="61.72" r="0.89"/><circle class="cls-8" cx="222.38" cy="61.72" r="0.89"/><circle class="cls-8" cx="226.29" cy="61.72" r="0.89"/><circle class="cls-4" cx="79.05" cy="22.25" r="0.89"/><circle class="cls-4" cx="82.95" cy="22.25" r="0.89"/><circle class="cls-4" cx="86.85" cy="22.25" r="0.89"/><circle class="cls-4" cx="90.75" cy="22.25" r="0.89"/><circle class="cls-4" cx="94.65" cy="22.25" r="0.89"/><circle class="cls-4" cx="98.56" cy="22.25" r="0.89"/><circle class="cls-4" cx="102.46" cy="22.25" r="0.89"/><circle class="cls-4" cx="79.05" cy="25.63" r="0.89"/><circle class="cls-4" cx="82.95" cy="25.63" r="0.89"/><circle class="cls-4" cx="86.85" cy="25.63" r="0.89"/><circle class="cls-4" cx="90.75" cy="25.63" r="0.89"/><circle class="cls-4" cx="94.65" cy="25.63" r="0.89"/><circle class="cls-4" cx="98.56" cy="25.63" r="0.89"/><circle class="cls-4" cx="102.46" cy="25.63" r="0.89"/><circle class="cls-4" cx="79.05" cy="29.02" r="0.89"/><circle class="cls-4" cx="82.95" cy="29.02" r="0.89"/><circle class="cls-4" cx="86.85" cy="29.02" r="0.89"/><circle class="cls-4" cx="90.75" cy="29.02" r="0.89"/><circle class="cls-4" cx="94.65" cy="29.02" r="0.89"/><circle class="cls-4" cx="98.56" cy="29.02" r="0.89"/><circle class="cls-4" cx="102.46" cy="29.02" r="0.89"/><circle class="cls-4" cx="79.05" cy="32.4" r="0.89"/><circle class="cls-4" cx="82.95" cy="32.4" r="0.89"/><circle class="cls-4" cx="86.85" cy="32.4" r="0.89"/><circle class="cls-4" cx="90.75" cy="32.4" r="0.89"/><circle class="cls-4" cx="94.65" cy="32.4" r="0.89"/><circle class="cls-4" cx="98.56" cy="32.4" r="0.89"/><circle class="cls-4" cx="102.46" cy="32.4" r="0.89"/><circle class="cls-12" cx="344.64" cy="130.06" r="0.89"/><circle class="cls-12" cx="344.64" cy="133.96" r="0.89"/><circle class="cls-12" cx="344.64" cy="137.86" r="0.89"/><circle class="cls-12" cx="344.64" cy="141.76" r="0.89"/><circle class="cls-12" cx="344.64" cy="145.66" r="0.89"/><circle class="cls-12" cx="344.64" cy="149.57" r="0.89"/><circle class="cls-12" cx="344.64" cy="153.47" r="0.89"/><circle class="cls-12" cx="341.26" cy="130.06" r="0.89"/><circle class="cls-12" cx="341.26" cy="133.96" r="0.89"/><circle class="cls-12" cx="341.26" cy="137.86" r="0.89"/><circle class="cls-12" cx="341.26" cy="141.76" r="0.89"/><circle class="cls-12" cx="341.26" cy="145.66" r="0.89"/><circle class="cls-12" cx="341.26" cy="149.57" r="0.89"/><circle class="cls-12" cx="341.26" cy="153.47" r="0.89"/><circle class="cls-12" cx="337.87" cy="130.06" r="0.89"/><circle class="cls-12" cx="337.87" cy="133.96" r="0.89"/><circle class="cls-12" cx="337.87" cy="137.86" r="0.89"/><circle class="cls-12" cx="337.87" cy="141.76" r="0.89"/><circle class="cls-12" cx="337.87" cy="145.66" r="0.89"/><circle class="cls-12" cx="337.87" cy="149.57" r="0.89"/><circle class="cls-12" cx="337.87" cy="153.47" r="0.89"/><circle class="cls-12" cx="334.49" cy="130.06" r="0.89"/><circle class="cls-12" cx="334.49" cy="133.96" r="0.89"/><circle class="cls-12" cx="334.49" cy="137.86" r="0.89"/><circle class="cls-12" cx="334.49" cy="141.76" r="0.89"/><circle class="cls-12" cx="334.49" cy="145.66" r="0.89"/><circle class="cls-12" cx="334.49" cy="149.57" r="0.89"/><circle class="cls-12" cx="334.49" cy="153.47" r="0.89"/><ellipse class="cls-16" cx="222.1" cy="208.98" rx="67.62" ry="5.91"/></g></g></svg>