<svg xmlns="http://www.w3.org/2000/svg" viewBox="0 0 1078.29 246.86"><defs><style>.cls-1{isolation:isolate;}.cls-2{fill:#fff;}.cls-3{fill:#3abdb9;}.cls-4{fill:#43c1c3;}.cls-5{fill:#ae9932;}.cls-6{fill:#bdbec0;}.cls-7{fill:#d2d3d4;}.cls-8{fill:#e6e7e7;}.cls-9{fill:#f8ed33;}.cls-10{fill:#e0cd2b;}.cls-11{fill:#939598;}.cls-12{fill:#a8aaab;}.cls-13{fill:#7f8183;}.cls-14{fill:#6e6f72;}.cls-15{fill:#595a5c;}.cls-16{fill:#818285;}.cls-17{fill:#e48525;}.cls-18{fill:#23bbb2;}.cls-19{fill:#0ab2a7;}.cls-20{fill:#02a898;}.cls-21{fill:#099b8c;}.cls-22{fill:#f5f6f6;}.cls-23{fill:#eceded;}.cls-24{fill:#e2e3e4;}.cls-25{fill:#f4951f;}.cls-26{fill:#eb9223;}.cls-27{fill:#d48228;}.cls-28{fill:#d7cb29;}.cls-29{fill:#94a3aa;}.cls-30{fill:#0d7e72;}.cls-31{fill:#b9b9ba;}.cls-32{fill:#a3a5a6;}.cls-33{fill:#52c2b6;}.cls-34{fill:#36bdaf;}.cls-35{mix-blend-mode:multiply;}.cls-36{fill:#c7c6c5;}.cls-37{fill:#b7bec5;}.cls-38{fill:#dee6ed;}.cls-39{fill:#a2a8b1;}.cls-40{fill:#dae0ec;}.cls-41{fill:#ccd0dc;}.cls-42{fill:#b7bbc9;}.cls-43{fill:#c6cbd8;}.cls-44{fill:#96a6b6;}.cls-45{fill:#e26428;}.cls-46{fill:#f37135;}.cls-47{fill:#3dbeb0;}.cls-48{fill:#55c2b6;}.cls-49{fill:#2ab7ea;}.cls-50{fill:#0aa8e0;}.cls-51{fill:#434752;}.cls-52{fill:#595b61;}.cls-53{fill:#eece2c;}.cls-54{fill:#fbde48;}.cls-55{fill:#454248;}.cls-56{fill:#bababa;}.cls-57{fill:#0d978e;}.cls-58{fill:#d9d9d8;}.cls-59{fill:#c7c7c7;}.cls-60{fill:#525355;}.cls-61{fill:#c4c5ce;}.cls-62{fill:#cd8029;}.cls-63{fill:#b77229;}.cls-64{fill:#ebedf1;}.cls-65{fill:#a8a9b3;}.cls-66{fill:#f4f9fc;}.cls-67{fill:#cf3f3e;}.cls-68{fill:#ea4747;}.cls-69{fill:#b93a3a;}.cls-70{fill:#d54342;}.cls-71{fill:#eab38b;}.cls-72{fill:#f2c5a6;}</style></defs><title>file</title><g class="cls-1"><g id="Layer_1" data-name="Layer 1"><rect class="cls-2" width="1078.29" height="246.86"/><g id="_1" data-name="1"><g id="_1-2" data-name="1"><polygon class="cls-3" points="0 0.92 0 246.86 361.58 246.86 2.15 0.92 0 0.92"/><polygon class="cls-4" points="1078.29 0.92 2.15 0.92 361.58 246.86 1078.29 246.86 1078.29 0.92"/></g><g id="_2" data-name="2"><g id="_2-2" data-name="2"><path class="cls-5" d="M739,297h-57.4c-2.86,0-4.41-2.27-3.45-5l16.13-46.29a7.2,7.2,0,0,1,6.4-4.44H755c2.67,0,4.33,2,3.67,4.44L745.31,292A7,7,0,0,1,739,297Z" transform="translate(118.43 -174.85)"/><polygon class="cls-6" points="825.49 28.65 807.07 99.92 857.48 113.1 875.89 41.83 825.49 28.65"/><polygon class="cls-7" points="832.29 32.37 805.49 100.9 853.96 120.08 880.76 51.56 832.29 32.37"/><polygon class="cls-8" points="851.26 121.13 804.29 96.21 840.77 32.37 885.92 58.49 851.26 121.13"/><polygon class="cls-6" points="842.59 38.61 841.48 40.55 879.65 62.57 880.76 60.63 842.59 38.61"/><polygon class="cls-6" points="838.77 47.01 876.94 69.02 878.05 67.08 839.88 45.06 838.77 47.01"/><polygon class="cls-6" points="833.81 53.46 871.98 75.48 873.09 73.53 834.92 51.52 833.81 53.46"/><polygon class="cls-6" points="830.47 59.91 868.64 81.93 869.74 79.99 831.57 57.97 830.47 59.91"/><polygon class="cls-6" points="826.75 66.37 864.92 88.38 866.03 86.44 827.86 64.42 826.75 66.37"/><polygon class="cls-6" points="822.28 72.82 860.45 94.84 861.56 92.89 823.39 70.88 822.28 72.82"/><path class="cls-9" d="M698.13,249.46V248a4,4,0,0,0-4-4H680.32a4,4,0,0,0-4,4v43.81a5.23,5.23,0,0,0,5.2,5.23h30.18V249.46Z" transform="translate(118.43 -174.85)"/><path class="cls-10" d="M739.7,249.46h-28V297h28a5.23,5.23,0,0,0,5.19-5.23V254.68A5.22,5.22,0,0,0,739.7,249.46Z" transform="translate(118.43 -174.85)"/><rect class="cls-2" x="797.26" y="72.87" width="16.08" height="6.72"/></g><g id="_3" data-name="3"><rect class="cls-11" x="593.19" y="119.15" width="77.71" height="1.68"/><polygon class="cls-12" points="670.9 120.85 593.19 120.81 593.19 122.51 670.86 190.98 670.9 120.85"/><polygon class="cls-6" points="593.19 122.51 593.15 191.75 670.86 191.79 670.86 190.98 593.19 122.51"/><rect class="cls-11" x="593.15" y="191.77" width="77.71" height="2.23"/><rect class="cls-6" x="589.07" y="112.17" width="85.95" height="6.98"/><rect class="cls-6" x="589.02" y="194" width="85.95" height="6.98"/><polygon class="cls-11" points="647.68 170.55 595.23 170.52 595.21 190.35 668.8 190.39 668.8 189.16 647.68 170.55"/><polygon class="cls-13" points="668.81 170.56 647.68 170.55 668.8 189.16 668.81 170.56"/><polygon class="cls-6" points="667.06 171.96 649.27 171.95 667.05 187.63 667.06 171.96"/><polygon class="cls-6" points="649.27 171.95 596.97 171.92 596.96 188.96 667.05 189 667.05 187.63 649.27 171.95"/><polygon class="cls-12" points="667.06 171.96 649.27 171.95 667.05 187.63 667.06 171.96"/><polygon class="cls-6" points="649.27 171.95 596.97 171.92 596.96 188.96 667.05 189 667.05 187.63 649.27 171.95"/><rect class="cls-14" x="623.6" y="179.2" width="16.82" height="2.79"/><polygon class="cls-13" points="668.81 166.58 668.82 146.75 620.66 146.73 643.17 166.57 668.81 166.58"/><polygon class="cls-11" points="595.23 166.54 643.17 166.57 620.66 146.73 595.24 146.71 595.23 166.54"/><polygon class="cls-6" points="667.07 165.19 667.08 148.15 622.25 148.12 641.58 165.17 667.07 165.19"/><polygon class="cls-6" points="596.97 165.15 641.58 165.17 622.25 148.12 596.98 148.11 596.97 165.15"/><polygon class="cls-12" points="667.07 165.19 667.08 148.15 622.25 148.12 641.58 165.17 667.07 165.19"/><polygon class="cls-6" points="596.97 165.15 641.58 165.17 622.25 148.12 596.98 148.11 596.97 165.15"/><polygon class="cls-15" points="640.43 158.19 640.43 155.4 630.49 155.39 633.66 158.18 640.43 158.19"/><polygon class="cls-14" points="623.62 158.18 633.66 158.18 630.49 155.39 623.62 155.39 623.62 158.18"/><rect class="cls-16" x="597" y="120.83" width="71.84" height="7.54"/><path class="cls-17" d="M534.67,286.21l-34,0v-2.54a.27.27,0,0,0-.27-.27H484.17a.28.28,0,0,0-.28.27v28.5a.28.28,0,0,0,.27.28l50.51,0a.28.28,0,0,0,.27-.28l0-25.69A.28.28,0,0,0,534.67,286.21Z" transform="translate(118.43 -174.85)"/><rect class="cls-2" x="604.45" y="110.4" width="11.02" height="4.22"/><path class="cls-9" d="M542.92,287.75l-34,0V285.2a.27.27,0,0,0-.28-.28H492.41a.27.27,0,0,0-.27.28v28.49a.28.28,0,0,0,.27.28l50.51,0a.29.29,0,0,0,.28-.28V288A.28.28,0,0,0,542.92,287.75Z" transform="translate(118.43 -174.85)"/><rect class="cls-2" x="612.69" y="111.94" width="11.02" height="4.22"/><polygon class="cls-13" points="668.82 145.01 668.83 125.18 596.17 125.14 618.68 144.98 668.82 145.01"/><polygon class="cls-11" points="595.24 144.97 618.68 144.98 596.17 125.14 595.25 125.14 595.24 144.97"/><polygon class="cls-6" points="667.08 143.61 667.09 126.58 597.76 126.53 617.09 143.58 667.08 143.61"/><polygon class="cls-6" points="596.99 143.57 617.09 143.58 597.76 126.53 597 126.53 596.99 143.57"/><polygon class="cls-6" points="596.99 143.57 617.09 143.58 597.76 126.53 597 126.53 596.99 143.57"/><polygon class="cls-12" points="667.08 143.61 667.09 126.58 597.76 126.53 617.09 143.58 667.08 143.61"/><rect class="cls-15" x="623.63" y="133.82" width="16.82" height="2.79"/></g><g id="_11" data-name="11"><polygon class="cls-18" points="957.96 40.27 946.78 40.44 946.8 41.49 958.14 52.57 957.96 40.27"/><polygon class="cls-19" points="946.8 41.49 947.83 112.78 959.01 112.62 958.14 52.57 946.8 41.49"/><polygon class="cls-20" points="968.85 40.11 957.96 40.27 958.14 52.57 969.18 63.37 968.85 40.11"/><polygon class="cls-21" points="958.14 52.57 959.01 112.62 969.9 112.46 969.18 63.37 958.14 52.57"/><polygon class="cls-22" points="949.13 43.77 949.85 93.44 958.73 93.31 958.14 52.57 949.13 43.77"/><polygon class="cls-2" points="958 43.44 949.12 43.57 949.13 43.77 958.14 52.57 958 43.44"/><polygon class="cls-23" points="966.6 43.31 958 43.44 958.14 52.57 966.86 61.09 966.6 43.31"/><polygon class="cls-24" points="958.14 52.57 958.73 93.31 967.32 93.18 966.86 61.09 958.14 52.57"/><path class="cls-14" d="M840.36,282.41a4.73,4.73,0,0,1-.13-9.45h.16a4.72,4.72,0,0,1,.14,9.43h-.17Z" transform="translate(118.43 -174.85)"/><path class="cls-22" d="M836.3,277.74a4,4,0,0,0,4.05,4h.15l-.12-8h-.14A4,4,0,0,0,836.3,277.74Z" transform="translate(118.43 -174.85)"/><path class="cls-24" d="M840.38,273.67l.12,8a4,4,0,0,0-.12-8Z" transform="translate(118.43 -174.85)"/><polygon class="cls-25" points="980.02 39.95 968.85 40.11 969.18 63.37 980.52 74.44 980.02 39.95"/><polygon class="cls-26" points="969.18 63.37 969.9 112.46 981.07 112.29 980.52 74.44 969.18 63.37"/><polygon class="cls-17" points="990.91 39.79 980.02 39.95 980.52 74.44 991.57 85.23 990.91 39.79"/><polygon class="cls-27" points="980.52 74.44 981.07 112.29 991.96 112.13 991.57 85.23 980.52 74.44"/><polygon class="cls-2" points="980.07 43.12 971.18 43.25 971.51 65.64 980.52 74.44 980.07 43.12"/><polygon class="cls-22" points="971.51 65.64 971.91 93.11 980.79 92.98 980.52 74.44 971.51 65.64"/><polygon class="cls-23" points="988.66 42.99 980.07 43.12 980.52 74.44 989.24 82.96 988.66 42.99"/><polygon class="cls-24" points="980.52 74.44 980.79 92.98 989.38 92.86 989.24 82.96 980.52 74.44"/><path class="cls-14" d="M862.43,282.08a4.72,4.72,0,0,1-.14-9.44h.17a4.72,4.72,0,0,1,.13,9.43h-.16Z" transform="translate(118.43 -174.85)"/><path class="cls-22" d="M858.36,277.42a4,4,0,0,0,4.06,4h.14l-.12-8h-.14A4,4,0,0,0,858.36,277.42Z" transform="translate(118.43 -174.85)"/><path class="cls-24" d="M862.44,273.35l.12,8a4,4,0,0,0-.12-8Z" transform="translate(118.43 -174.85)"/><polygon class="cls-9" points="927.67 37.65 912.57 108.39 923.5 110.75 938.6 40.01 927.67 37.65"/><polygon class="cls-28" points="949.25 42.31 938.6 40.01 923.5 110.75 934.14 113.05 949.25 42.31"/><polygon class="cls-2" points="929.25 41.23 918.84 89.99 927.53 91.87 937.94 43.11 929.25 41.23"/><polygon class="cls-8" points="946.35 44.93 937.94 43.11 927.53 91.87 935.93 93.68 946.35 44.93"/><path class="cls-14" d="M807,280.72a5.34,5.34,0,0,1-.89-.07h0l-.14,0a4.64,4.64,0,0,1-3-2.05,4.75,4.75,0,0,1-.65-3.56,4.68,4.68,0,0,1,4.52-3.73,4.25,4.25,0,0,1,1.06.11l.12,0h0a4.72,4.72,0,0,1-1.08,9.29Z" transform="translate(118.43 -174.85)"/><path class="cls-2" d="M807.81,272.07a4,4,0,0,0-1.68,7.86l.14,0,1.68-7.84Z" transform="translate(118.43 -174.85)"/><path class="cls-8" d="M810.87,276.85a4,4,0,0,0-2.92-4.74L806.27,280A4,4,0,0,0,810.87,276.85Z" transform="translate(118.43 -174.85)"/><rect class="cls-29" x="784.63" y="287.94" width="100.1" height="8.18" transform="translate(114.27 -162.69) rotate(-0.83)"/></g><g id="_14" data-name="14"><polygon class="cls-30" points="929.97 144.6 926.93 150.7 976.67 149.1 973.26 143.21 929.97 144.6"/><polygon class="cls-21" points="932.95 156.56 935.27 165.42 935.27 165.42 935.69 167.01 937.63 174.42 937.96 175.68 939.62 182 939.89 183.03 939.89 183.03 941.32 188.5 941.55 189.37 942.8 194.15 943 194.91 943.21 195.71 964.24 195.03 964.46 193.78 964.6 192.99 965.45 188.14 965.62 187.21 966.59 181.68 966.59 181.68 966.79 180.58 967.91 174.21 968.14 172.87 969.46 165.43 969.75 163.72 971.3 154.93 971.63 153.11 973.26 143.21 929.97 144.6 932.38 154.37 932.95 156.56"/><polygon class="cls-31" points="944.31 114.37 933.97 150.94 966.24 157.84 971.82 138.08 976.58 121.27 944.31 114.37"/><polygon class="cls-32" points="942.35 128.89 942 130.13 969.42 135.99 969.77 134.75 942.35 128.89"/><polygon class="cls-32" points="943.37 125.3 943.01 126.54 968.83 132.06 969.18 130.82 943.37 125.3"/><polygon class="cls-32" points="944.38 121.71 944.03 122.95 971.45 128.81 971.8 127.57 944.38 121.71"/><polygon class="cls-32" points="969.27 123.22 945.4 118.12 945.05 119.36 968.92 124.47 969.27 123.22"/><polygon class="cls-32" points="940.99 133.71 966.8 139.23 967.15 137.99 941.34 132.47 940.99 133.71"/><polygon class="cls-32" points="939.98 137.29 967.39 143.15 967.75 141.91 940.33 136.05 939.98 137.29"/><polygon class="cls-32" points="938.97 140.87 963.96 146.21 964.31 144.97 939.32 139.63 938.97 140.87"/><polygon class="cls-32" points="937.95 144.44 965.37 150.3 965.72 149.06 938.3 143.21 937.95 144.44"/><polygon class="cls-32" points="936.94 148.02 964.36 153.88 964.71 152.64 937.29 146.78 936.94 148.02"/><polygon class="cls-7" points="932.89 123.72 932.38 161.2 965.76 161.38 966.04 141.13 966.27 123.9 932.89 123.72"/><polygon class="cls-6" points="934.79 138.17 934.77 139.44 963.13 139.59 963.15 138.32 934.79 138.17"/><polygon class="cls-6" points="934.84 134.49 934.82 135.76 961.52 135.91 961.54 134.63 934.84 134.49"/><polygon class="cls-6" points="934.89 130.81 934.87 132.08 963.24 132.24 963.25 130.96 934.89 130.81"/><polygon class="cls-6" points="959.64 127.27 934.94 127.13 934.92 128.4 959.62 128.53 959.64 127.27"/><polygon class="cls-6" points="934.72 143.11 961.42 143.25 961.44 141.98 934.74 141.84 934.72 143.11"/><polygon class="cls-6" points="934.67 146.77 963.03 146.93 963.05 145.66 934.69 145.5 934.67 146.77"/><polygon class="cls-6" points="934.62 150.44 960.48 150.58 960.5 149.31 934.64 149.17 934.62 150.44"/><polygon class="cls-6" points="934.57 154.11 962.94 154.26 962.95 152.99 934.59 152.84 934.57 154.11"/><polygon class="cls-6" points="934.52 157.78 962.88 157.93 962.9 156.66 934.54 156.5 934.52 157.78"/><polygon class="cls-33" points="926.93 150.7 928.26 156.73 928.65 158.51 930.33 166.16 930.33 166.16 930.65 167.62 932.23 174.78 932.51 176.06 933.99 182.81 934.24 183.97 934.24 183.97 935.64 190.34 935.88 191.41 936.87 195.91 953.38 195.38 951.93 149.9 926.93 150.7"/><polygon class="cls-34" points="951.93 149.9 953.38 195.38 971.02 194.81 971.65 189.69 971.79 188.57 972.58 182.19 972.58 182.18 972.73 180.97 973.56 174.23 973.73 172.88 974.61 165.75 974.8 164.2 975.74 156.67 975.92 155.2 976.67 149.1 951.93 149.9"/><polygon class="cls-2" points="952.44 160.74 947.11 157.85 942.14 166.33 947.71 169.35 952.44 160.74"/><polygon class="cls-2" points="955.2 165.23 952.43 166.94 959.66 166.34 963.46 160.1 960.6 161.88 956.86 157.53 948.54 157.8 952.42 160 955.2 165.23"/><polygon class="cls-2" points="957.27 169.04 963.18 176.89 967.97 173.15 962.27 165.14 957.27 169.04"/><polygon class="cls-2" points="957.98 177.6 957.54 174.36 955.16 181.25 959.28 187.27 958.83 183.92 964.3 182.24 967.43 174.49 963.86 177.16 957.98 177.6"/><polygon class="cls-2" points="943.13 177.76 943.39 183.85 953.18 183.82 952.91 177.46 943.13 177.76"/><polygon class="cls-2" points="948.45 174.6 944.24 168.66 936.97 168.55 939.95 170.12 938.14 175.58 942.62 182.64 942.52 178.16 945.57 173.09 948.45 174.6"/></g><path class="cls-2" d="M880.83,314.93l18.92,13.8-2.22,3.08.4.29.4.29,1.81-2.5.47,2.92.47-.2.4-.18.06,0-.61-3.87,0-.2-20.29-14.8-25.21,35,8,5.83.29-.4.29-.4-7.2-5.25Z" transform="translate(118.43 -174.85)"/><polygon class="cls-2" points="1016.28 155.89 998.98 143.28 998.3 144.22 1004.17 148.5 1004.24 148.41 1015.66 156.75 1016.28 155.89"/><polygon class="cls-2" points="997 146.02 1002.88 150.3 1003.55 149.36 997.68 145.08 997 146.02"/><polygon class="cls-2" points="995.71 147.82 1001.58 152.1 1002.26 151.16 996.38 146.88 995.71 147.82"/><polygon class="cls-2" points="990.55 154.98 996.42 159.26 997.26 158.1 991.39 153.82 990.55 154.98"/><polygon class="cls-2" points="988.14 158.32 994.01 162.6 994.85 161.44 988.98 157.16 988.14 158.32"/><polygon class="cls-2" points="985.73 161.66 991.61 165.94 992.44 164.79 986.57 160.5 985.73 161.66"/><polygon class="cls-2" points="983.32 165.01 989.2 169.29 990.03 168.13 984.16 163.85 983.32 165.01"/><polygon class="cls-2" points="980.91 168.35 986.79 172.63 987.62 171.47 981.75 167.19 980.91 168.35"/><polygon class="cls-2" points="978.5 171.7 984.38 175.98 985.21 174.82 979.34 170.54 978.5 171.7"/><path class="cls-2" d="M906.24,339l0-.21L903.82,337l-.6.18h0l-.57.16,2.45,1.79-2,2.78-.52.73-2.84,3.94a.49.49,0,0,0,0,.51.45.45,0,0,0,.15.19l7.41,5.4-18.38,25.52-26.74-19.49,2.51-3.49.29-.4.3-.41,2-2.73.84-1.16,1.57-2.18.84-1.16L872,345l.84-1.16,1.57-2.19.84-1.16,1.57-2.18.83-1.16L879.2,335l.83-1.16,4.33-6,.67-.93.62-.86.49-.68,10.22,7.45.3.22.4.29.4.3.48.35.54-.23.53-.23-1-.7-.4-.29-.4-.3L885.92,324l-.39.54-.68.94-.62.86-.68.94-4.32,6-.83,1.16-1.58,2.18-.83,1.16-1.58,2.19-.83,1.16L872,343.27l-.83,1.16-1.58,2.19-.83,1.15L867.18,350l-.83,1.16-2,2.73-.29.4-.29.41L860.71,359l28.34,20.66,19.37-26.9,0-.2Zm-5.46,7.82,4.67-6.48,1.77,11.18Z" transform="translate(118.43 -174.85)"/><path class="cls-2" d="M895,335.21l-.24-.18-8.9-6.49-.18.25-.5.69,8.58,6.26Z" transform="translate(118.43 -174.85)"/><path class="cls-2" d="M902.33,340.56l-.56-.42-2.47-1.79-.79.23-.6.18h0l4.11,3,.46.34h0l.08-.11.41-.57.19-.25-.26-.19Z" transform="translate(118.43 -174.85)"/><path class="cls-2" d="M892.83,336.37l-8.27-6-.67.94,7.82,5.71Z" transform="translate(118.43 -174.85)"/><path class="cls-2" d="M895.27,339.56h0l0,0,5.62,4.09.29.22.68-.94-.29-.22-4.93-3.59Z" transform="translate(118.43 -174.85)"/><path class="cls-2" d="M889.91,338l.77-.42-7.41-5.41-.68.94,7,5.1C889.69,338.11,889.79,338,889.91,338Z" transform="translate(118.43 -174.85)"/><polygon class="cls-2" points="1010.6 165.22 1014.2 167.84 1018.02 170.63 1018.32 170.85 1018.99 169.91 1018.7 169.69 1013.94 166.22 1012.15 164.92 1010.6 165.22"/><path class="cls-2" d="M901.66,356.14l-5.58-4.07-.41-.3-.4-.29-.9-.65c-.06.3-.18.77-.36,1.5l.43.31.4.29.4.29,5.59,4.08Z" transform="translate(118.43 -174.85)"/><polygon class="cls-2" points="1001.9 168.03 996.7 164.23 996.54 164.45 995.86 165.39 1001.53 169.53 1001.84 168.3 1001.9 168.03"/><polygon class="cls-2" points="1017.68 184.64 1012.1 180.56 1011.73 180.3 1011.44 181.47 1011.36 181.79 1016.85 185.79 1017.68 184.64"/><path class="cls-2" d="M875.71,342.64l-.69.94,6.25,4.55a2.18,2.18,0,0,1,.9.07l.18-.72.06-.28-6.55-4.78Z" transform="translate(118.43 -174.85)"/><path class="cls-2" d="M896.85,362.83l-5.17-3.77c-.12.12-.23.25-.36.37l-.47.79L896,364Z" transform="translate(118.43 -174.85)"/><path class="cls-2" d="M873.3,346l-.69.95,6.34,4.62.3-1.23,0-.06c0-.07,0-.14.05-.21l-5.87-4.28Z" transform="translate(118.43 -174.85)"/><polygon class="cls-2" points="1012.87 191.32 1010.39 189.52 1010.02 191.02 1012.03 192.49 1012.87 191.32"/><path class="cls-2" d="M870.89,349.32l-.68.95,8.52,6.21a15.89,15.89,0,0,1-.41-1.73,2.6,2.6,0,0,1,0-.35L871,349.11Z" transform="translate(118.43 -174.85)"/><polygon class="cls-2" points="1009.62 195.83 1010.46 194.67 1009.33 193.85 1008.96 195.35 1009.62 195.83"/><polygon class="cls-2" points="986.91 177.82 986.22 178.77 995.51 185.54 995.68 184.87 996.86 185.16 996.87 185.09 996.94 184.81 987.06 177.61 986.91 177.82"/><polygon class="cls-2" points="984.65 180.96 984.36 181.36 983.82 182.11 994.45 189.86 994.69 188.89 994.81 188.37 994.81 188.37 984.65 180.95 984.65 180.96"/><path class="cls-2" d="M930.16,327.46l.14-2.77.13-2.77-3.49,1.26-.16.06v0s0-.07,0-.11l-.45.15-.62.22-.16-.19,0,0-.17-.15-.15-.09-.14-.09a2.74,2.74,0,0,0-.38-.15,2.64,2.64,0,0,0-.52-.13,7.18,7.18,0,0,0-2.76.25,19.14,19.14,0,0,0-2.75.94c-4.1,1.62-9,3.34-11.27,4.1l-1.21.42.19.15a3.84,3.84,0,0,0,.54.32,3.19,3.19,0,0,0,.84.25,2.7,2.7,0,0,0,.7,0,3,3,0,0,0,.79-.17,4.37,4.37,0,0,0,1.33-.78l.43-.15.46-.16c2.13-.72,6.35-2.08,8.39-2.74l.78-.25.39-.13a2.62,2.62,0,0,1,.37-.08,1.81,1.81,0,0,1,.69,0l.11,0c-1.5.53-2.9,1-4.22,1.53l-.16.06-1.62.62-.4.15c-.58.22-1.15.44-1.71.67l-1.47.58-.89.36-.89.37-1.9.78L905,331.47l-3.36,1.45-.46.2-.34.14-.13.06-.69.29-.53.23-.53.23-.53.23-2.09.9-.18.07-.67.28,0,0-.88.38-.32.13-.71.3,0,.07,0,.08-.09.05-.21.12-1.13.61-.19.11h0l-.13.07-.48.27-.19.1-.39.21-.62.34-.12.07-.27.14-.43.29a5.26,5.26,0,0,0-1,.95l0,0h.07l.5.07c.21,0,.43,0,.67,0a5.3,5.3,0,0,0,.59,0l.51-.08.57-.11h.09l.33-.06,1.54-.3,1.33-.26,0,.06,0,.08.19-.05.45-.14.94-.28.68-.21.59-.18h0l.6-.18.79-.23,2.51-.75.48-.14.32-.1h0l.11,0,.45-.13.6-.18.6-.18,2.58-.77c2.07-.61,4-1.2,6-1.82l.92-.29.92-.3,1.5-.49c3.7-1.22,7.68-2.64,12.74-4.6l0-.13ZM892.73,339l-1.55.31-.28,0-.13-.35-.16-.44.87-.48,1-.56,1-.54.61,1.71,0,0Zm20-5.67-1.47-4.1,1-.43,1.5,4.19Zm14.35-9.31-.06-.37,2.89-1.05-.21,4.47-1.36.48Z" transform="translate(118.43 -174.85)"/><path class="cls-2" d="M887.07,345.65c-.05,0-.1.05-.15.06a1.81,1.81,0,0,0-.35.13c0-.11.06-.22.08-.32a2.29,2.29,0,0,0,.07-.28c.11-.42.21-.83.31-1.22s.24-1,.33-1.33l.29-1.16c0-.11.06-.22.08-.33h0a.92.92,0,0,0-.19-.77l-.14-.18a1.78,1.78,0,0,0-1.7-.53l-.26.06-.23.11a.92.92,0,0,0-.45.49,3.89,3.89,0,0,0-.16.61l-.26,1.07-.3,1.23-.07.27-.3,1.23-.39,1.6-.3,1.22-.07.28-.3,1.22,0,.17-.06-.09a1.32,1.32,0,0,0-1.29-.4,1.48,1.48,0,0,0-.85.58,2.09,2.09,0,0,0-.38.67,2,2,0,0,0-.09.37l0,0-.07.27-.29,1.23-.19.75c0,.17-.09.34-.13.51l-.09.33a6.74,6.74,0,0,0-.17.75,1.85,1.85,0,0,0,.07.62c0,.11,0,.24.08.39.1.42.25,1,.47,1.78l.16.6c.12.4.2.7.22.76s0,.48,0,.8h0l-.27-.07a.3.3,0,0,0-.26,0,.31.31,0,0,0-.16.21l-.15.63-.07.28-.19.78-.85-.21,0,.1-.57,2.31-.13.51h0l-.13.52-.23.94v0l-.79,3.23h0l11.72,8.54h0l.13-.52h0l.66-2.7.37-1.5.7-2.83.37-1.5.69-2.82.27-1.08-.65-.16-.47-.12.22-.87.2-.81a.36.36,0,0,0-.25-.43l-.37-.09.28-1.13a1.34,1.34,0,0,1,0-.17c0-.06.16-.29.31-.54s.49-.8.56-.88.18-.19.27-.28a3.91,3.91,0,0,0,1-1.68l.14-.57,0-.2.21-.84c0-.07,0-.17.06-.25s.06-.26.1-.41.14-.54.21-.84c.21-.81.37-1.45.5-2,.18-.74.3-1.23.35-1.51a2.09,2.09,0,0,0,.05-.28.43.43,0,0,0,0-.16h0a.64.64,0,0,0,0-.07,1.89,1.89,0,0,0-.18-.41,1.55,1.55,0,0,0-.92-.71,1.43,1.43,0,0,0-1,.12,1.88,1.88,0,0,0-.23.16h0c0-.06,0-.12,0-.19l0-.08,0-.15a1.36,1.36,0,0,0-.2-1.32,1.59,1.59,0,0,0-1.92-.43,1.31,1.31,0,0,0-.27.19,1.07,1.07,0,0,0-.18.19,2.09,2.09,0,0,0-.14.17,1.07,1.07,0,0,0,0-.25,1.27,1.27,0,0,0,0-.34,1.37,1.37,0,0,0-.32-.7,1.71,1.71,0,0,0-1.31-.49Zm-1.49-5.16,0-.1.07,0a1.07,1.07,0,0,1,.94,0,.87.87,0,0,1,.11.09.67.67,0,0,1,.16.12l0,0,0,.11-.11.55a.69.69,0,0,1-.29.42.63.63,0,0,1-.5.1.69.69,0,0,1-.52-.79Zm3.21,21.69h.05l.21.05.12,0,.34.08h0l0,.2-.28,1.15-.86-.22-.44-.11-.52-.12-.51-.13-2.6-.65-2.87-.71-.67-.17-1.25-.31.12-.51.07-.28.14-.56h0l.35.08.34.09.89.22,3.93,1,2.38.59.52.13Zm-2.62-13.1c.05-.16.09-.32.13-.49a.3.3,0,0,1,0-.1l.06-.26.06-.27c0-.21.15-.64.24-1a4,4,0,0,1,.14-.44.55.55,0,0,1,.37-.2,1.06,1.06,0,0,1,.88.27.78.78,0,0,1,.14.73l-.15.64-.1.41c0,.08-.05.16-.07.24a4.34,4.34,0,0,0-.14.6.55.55,0,0,0,.21.54.59.59,0,0,0,.57.06c.27-.08.49-.58.64-1,.08-.22.13-.44.17-.58a1.18,1.18,0,0,1,.27-.54.68.68,0,0,1,.2-.18h0a.88.88,0,0,1,1.07.27,1.18,1.18,0,0,1,.06.7l0,.15,0,.07a8.76,8.76,0,0,0-.26,1.18c0,.38,0,.62.2.76a.33.33,0,0,0,.13.07.45.45,0,0,0,.52-.22,2.32,2.32,0,0,0,.24-.53.74.74,0,0,1,.41-.44.7.7,0,0,1,.38,0h0a.86.86,0,0,1,.5.4,1.18,1.18,0,0,1,.1.19v.05s0,.06,0,.09c0,.23-.16.7-.3,1.28s-.39,1.57-.56,2.24c0,.21-.1.39-.15.58-.08.35-.17.68-.23.93l-.14.57-.21.85,0,.19a3.27,3.27,0,0,1-.92,1.43l-.18.19a9,9,0,0,0-.65,1c-.19.31-.35.59-.37.64a5.1,5.1,0,0,0-.2.7c-.05.19-.11.43-.18.74l-.3-.07-.52-.13-.64-.16-3.67-.91-3.27-.82a7.49,7.49,0,0,0,0-1.05,4.19,4.19,0,0,0-.16-.62l-.07-.25c-.1-.38-.27-1-.42-1.55,0-.14-.07-.27-.11-.4a7.43,7.43,0,0,1-.23-1.14c0-.14,0-.28.08-.42s.1-.39.16-.59.09-.35.14-.52l.11-.48.3-1.22.07-.28.08-.35a1.47,1.47,0,0,1,.08-.28,1.5,1.5,0,0,1,.27-.5.9.9,0,0,1,.45-.3.71.71,0,0,1,.56.11l0,0a1.2,1.2,0,0,1,0,.58c0,.11,0,.23,0,.34a5.58,5.58,0,0,1-.16.68,1.58,1.58,0,0,0-.06.61.43.43,0,0,0,.6.43h0c.31-.13.38-.51.43-.79l.07-.29.39-1.6.3-1.23.07-.27.3-1.23.39-1.6.3-1.22.07-.28.3-1.22.19-.77a1.08,1.08,0,0,0,.31.36,1.12,1.12,0,0,0,.46.2,1.17,1.17,0,0,0,.87-.17h0l-.1.4c-.1.37-.18.72-.27,1.06s-.21.84-.3,1.22a2.86,2.86,0,0,0-.07.28c-.11.44-.21.84-.31,1.22l-.39,1.6c-.12.52-.2.86-.21.94a.59.59,0,0,0,.16.47l.1.07a.42.42,0,0,0,.39.07A.58.58,0,0,0,886.17,349.08Z" transform="translate(118.43 -174.85)"/><g class="cls-35"><path class="cls-36" d="M801.28,318.21l6.63-4.62L792.22,313l4-2.78-21.09-.79a10,10,0,0,0-3.56-1.07l-.08-1.62-.11-2a1.71,1.71,0,0,0-1.77-1.67l-2.38.14-.72,0-2.69.16-4.22.25-66.76,3.93-.34,0v.12l-3.65,1.56L682.44,312l-.69.3,7.37,2.18.92.27L641.33,334.8l17.94.79L653,338.17l10.36.46L652.72,343l9.68.43-13.16,5.43,14.32.63-14.61,6,10.48.46-13.95,5.75,10.3.46L649,365l9.68.43-13.16,5.43,14.32.63-14.61,6,11.51.51-10,4.13,112.49,5,42.4-29.54-7.73-.29,6.24-4.35-8.79-.33,9.07-6.32-4.67-.18,8.15-5.68-7.77-.29,4.25-3L795.2,337l8.64-6-8.79-.33,9.07-6.32-4.67-.18,8.16-5.68Z" transform="translate(118.43 -174.85)"/></g><g id="_7" data-name="7"><polygon class="cls-37" points="765.15 207.29 877.64 212.25 920.04 182.71 832.69 179.45 765.15 207.29"/><polygon class="cls-38" points="763.66 202.65 876.15 207.61 918.55 178.07 831.2 174.82 763.66 202.65"/><polygon class="cls-37" points="763.95 196 876.44 200.96 918.83 171.42 831.49 168.16 763.95 196"/><polygon class="cls-38" points="767.42 190.15 879.91 195.1 922.31 165.56 834.97 162.31 767.42 190.15"/><polygon class="cls-37" points="763.9 186.9 858.99 191.09 876.4 191.85 918.79 162.31 831.45 159.06 763.9 186.9"/><polygon class="cls-38" points="767.38 180.68 879.87 185.64 922.27 156.1 834.93 152.85 767.38 180.68"/><polygon class="cls-37" points="767.67 174.03 880.16 178.99 922.55 149.45 835.21 146.19 767.67 174.03"/><polygon class="cls-38" points="771.15 168.18 883.64 173.13 926.03 143.59 838.69 140.34 771.15 168.18"/><polygon class="cls-37" points="771.45 163.32 883.94 168.28 926.33 138.74 838.99 135.49 771.45 163.32"/><polygon class="cls-39" points="793.47 158.71 879.74 162.41 884.07 159.59 799.71 156.04 793.47 158.71"/><polygon class="cls-39" points="805.48 153.56 888.08 157 892.03 154.43 811.18 151.12 805.48 153.56"/><polygon class="cls-39" points="816.47 148.85 895.69 152.05 899.31 149.7 821.71 146.61 816.47 148.85"/><polygon class="cls-39" points="826.57 144.52 902.67 147.52 906.01 145.36 831.39 142.46 826.57 144.52"/><polygon class="cls-39" points="835.87 140.54 909.1 143.35 912.18 141.35 840.33 138.63 835.87 140.54"/><polygon class="cls-40" points="759.76 159.95 830.05 163.05 808.56 139.84 759.76 159.95"/><path class="cls-41" d="M696.81,311.94l-6.68,2.75,21.49,23.21,42.2,1.86,42.4-29.54-73.52-2.74C716,314.27,705.72,315.31,696.81,311.94Z" transform="translate(118.43 -174.85)"/><path class="cls-40" d="M696.81,311.94c8.91,3.37,19.2,2.33,25.89-4.46L708.88,307Z" transform="translate(118.43 -174.85)"/><polygon class="cls-42" points="824.61 157.18 868.05 159.04 872.39 156.22 821.75 154.09 824.61 157.18"/><polygon class="cls-43" points="788.02 152.67 781.78 155.34 824.61 157.18 821.75 154.09 788.02 152.67"/><polygon class="cls-42" points="819.12 151.25 876.39 153.63 880.34 151.06 816.52 148.44 819.12 151.25"/><polygon class="cls-43" points="799.5 147.75 793.79 150.19 819.12 151.25 816.52 148.44 799.5 147.75"/><polygon class="cls-43" points="810.02 143.24 804.79 145.48 814.13 145.86 811.77 143.31 810.02 143.24"/><polygon class="cls-42" points="814.13 145.86 884 148.68 887.63 146.33 811.77 143.31 814.13 145.86"/><polygon class="cls-42" points="814.88 141.16 890.99 144.15 894.32 141.99 819.7 139.09 814.88 141.16"/><polygon class="cls-42" points="824.19 137.17 897.41 139.98 900.49 137.98 828.64 135.26 824.19 137.17"/><path class="cls-44" d="M767.42,307l.22,4.32,2.38-.14a1.74,1.74,0,0,0,1.59-1.87l-.12-2.55Z" transform="translate(118.43 -174.85)"/><path class="cls-37" d="M769.61,303l-2.38.14.19,3.81,4.07-.24-.11-2A1.71,1.71,0,0,0,769.61,303Z" transform="translate(118.43 -174.85)"/><polygon class="cls-45" points="811.34 140.85 811.68 140.83 811.34 140.73 811.34 140.85"/><polygon class="cls-46" points="810.94 132.84 811.27 132.7 810.93 132.72 810.94 132.84"/><polygon class="cls-47" points="876.53 132.68 811.46 136.51 811.68 140.83 878.44 136.9 882.66 136.66 882.44 132.34 876.53 132.68"/><polygon class="cls-48" points="878.02 128.77 811.27 132.7 811.46 136.51 876.53 132.68 882.44 132.34 882.25 128.52 878.02 128.77"/><polygon class="cls-49" points="884.93 128.36 882.25 128.52 882.44 132.34 885.13 132.18 885.85 132.13 885.66 128.32 884.93 128.36"/><polygon class="cls-50" points="885.13 132.18 882.44 132.34 882.66 136.66 885.35 136.5 886.07 136.45 885.85 132.13 885.13 132.18"/><polygon class="cls-51" points="800.87 137.14 800.18 137.43 807.55 139.61 807.4 136.75 800.87 137.14"/><polygon class="cls-52" points="800.87 137.14 807.4 136.75 807.28 134.4 800.87 137.14"/><polygon class="cls-53" points="811.13 136.53 807.4 136.75 807.55 139.61 811.34 140.73 811.68 140.83 811.46 136.51 811.13 136.53"/><polygon class="cls-54" points="810.94 132.84 807.28 134.4 807.4 136.75 811.13 136.53 811.46 136.51 811.27 132.7 810.94 132.84"/><path class="cls-49" d="M705.18,321.18l.2,3.09c1.44.14,3.69.34,7.69.69-.13-1.87-.25-3.75-.37-5.62Z" transform="translate(118.43 -174.85)"/><polygon class="cls-49" points="896.09 147.58 901.83 147.15 905.13 136.5 897.18 137.1 896.09 147.58"/><path class="cls-55" d="M751,313.91l.7,10.65,3-.13-.71-10.85Z" transform="translate(118.43 -174.85)"/><path class="cls-52" d="M712.39,319.09q.2,3.09.4,6.16c14.82-.28,24.92-.25,35.25-.57l-.68-10.35C737.1,315.58,727.1,317.13,712.39,319.09Z" transform="translate(118.43 -174.85)"/><path class="cls-52" d="M775.72,309.78c-2.15-1.54-6-2-11.49-1.27-11,1.19-24.8,1.89-24.94,1.89s2.54,4.64,8.06,2c3.9-.28,20.55-.89,20.72-.9A3.77,3.77,0,0,1,770,312c.38.27.82.78.33,2.08-.41,1.06-.13,1.55.18,1.77,1.23.89,5.46-1.73,6.73-2.56l.16-.1,0-.21A3.65,3.65,0,0,0,775.72,309.78Z" transform="translate(118.43 -174.85)"/><path class="cls-49" d="M747.36,314.33l.68,10.35,3.63-.12-.7-10.65Z" transform="translate(118.43 -174.85)"/><path class="cls-52" d="M753.93,313.58l.71,10.85c7.34-.34,15.28-.9,25.46-1.91q-.36-5.44-.71-10.9C769.18,312.17,761.24,312.81,753.93,313.58Z" transform="translate(118.43 -174.85)"/><path class="cls-55" d="M703.43,321.7a10,10,0,0,0-2.31,1.34,11,11,0,0,0,2.21.86,11.33,11.33,0,0,0,2,.37c-.07-1-.13-2.06-.2-3.09A9,9,0,0,0,703.43,321.7Z" transform="translate(118.43 -174.85)"/></g><path class="cls-2" d="M619.76,220v40.78h13.41V215.36H619.76v.95l.81.18Zm7,38h-.12a3.42,3.42,0,0,1,0-6.83h.11a3.42,3.42,0,0,1,0,6.83Zm-5.61-40.61v-.13h11v31.34h-11Z" transform="translate(118.43 -174.85)"/><path class="cls-2" d="M626.8,251.71h-.11a3,3,0,0,0,0,5.93h.11a3,3,0,0,0,0-5.93Zm0,5.48h-.09a2.53,2.53,0,0,1,0-5h.09a2.52,2.52,0,0,1,0,5Z" transform="translate(118.43 -174.85)"/><path class="cls-2" d="M640.64,260.82h6.85V215.36H633.62v45.46h7Zm0-2.73h-.13a3.42,3.42,0,0,1,0-6.83h.12a3.42,3.42,0,0,1,0,6.83Zm-5.62-26.67V217.35h11v31.34h-11Z" transform="translate(118.43 -174.85)"/><path class="cls-2" d="M640.66,251.71h-.11a3,3,0,0,0,0,5.93h.11a3,3,0,0,0,0-5.93Zm0,5.48h-.09a2.53,2.53,0,0,1,0-5h.09a2.52,2.52,0,0,1,0,5Z" transform="translate(118.43 -174.85)"/><path class="cls-2" d="M609.9,261.14,619.31,220l.45-2,.27-1.2-.27-.06-.45-.1-5.94-1.38-6.85-1.58L596.39,258l6.84,1.58ZM607.48,216l5.44,1.26,5.27,1.22-7,30.54-5.26-1.22-5.44-1.26Zm-5.85,39.43a3.46,3.46,0,0,1-.43-2.59,3.39,3.39,0,0,1,3.31-2.65,3.31,3.31,0,0,1,.77.09l.11,0a3.42,3.42,0,0,1-.87,6.72,3.49,3.49,0,0,1-.65-.06l-.13,0A3.41,3.41,0,0,1,601.63,255.4Z" transform="translate(118.43 -174.85)"/><path class="cls-2" d="M603.94,256.49h0a2.6,2.6,0,0,0,.56.06h0a3,3,0,0,0,.76-5.83h0l-.08,0a3.07,3.07,0,0,0-.67-.08,2.94,2.94,0,0,0-2.87,2.31,3,3,0,0,0,.37,2.24,2.93,2.93,0,0,0,1.84,1.31ZM602.07,253a2.52,2.52,0,0,1,3-1.9l.08,0a2.52,2.52,0,0,1-1.12,4.91l-.09,0A2.52,2.52,0,0,1,602.07,253Z" transform="translate(118.43 -174.85)"/><rect class="cls-2" x="710.02" y="86.91" width="62.89" height="3.64"/><rect class="cls-2" x="754.39" y="45.84" width="8.97" height="1.34"/><rect class="cls-2" x="754.39" y="48.17" width="8.97" height="1.34"/><rect class="cls-2" x="740.63" y="45.84" width="8.97" height="1.34"/><rect class="cls-2" x="740.63" y="48.17" width="8.97" height="1.34"/><polygon class="cls-2" points="734.89 46.33 726.14 44.3 725.85 45.6 734.59 47.63 734.89 46.33"/><polygon class="cls-2" points="734.37 48.59 725.63 46.56 725.33 47.87 734.07 49.9 734.37 48.59"/><g class="cls-35"><path class="cls-56" d="M608.88,273.2v63.91c-.1-.27-.19-.53-.28-.79V265.21H579.85v8H551.3V381.37h18.42l6.19,16.3h51.53l-5.19-16.3h15.37V273.2H608.88Zm0,77.08V361l-.28.1v-9.35C608.69,351.28,608.78,350.78,608.88,350.28Z" transform="translate(118.43 -174.85)"/><polygon class="cls-56" points="771.12 95.1 756.56 95.1 756.56 129.87 756.56 171.73 756.56 203.26 771.12 203.26 785.31 203.26 785.31 200.65 785.31 163.05 785.31 95.1 771.12 95.1"/></g><g id="_10" data-name="10"><polygon class="cls-57" points="741.87 206.52 727.31 206.52 727.31 142.3 741.87 156.94 741.87 206.52"/><polygon class="cls-19" points="727.31 142.3 727.31 99.94 727.31 98.35 741.87 98.35 741.87 116.75 741.87 156.94 727.31 142.3"/><polygon class="cls-21" points="741.87 156.94 741.87 116.75 741.87 98.35 756.05 98.35 756.05 133.12 756.05 171.22 741.87 156.94"/><polygon class="cls-30" points="756.05 206.52 741.87 206.52 741.87 156.94 756.05 171.22 756.05 206.52"/><polygon class="cls-2" points="730.29 145.3 730.29 103.39 730.29 103.09 741.87 103.09 741.87 116.75 741.87 156.94 730.29 145.3"/><polygon class="cls-58" points="741.87 177.65 730.29 177.65 730.29 145.3 741.87 156.94 741.87 177.65"/><polygon class="cls-59" points="753.07 177.65 741.87 177.65 741.87 156.94 753.07 168.21 753.07 177.65"/><polygon class="cls-24" points="741.87 156.94 741.87 116.75 741.87 103.09 753.07 103.09 753.07 129.67 753.07 168.21 741.87 156.94"/><path class="cls-60" d="M623.47,359.69c3.31.14,5.9,3.23,5.9,7.05s-2.59,6.91-5.9,7.05h-.22c-3.37,0-6.11-3.17-6.11-7.06s2.74-7.06,6.11-7.06h.22Z" transform="translate(118.43 -174.85)"/><path class="cls-58" d="M623.44,372.74h-.19c-2.87,0-5.2-2.69-5.2-6s2.33-6,5.2-6h.19Z" transform="translate(118.43 -174.85)"/><path class="cls-59" d="M628.45,366.74c0,3.25-2.23,5.88-5,6v-12C626.22,360.86,628.45,363.5,628.45,366.74Z" transform="translate(118.43 -174.85)"/><rect class="cls-61" x="734.59" y="109.23" width="14.37" height="5.75"/><polygon class="cls-62" points="771.12 203.26 756.56 203.26 756.56 171.73 771.12 186.37 771.12 203.26"/><polygon class="cls-26" points="756.56 171.73 756.56 129.87 756.56 95.1 771.12 95.1 771.12 146.67 771.12 186.37 756.56 171.73"/><polygon class="cls-63" points="785.31 203.26 771.12 203.26 771.12 186.37 785.31 200.65 785.31 203.26"/><polygon class="cls-27" points="771.12 186.37 771.12 146.67 771.12 95.1 785.31 95.1 785.31 163.05 785.31 200.65 771.12 186.37"/><polygon class="cls-22" points="759.55 99.84 771.12 99.84 771.12 146.67 771.12 174.39 759.55 174.39 759.55 133.31 759.55 99.84"/><polygon class="cls-24" points="771.12 99.84 782.32 99.84 782.32 159.6 782.32 174.39 771.12 174.39 771.12 146.67 771.12 99.84"/><path class="cls-60" d="M652.73,370.53h-.23c-3.37,0-6.11-3.17-6.11-7.06a7.39,7.39,0,0,1,2.72-5.87l8.9,8.95A6.11,6.11,0,0,1,652.73,370.53Z" transform="translate(118.43 -174.85)"/><path class="cls-14" d="M649.11,357.62a5.53,5.53,0,0,1,3.39-1.19h.23c3.3.13,5.89,3.23,5.89,7.05a8,8,0,0,1-.61,3.08Z" transform="translate(118.43 -174.85)"/><path class="cls-58" d="M652.69,369.48h-.19c-2.87,0-5.2-2.69-5.2-6a6.24,6.24,0,0,1,2.53-5.15l2.86,2.88Z" transform="translate(118.43 -174.85)"/><path class="cls-22" d="M649.83,358.34a4.67,4.67,0,0,1,2.67-.86h.19v3.73Z" transform="translate(118.43 -174.85)"/><path class="cls-59" d="M652.69,369.48v-8.26l4.6,4.63A5.28,5.28,0,0,1,652.69,369.48Z" transform="translate(118.43 -174.85)"/><path class="cls-24" d="M652.69,361.22v-3.73c2.79.11,5,2.75,5,6a6.81,6.81,0,0,1-.42,2.36Z" transform="translate(118.43 -174.85)"/><rect class="cls-61" x="763.94" y="105.98" width="14.37" height="5.75"/><polygon class="cls-9" points="669.73 99.94 669.73 98.35 684.28 98.35 684.28 116.75 684.28 206.52 669.73 206.52 669.73 99.94"/><polygon class="cls-10" points="684.28 116.75 684.28 98.35 698.47 98.35 698.47 133.12 698.47 206.52 684.28 206.52 684.28 116.75"/><polygon class="cls-2" points="672.71 103.39 672.71 103.09 684.28 103.09 684.28 116.75 684.28 177.65 672.71 177.65 672.71 103.39"/><polygon class="cls-64" points="684.28 116.75 684.28 103.09 695.48 103.09 695.48 129.67 695.48 177.65 684.28 177.65 684.28 116.75"/><path class="cls-65" d="M565.67,373.8c-3.37,0-6.12-3.17-6.12-7.06s2.75-7.06,6.12-7.06h.22c3.31.14,5.9,3.23,5.9,7.05s-2.59,6.91-5.9,7.05h-.22Z" transform="translate(118.43 -174.85)"/><path class="cls-66" d="M560.46,366.74c0,3.39,2.44,6.12,5.4,6v-12C562.9,360.62,560.46,363.35,560.46,366.74Z" transform="translate(118.43 -174.85)"/><path class="cls-64" d="M565.86,360.74v12c2.78-.12,5-2.75,5-6S568.64,360.86,565.86,360.74Z" transform="translate(118.43 -174.85)"/><rect class="cls-61" x="677" y="109.23" width="14.37" height="5.75"/><polygon class="cls-67" points="712.84 141.93 712.84 198.52 698.28 198.52 698.28 125.13 698.28 113.1 712.84 127.75 712.84 141.93"/><polygon class="cls-68" points="698.28 113.1 698.28 90.36 712.84 90.36 712.84 127.75 698.28 113.1"/><polygon class="cls-69" points="727.03 158.31 727.03 198.52 712.84 198.52 712.84 141.93 712.84 127.75 727.03 142.02 727.03 158.31"/><polygon class="cls-70" points="712.84 127.75 712.84 90.36 727.03 90.36 727.03 142.02 712.84 127.75"/><polygon class="cls-58" points="712.84 141.93 712.84 169.65 701.27 169.65 701.27 128.57 701.27 116.1 712.84 127.75 712.84 141.93"/><polygon class="cls-22" points="701.27 116.1 701.27 95.1 712.84 95.1 712.84 127.75 701.27 116.1"/><polygon class="cls-59" points="724.04 154.86 724.04 169.65 712.84 169.65 712.84 141.93 712.84 127.75 724.04 139.01 724.04 154.86"/><polygon class="cls-24" points="712.84 127.75 712.84 95.1 724.04 95.1 724.04 139.01 712.84 127.75"/><path class="cls-60" d="M594.45,351.7c3.3.13,5.89,3.23,5.89,7.05s-2.59,6.91-5.89,7h-.22c-3.38,0-6.12-3.17-6.12-7.06s2.74-7.06,6.12-7.06h.22Z" transform="translate(118.43 -174.85)"/><path class="cls-58" d="M594.41,364.74h-.18c-2.88,0-5.21-2.69-5.21-6s2.33-6,5.21-6h.18Z" transform="translate(118.43 -174.85)"/><path class="cls-59" d="M599.43,358.75c0,3.24-2.23,5.88-5,6v-12C597.2,352.86,599.43,355.5,599.43,358.75Z" transform="translate(118.43 -174.85)"/><rect class="cls-61" x="705.66" y="101.24" width="14.37" height="5.75"/><path class="cls-71" d="M576.55,375.37c.25.06.93-.31,1.16-.39l2.22-.76c2.27-.77,2.24.2,4.5-.56,5.5-1.86,10.7-4.59,16.19-6.45l6.08-2.06c.35-.12,2-.44,2.19-.79s-.22-.92-.25-1.12-.21-1.05-.38-2a34.49,34.49,0,0,1-.54-4.74c0-.72,2.83-13.82,2.46-15.4-.46-1.91-1.28-3.81-1.91-5.69l-2.62-7.83c-.2-.59-.36-1.22-.6-1.79a5.59,5.59,0,0,0-3.95-3.51,3.54,3.54,0,0,0-3.39,1.29,4.74,4.74,0,0,0-.17,3,19.4,19.4,0,0,0,1.14,4c.62,1.67.38,2.5-.09,2.34-.66-.21-.9-1.83-1.08-2.36l-12.09-36.1c-.34-1-.61-2.14-1-3.12a1.91,1.91,0,0,0-.85-.86l-.3-.15-.05,0c-.23-.09-.48-.18-.71-.25a5.2,5.2,0,0,0-5.72,1.89,5.79,5.79,0,0,0-.42.59.05.05,0,0,1,0,0,3.33,3.33,0,0,0-.34.81,2.08,2.08,0,0,0,0,1c.18.58.39,1.14.58,1.73.74,2.19,8.61,25.19,8.88,26.52.22,1-.87,1.33-1.29.39a27.83,27.83,0,0,1-1-3c-.45-1.35-1.84-5.9-2.41-6.58-1.59-1.88-5.29-1.1-6.64.68a4.21,4.21,0,0,0-.5,4l1.27,3.81a23.14,23.14,0,0,1,1,2.91c.17.92-.38,1.12-1.16,1s-2.16-3.71-2.56-4.9a5,5,0,0,0-2.69-3.32,4.57,4.57,0,0,0-5.46,1.78c-.89,1.26-.62,2.45-.17,3.78s2.45,6.23,1.38,6.66c-.47.2-1.19-1.4-1.38-1.85a4,4,0,0,0-4.88-2.25,4.62,4.62,0,0,0-2.9,3.6v0s0,.05,0,.12a.19.19,0,0,0,0,.08s0,0,0,0h0c.11,1.14,4.54,13.8,6.31,19.05l2,5.87c.85,2.54,3,4.64,5,6.28.52.42,3.64,4.8,4,5.35.12.2,1.31,3.74,2.15,6.23l.76,2.25C576.27,374.91,576.3,375.31,576.55,375.37Z" transform="translate(118.43 -174.85)"/><polygon class="cls-2" points="729.14 185.54 691.28 198.37 693.77 205.82 731.63 192.99 729.14 185.54"/><polygon class="cls-15" points="694.34 222.82 688.07 206.31 735.5 190.24 745.87 222.82 694.34 222.82"/><path class="cls-72" d="M581.66,298.37c2-.37,3-2.78,2.29-5.36l-.6-2.16a4.88,4.88,0,0,0-.18-.54c-.23-.09-.48-.18-.71-.25a5.2,5.2,0,0,0-5.72,1.89,5.79,5.79,0,0,0-.42.59.05.05,0,0,1,0,0l.48,1.73C577.5,296.89,579.69,298.72,581.66,298.37Z" transform="translate(118.43 -174.85)"/></g></g></g></g></g></svg>