<svg xmlns="http://www.w3.org/2000/svg" viewBox="0 0 1078.29 248.76"><defs><style>.cls-1{isolation:isolate;}.cls-2{fill:#fff;}.cls-3{fill:#e56132;}.cls-4{fill:#f36d37;}.cls-5{fill:#e1e3e4;}.cls-6{fill:#f5f6f7;}.cls-7{fill:#b7b9bd;}.cls-8{fill:#abb7c2;}.cls-9{fill:#ccced1;}.cls-10{fill:#f26526;}.cls-11{fill:#f47843;}.cls-12{fill:#38c0f0;}.cls-13{fill:#1fb1e7;}.cls-14{fill:#51555e;}.cls-15{fill:#686a6d;}.cls-16{fill:#f7d83d;}.cls-17{fill:#fbe057;}.cls-18{fill:#fdca9d;}.cls-19{fill:#7e7f81;}.cls-20{fill:#fce3d0;}.cls-21{fill:#dcdfdf;}.cls-22{fill:#eceded;}.cls-23{fill:#b3b5b8;}.cls-24{fill:#00b3a9;}.cls-25{fill:#656668;}.cls-26{fill:#fbc89c;}.cls-27{fill:#d9c1ae;}.cls-28{fill:#eaba86;}.cls-29{fill:#d7a874;}.cls-30{fill:#929397;}.cls-31{fill:#7a7d84;}.cls-32{fill:#f7f9fb;}.cls-33{fill:#e1e4e6;}.cls-34{fill:#c6cbd2;}.cls-35{fill:#b9babe;}.cls-36{fill:#9fa3aa;}.cls-37{fill:#a5a7ab;}.cls-38{fill:#8b9198;}.cls-39{fill:#f05251;}.cls-40{fill:#f6bb93;}.cls-41{fill:#fac39b;}.cls-42{fill:#3dc4f3;}.cls-43{fill:#676669;}.cls-44{fill:#fdcfb1;}.cls-45{fill:#fdcda2;}.cls-46{fill:#fee4d3;}.cls-47{fill:#e96024;}.cls-48{fill:#818285;}.cls-49{fill:#a8aaad;}.cls-50{fill:#ec2227;}.cls-51{fill:#bdbec0;}.cls-52{fill:#01a79d;}.cls-53{fill:#f8ed33;}.cls-54{fill:#e6e7e7;}.cls-55{fill:#e3e4e8;}.cls-56{fill:#d2d3d7;}.cls-57{fill:#bdbfc3;}.cls-58{fill:#ced0d5;}.cls-59{fill:#9ba6b1;}.cls-60{fill:#f47741;}.cls-61{fill:#ead518;}.cls-62{fill:#26b7eb;}.cls-63{fill:#0ea6db;}.cls-64{fill:#43464d;}.cls-65{fill:#595a5c;}.cls-66{fill:#e8cb35;}.cls-67{fill:#f7dc54;}.cls-68{fill:#424143;}.cls-69{mix-blend-mode:multiply;}.cls-70{fill:#c7c6c5;}.cls-71{fill:#2b2924;}.cls-72{fill:#997551;}.cls-73{fill:#f6ceaf;}.cls-74{fill:#e7bcac;}.cls-75{fill:#ffe5cb;}.cls-76{fill:#98b6c4;}.cls-77{fill:#87a5af;}.cls-78{fill:#3e5973;}.cls-79{fill:#71868d;}.cls-80{fill:#455357;}.cls-81{fill:#e8af94;}.cls-82{fill:#dba290;}.cls-83{fill:#f8d0b4;}.cls-84{fill:#605d55;}.cls-85{fill:#bad1dd;}.cls-86{fill:#78919e;}.cls-87{fill:#6a838d;}.cls-88{fill:#e5f4fc;}.cls-89{fill:#65797e;}</style></defs><title>internship</title><g class="cls-1"><g id="Layer_1" data-name="Layer 1"><rect class="cls-2" y="1.23" width="1078.29" height="246.86"/><g id="_2" data-name="2"><g id="_1" data-name="1"><polygon class="cls-3" points="0 0 0 248.76 360.79 248.76 1.36 0 0 0"/><polygon class="cls-4" points="1078.29 0 1.36 0 360.79 248.76 1078.29 248.76 1078.29 0"/></g></g><g id="_2-2" data-name="2"><g id="_5" data-name="5"><polygon class="cls-5" points="132.45 61.39 87.74 61.46 87.88 138.49 150.29 138.38 150.19 79.06 132.45 61.39"/><polygon class="cls-6" points="132.48 79.09 150.19 79.06 132.45 61.39 132.48 79.09"/><polygon class="cls-7" points="150.19 79.06 132.48 79.09 150.22 96.77 150.19 79.06"/><rect class="cls-2" x="-26.35" y="240.81" width="15.94" height="17.27" transform="translate(117.99 -173.65) rotate(-0.1)"/><path class="cls-7" d="M-11.74,253.61c-.35-.7-.73-1.47-.77-1.49s-1.88-.58-3.05-.94l-.83-.25-.31-.88,0,0v-.86a1.25,1.25,0,0,0,.23-.23,1.41,1.41,0,0,0,.19-.39c.06-.22,0-.56.19-.73s.29-.21.4-.43a2.43,2.43,0,0,0,.21-1.22c0-.12-.07-.31-.21-.2s0,.18-.1.22h0c.06-.18.11-.37.13-.46a5.76,5.76,0,0,0,.09-.87,2.6,2.6,0,0,0-.32-2,2.1,2.1,0,0,0-1.51-.95s-.27,0-.24.06a1.18,1.18,0,0,0-.52-.17,3.22,3.22,0,0,0-2.56.91,2.21,2.21,0,0,0-.48,2.11,4.27,4.27,0,0,0,.1.8,1.43,1.43,0,0,1,.06.39.2.2,0,0,0,0-.08c-.15-.11-.21.08-.22.2a2.55,2.55,0,0,0,.22,1.22,1.65,1.65,0,0,0,.4.43c.16.17.13.51.19.72a1.64,1.64,0,0,0,.19.4,1.3,1.3,0,0,0,.33.29v.8l0,0-.3.89-.32.1-.13,0-.14,0-.24.07c-1.17.36-3,.92-3,.95s-.48.92-.84,1.66a1,1,0,0,0-.12.49v3.8h6.94l6.63,0v-3.75A1.71,1.71,0,0,0-11.74,253.61Z" transform="translate(118.43 -173.62)"/><rect class="cls-7" x="-8.19" y="243.8" width="20.65" height="2.62" transform="translate(118 -173.61) rotate(-0.1)"/><rect class="cls-7" x="-8.18" y="248.81" width="20.65" height="2.62" transform="translate(118 -173.61) rotate(-0.1)"/><rect class="cls-7" x="-8.17" y="253.82" width="20.65" height="2.62" transform="translate(117.99 -173.61) rotate(-0.1)"/><rect class="cls-7" x="-26.72" y="264.7" width="53.04" height="2.61" transform="translate(118.04 -173.62) rotate(-0.08)"/><rect class="cls-7" x="-26.71" y="272.24" width="53.04" height="2.61" transform="translate(117.95 -173.62) rotate(-0.1)"/><rect class="cls-7" x="-26.69" y="279.77" width="53.04" height="2.61" transform="matrix(1, 0, 0, 1, 117.94, -173.62)"/><rect class="cls-7" x="-26.68" y="287.31" width="53.04" height="2.61" transform="translate(117.94 -173.62) rotate(-0.1)"/><rect class="cls-7" x="-26.67" y="294.84" width="53.04" height="2.61" transform="translate(117.93 -173.62) rotate(-0.1)"/><rect class="cls-7" x="-26.66" y="302.38" width="53.04" height="2.61" transform="translate(117.91 -173.62) rotate(-0.1)"/><path class="cls-8" d="M37.92,315.5h2.3a1.61,1.61,0,0,0,1.61-1.63l0-2.32-3.9,0Z" transform="translate(118.43 -173.62)"/><path class="cls-9" d="M34.49,313.83a1.61,1.61,0,0,0,1.58,1.65l1.85,0,0-4-3.45,0Z" transform="translate(118.43 -173.62)"/><polygon class="cls-10" points="160.81 65.41 160.81 65.08 160.71 65.08 160.81 65.41"/><polygon class="cls-11" points="153.47 65.35 153.58 65.03 153.47 65.03 153.47 65.35"/><polygon class="cls-10" points="156.44 128.83 156.4 134.59 160.3 134.62 160.33 130.5 160.81 65.41 156.91 65.38 156.44 128.83"/><polygon class="cls-11" points="152.99 130.45 152.96 134.56 156.4 134.59 156.44 128.83 156.91 65.38 153.47 65.35 152.99 130.45"/><polygon class="cls-12" points="152.94 137.19 152.93 137.89 156.38 137.92 156.38 137.21 156.4 134.59 152.96 134.56 152.94 137.19"/><polygon class="cls-13" points="156.38 137.21 156.38 137.92 160.28 137.94 160.28 137.24 160.3 134.62 156.4 134.59 156.38 137.21"/><polygon class="cls-14" points="156.94 61.42 159.52 61.44 157.22 54.36 156.99 55.05 156.94 61.42"/><polygon class="cls-15" points="156.94 61.42 156.99 55.05 154.81 61.41 156.94 61.42"/><polygon class="cls-16" points="156.91 65.05 156.91 65.38 160.81 65.41 160.71 65.08 159.52 61.44 156.94 61.42 156.91 65.05"/><polygon class="cls-17" points="153.58 65.03 153.47 65.35 156.91 65.38 156.91 65.05 156.94 61.42 154.81 61.41 153.58 65.03"/><path class="cls-18" d="M18.85,290.53c-.09.09-.47.11-.58.14l-1.13.29c-1.13.28-.87.68-2,1-2.77.7-5.65,1-8.41,1.66l-3.06.77c-.18,0-1,.36-1.12.26s-.15-.44-.19-.53-.19-.49-.38-.93a15.67,15.67,0,0,0-1-2.09c-.2-.29-4.83-4.94-5.09-5.69s-.48-1.9-.72-2.84l-1-3.93c-.07-.29-.18-.59-.23-.89a2.78,2.78,0,0,1,.7-2.5,1.77,1.77,0,0,1,1.75-.37,2.35,2.35,0,0,1,.87,1.2A9,9,0,0,1-2.16,278c.19.86.51,1.13.66.94s-.12-1-.18-1.26l-4.55-18.06c-.13-.51-.31-1-.39-1.57a.94.94,0,0,1,.13-.58l.08-.14v0c.08-.1.15-.2.23-.29a2.58,2.58,0,0,1,2.87-.75l.33.14h0a1.45,1.45,0,0,1,.35.24.91.91,0,0,1,.26.42c.08.29.14.58.22.87.27,1.1,3.1,12.66,3.34,13.27s.71.32.64-.18a15.24,15.24,0,0,0-.37-1.48,24.47,24.47,0,0,1-.75-3.35c.17-1.19,1.9-1.86,2.93-1.49a2.06,2.06,0,0,1,1.26,1.51l.49,1.91a10.24,10.24,0,0,0,.36,1.45c.17.43.46.36.73.09s-.09-2.1-.24-2.7a2.46,2.46,0,0,1,.24-2.08,2.25,2.25,0,0,1,2.73-.72,1.86,1.86,0,0,1,1.07,1.5c.17.67.63,3.22,1.19,3.11.25,0,.12-.89.08-1.13A2,2,0,0,1,13,265.43a2.26,2.26,0,0,1,2.15.71h0l0,0,0,0h0c.26.5,1.78,6.88,2.44,9.51l.74,2.94a7.31,7.31,0,0,1-.41,3.92,32.27,32.27,0,0,0-.24,3.26c0,.11.45,1.89.76,3.13.13.52.23.95.28,1.13S18.94,290.44,18.85,290.53Z" transform="translate(118.43 -173.62)"/><rect class="cls-2" x="0.92" y="291" width="19.66" height="3.84" transform="translate(47.24 -162.13) rotate(-14.13)"/><polygon class="cls-19" points="141.67 117.45 117.79 123.46 123.48 144.73 147.38 144.69 141.67 117.45"/><path class="cls-20" d="M-3.64,260.21c-.91.38-2-.34-2.36-1.59l-.33-1.05c0-.09,0-.18-.07-.27s.15-.2.23-.29a2.58,2.58,0,0,1,2.87-.75l.33.14h0l.25.83A2.41,2.41,0,0,1-3.64,260.21Z" transform="translate(118.43 -173.62)"/></g><g id="_6" data-name="6"><polygon class="cls-21" points="347.73 70.41 314.5 69.24 312.49 126.48 358.87 128.12 360.43 84.03 347.73 70.41"/><polygon class="cls-22" points="347.27 83.57 360.43 84.03 347.73 70.41 347.27 83.57"/><polygon class="cls-23" points="360.43 84.03 347.27 83.57 359.96 97.19 360.43 84.03"/><rect class="cls-23" x="212.58" y="234.09" width="1.58" height="29.16" transform="translate(75.77 279.53) rotate(-87.98)"/><rect class="cls-23" x="212.48" y="237.1" width="1.57" height="29.16" transform="matrix(0.04, -1, 1, 0.04, 72.66, 282.33)"/><rect class="cls-23" x="212.37" y="240.11" width="1.57" height="29.16" transform="translate(69.53 285.11) rotate(-87.98)"/><rect class="cls-23" x="216.91" y="246.95" width="1.94" height="39.44" transform="translate(62.2 301.51) rotate(-88)"/><rect class="cls-23" x="216.71" y="252.56" width="1.94" height="39.44" transform="translate(56.33 306.61) rotate(-87.98)"/><rect class="cls-23" x="216.51" y="258.16" width="1.94" height="39.44" transform="translate(50.55 311.82) rotate(-87.98)"/><rect class="cls-23" x="216.32" y="263.76" width="1.94" height="39.44" transform="translate(44.76 317.02) rotate(-87.98)"/><rect class="cls-23" x="216.12" y="269.36" width="1.94" height="39.44" transform="translate(38.96 322.21) rotate(-87.98)"/><rect class="cls-23" x="215.92" y="274.96" width="1.94" height="39.44" transform="translate(33.19 327.43) rotate(-87.98)"/><polygon class="cls-22" points="361.63 78.09 328.41 76.92 326.39 134.16 372.77 135.8 374.33 91.72 361.63 78.09"/><polygon class="cls-22" points="361.17 91.25 374.33 91.72 361.63 78.09 361.17 91.25"/><polygon class="cls-23" points="374.33 91.72 361.17 91.25 373.86 104.88 374.33 91.72"/><rect class="cls-23" x="226.49" y="241.77" width="1.58" height="29.16" transform="translate(81.5 300.83) rotate(-87.98)"/><rect class="cls-23" x="226.38" y="244.78" width="1.57" height="29.16" transform="matrix(0.04, -1, 1, 0.04, 78.38, 303.62)"/><rect class="cls-23" x="226.27" y="247.8" width="1.57" height="29.16" transform="translate(75.27 306.43) rotate(-87.98)"/><rect class="cls-23" x="230.81" y="254.64" width="1.94" height="39.44" transform="matrix(0.03, -1, 1, 0.03, 67.93, 322.82)"/><rect class="cls-23" x="230.61" y="260.24" width="1.94" height="39.44" transform="translate(62.07 327.92) rotate(-87.98)"/><rect class="cls-23" x="230.42" y="265.84" width="1.94" height="39.44" transform="translate(56.28 333.12) rotate(-87.98)"/><rect class="cls-23" x="230.22" y="271.44" width="1.94" height="39.44" transform="translate(50.49 338.33) rotate(-87.98)"/><rect class="cls-23" x="230.02" y="277.04" width="1.94" height="39.44" transform="translate(44.7 343.53) rotate(-87.98)"/><rect class="cls-23" x="229.82" y="282.64" width="1.94" height="39.44" transform="matrix(0.04, -1, 1, 0.04, 38.92, 348.74)"/><path class="cls-24" d="M226.71,264.15l3.95-3.94-3-2.24L225,262.92Z" transform="translate(118.43 -173.62)"/><polygon class="cls-24" points="373.21 44.68 376.63 40.03 380.52 46.47 378.06 49.83 373.21 44.68"/><path class="cls-25" d="M249.87,237,244,232.71l-1.22,1.77,5.77,4.24Z" transform="translate(118.43 -173.62)"/><path class="cls-25" d="M241.3,236.66c-4.17,6.21-8.06,12.4-14,21.38l3.33,2.45c6.8-8.31,11.55-13.87,16.22-19.71Z" transform="translate(118.43 -173.62)"/><path class="cls-25" d="M254.72,219.49a2.39,2.39,0,0,0-2.47-.46c-1.79.52-3.82,2.47-6,5.79-4.55,6.59-10.65,14.52-10.71,14.59s3.55.61,4.81-3.57c1.68-2.27,9.17-11.73,9.24-11.82a3,3,0,0,1,1.17-.86c.32-.09.79-.11,1.22.73s.73.74,1,.67c1-.3,1.67-3.77,1.84-4.83l0-.14Z" transform="translate(118.43 -173.62)"/><path class="cls-24" d="M248.54,238.72l-5.77-4.24c-.5.73-1,1.46-1.47,2.18l5.6,4.12C247.45,240.1,248,239.41,248.54,238.72Z" transform="translate(118.43 -173.62)"/><path class="cls-25" d="M260.82,222.14l-5.91-4.33c-4.5,5.87-7.89,10.53-10.92,14.9l5.88,4.32C253.13,232.83,256.56,228.2,260.82,222.14Z" transform="translate(118.43 -173.62)"/><path class="cls-25" d="M225,262.92a7,7,0,0,0-.56,1.19,6.72,6.72,0,0,0-.39,1.86,8.92,8.92,0,0,0,1.47-.84,8.67,8.67,0,0,0,1.15-1Z" transform="translate(118.43 -173.62)"/><path class="cls-26" d="M240.22,280.32l.77,2.12a5.4,5.4,0,0,1,0,2.93c0,.24.05,2.19.08,2.43s.93,2.63,1.09,3.07c0,.11.13.23.07.31s-.33.12-.42.15l-.81.29c-.82.3-.59.57-1.41.87-2,.73-4.1,1.14-6.09,1.87l-2.21.8c-.13,0-.68.35-.8.28s-.15-.31-.19-.38a16.55,16.55,0,0,0-1.27-2.13,54.07,54.07,0,0,1-4.2-3.81c-.3-.65-.5-1.37-.74-2.05l-1-2.82c-.07-.22-.17-.43-.23-.65a2.05,2.05,0,0,1,.33-1.9,1.29,1.29,0,0,1,1.26-.41c.35.13.56.52.74.82a6.57,6.57,0,0,1,.58,1.4c.21.62.46.8.56.65s-.16-.73-.23-.92l-4.74-13a11.75,11.75,0,0,1-.41-1.13.78.78,0,0,1,.1-.55c.05-.08.1-.17.15-.24a1.93,1.93,0,0,1,2.07-.78l.25.08a.78.78,0,0,1,.52.45c.08.21.15.42.23.62.29.8,3.26,9.13,3.48,9.57s.55.18.46-.19-.26-.72-.38-1.07a16.34,16.34,0,0,1-.81-2.42c0-.89,1.26-1.52,2.05-1.32a1.56,1.56,0,0,1,1,1l.5,1.37c.13.34.22.73.38,1.05s.37.23.55,0-.22-1.55-.38-2a1.85,1.85,0,0,1,0-1.56,1.69,1.69,0,0,1,2-.74c.54.16.73.56.91,1s.71,2.33,1.11,2.2c.18,0,0-.67,0-.84a1.44,1.44,0,0,1,.88-1.75,1.69,1.69,0,0,1,1.65.36h0l0,0,0,0h0C237.92,273.82,239.52,278.43,240.22,280.32Z" transform="translate(118.43 -173.62)"/><rect class="cls-2" x="229.1" y="292.14" width="14.62" height="2.86" transform="translate(32.19 -74.91) rotate(-20.03)"/><polygon class="cls-19" points="370.42 135.41 363.94 117.62 346.73 123.89 350.68 134.71 370.42 135.41"/><path class="cls-27" d="M223.32,267.56l.42,1a1.25,1.25,0,0,1-2.31,1l-.4-.95c0-.09.09-.17.13-.25a1.83,1.83,0,0,1,1.92-.82Z" transform="translate(118.43 -173.62)"/></g><path class="cls-2" d="M-52.35,267.29l16.25,32.77a4.89,4.89,0,0,1-2.21,6.54l-17.1,8.47L-72,323.31a4.88,4.88,0,0,1-6.54-2.21l-22.53-45.45a4.89,4.89,0,0,1,2.21-6.54l10.46-5.18.32.65-1.59.79a1.91,1.91,0,0,0-1.06,1.69l-8.42,4.18,24.51,49.46L-57,311.93l18.18-9-14.68-29.6c-.08.46-.17.92-.26,1.39L-40,302.39-57.42,311l-16.94,8.39-23.58-47.58,7.47-3.7h0a1.91,1.91,0,0,0,2.56.87l7.76-3.85,8.23-4.08a1.91,1.91,0,0,0,.87-2.56h0l7.46-3.7,2.32,4.68c.05-.36.09-.72.12-1.07,0-.18,0-.33.06-.49l-2.21-4.47-8.43,4.18a1.88,1.88,0,0,0-2-.19l-1.6.79-.32-.65,10.46-5.18a4.87,4.87,0,0,1,5.26.61,7,7,0,0,1,.55-1,6,6,0,0,0-6.31-.63l-10.46,5.18-.08-.16a2,2,0,0,0-2.71-.91l-2.49,1.23a2.34,2.34,0,0,0-3.14-1.06,1.64,1.64,0,0,0-.22.14,2.34,2.34,0,0,0-.84,3l-2.48,1.23a2,2,0,0,0-.92,2.72l.08.15-10.46,5.19a6,6,0,0,0-2.71,8l22.53,45.45a6,6,0,0,0,8,2.71l33.72-16.71a6,6,0,0,0,2.71-8L-52,265.4c0,.22-.07.45-.11.67Zm-31.9-10.4a.91.91,0,0,1,.23-.15,1.17,1.17,0,0,1,1.56.52,1.17,1.17,0,0,1-.53,1.56,1.25,1.25,0,0,1-.25.09,1.16,1.16,0,0,1-1.31-.62A1.16,1.16,0,0,1-84.25,256.89Zm-3.68,6.79-.13-.25,11.8-5.85.13.25.32.65-6.14,3-5.66,2.8Z" transform="translate(118.43 -173.62)"/><path class="cls-2" d="M-84,273.53l-6.28,3.11,3.11,6.27,6.28-3.11Zm1.58,5.76-4.23,2.1-2.1-4.24,4.23-2.1Z" transform="translate(118.43 -173.62)"/><path class="cls-2" d="M-77,287.69l-6.28,3.11,3.11,6.28,6.28-3.11Zm1.58,5.76-4.23,2.1-2.1-4.23,4.23-2.1Z" transform="translate(118.43 -173.62)"/><path class="cls-2" d="M-73.11,311.24l6.28-3.11-3.12-6.28L-76.22,305Zm-1.58-5.76,4.23-2.1,2.1,4.23-4.24,2.1Z" transform="translate(118.43 -173.62)"/><polygon class="cls-2" points="54.98 92.89 42.11 99.27 37.53 101.54 38 102.49 42.58 100.21 55.44 93.84 54.98 92.89"/><path class="cls-2" d="M-61.35,284.29c0-.42.07-.83.1-1.23l-8,4-4.58,2.27.47.95,4.58-2.28Z" transform="translate(118.43 -173.62)"/><polygon class="cls-2" points="52.04 130.81 56.62 128.54 69.48 122.16 69.01 121.22 56.15 127.59 51.57 129.86 52.04 130.81"/><path class="cls-2" d="M-54.29,273.55c.09-.46.18-.92.26-1.38.15-.78.3-1.56.44-2.34l-1.71-.23-1-.15-3-.41c-.08.77-.15,1.54-.22,2.31-.31,3.5-.59,7.11-.92,11.3,0,.41-.06.81-.1,1.23-.15,1.92-.32,4-.51,6.21l.18,0v.32c0,.49,0,.95,0,1.35,0,1.3,0,2.16,0,2.77,0,.16,0,.33,0,.51s0,.37,0,.58.07.28.1.42a6.37,6.37,0,0,0,.35,1.09c.12-.16.24-.34.37-.54s.25-.42.37-.66a6.15,6.15,0,0,0,.36-.89c0-.09.07-.19.09-.27l.07-.21a2.17,2.17,0,0,1,.07-.24c.1-.34.22-.75.37-1.24l.12-.41c.15-.48.31-1,.5-1.65l.15-.5h.17c.42-2.18.82-4.18,1.19-6.06s.72-3.63,1.06-5.29C-55,277.23-54.64,275.38-54.29,273.55Zm-5.2,20.62-.76-.1c0-.78,0-1.86,0-3.49l1.81.25Z" transform="translate(118.43 -173.62)"/><path class="cls-2" d="M-50.55,248.74l-5.58-3.28-.63,4.51h0c0,.24-.07.46-.11.69l-.09.58-.26.06-.08,0-.23.09-.17.1-.16.09a3.11,3.11,0,0,0-.35.3,3.67,3.67,0,0,0-.4.46l-.12.2a5.55,5.55,0,0,0-.29.48c-.09.17-.18.35-.27.55s-.19.5-.28.78a17.27,17.27,0,0,0-.62,2.94c-.06.37-.1.77-.14,1.18,0,.24-.05.48-.08.72l-.18,1.55,0,.25c-.16,1.28-.33,2.58-.5,3.82-.11.83-.23,1.64-.34,2.4s-.21,1.49-.31,2.15-.2,1.27-.28,1.79-.15,1-.2,1.32-.1.59-.12.73l0,.1a1.82,1.82,0,0,0,.26-.11,3.53,3.53,0,0,0,.6-.38,3.28,3.28,0,0,0,.69-.7,3.26,3.26,0,0,0,.39-.69,3.64,3.64,0,0,0,.24-.88,5.18,5.18,0,0,0-.07-1.73c0-.29.1-.7.18-1.19.15-1,.38-2.29.61-3.68,0-.24.08-.48.13-.72l.24-1.43c.06-.32.11-.64.17-.95.17-1,.33-1.92.46-2.65.17-1,.28-1.6.28-1.62a2.9,2.9,0,0,1,.12-.41,2.48,2.48,0,0,1,.13-.3,1.65,1.65,0,0,1,.27-.38l.1-.08h0c0,.31-.1.62-.14.93-.2,1.42-.39,2.78-.56,4.08a1.23,1.23,0,0,1,0,.2c-.09.66-.16,1.3-.24,1.94,0,.1,0,.21,0,.31s0,.11,0,.17c-.05.47-.11.93-.16,1.39,0,.22,0,.45-.08.67-.06.59-.13,1.18-.19,1.77l1.59.22,1,.14,3.26.45.27-1.6,0-.15.27-1.65v-.09c.45-2.76.87-5.71,1.31-9.08.17-1.37.35-2.8.53-4.32h-.05Zm-3.21,13.18-.28,1.95-.27,1.87h0l-1.76-.24-.94-.13.8-5.88.27-2,.25-1.79.24-1.77.25-1.84,2.8.36Zm-1.92-11.8-.4-.14.48-3.43,4.32,2.54-.22,1.61Z" transform="translate(118.43 -173.62)"/><g id="_13" data-name="13"><path class="cls-28" d="M284.47,265a6.38,6.38,0,0,0-6.59,6.13l-.27,64a6.37,6.37,0,0,0,6.54,6.19l25,.11.33-76.29Z" transform="translate(118.43 -173.62)"/><path class="cls-29" d="M335.09,265.25l-25.66-.11-.33,76.29,25.67.11a6.37,6.37,0,0,0,6.59-6.13l.27-64A6.36,6.36,0,0,0,335.09,265.25Z" transform="translate(118.43 -173.62)"/><rect class="cls-30" x="261.17" y="288.84" width="69.62" height="26.58" transform="translate(111.01 423.2) rotate(-89.76)"/><rect class="cls-31" x="288.11" y="288.6" width="69.62" height="27.3" transform="translate(137.72 450.26) rotate(-89.76)"/><rect class="cls-2" x="263.06" y="289.46" width="66.98" height="25.43" transform="translate(111.54 423.82) rotate(-89.76)"/><rect class="cls-32" x="288.85" y="289.21" width="66.98" height="26.15" transform="translate(137.12 449.73) rotate(-89.76)"/><path class="cls-33" d="M300.18,264v2a2.63,2.63,0,0,0,2.71,2.56l6.53,0,0-4.53Z" transform="translate(118.43 -173.62)"/><path class="cls-34" d="M309.43,264.08l0,4.53,7.25,0a2.64,2.64,0,0,0,2.73-2.54v-2Z" transform="translate(118.43 -173.62)"/><path class="cls-35" d="M297.77,266a2.49,2.49,0,0,0-2.58,2.4v.28a2.49,2.49,0,0,0,2.56,2.42l11.65.06,0-5.11Z" transform="translate(118.43 -173.62)"/><path class="cls-36" d="M321.78,266.11l-12.36-.05,0,5.11,12.36.05a2.5,2.5,0,0,0,2.58-2.4v-.29A2.51,2.51,0,0,0,321.78,266.11Z" transform="translate(118.43 -173.62)"/><path class="cls-37" d="M290.74,286.81l8.52,0,0-8-8.52,0Zm.66-7.39,7.26,0,0,6.8-7.26,0Z" transform="translate(118.43 -173.62)"/><rect class="cls-37" x="305.24" y="279.26" width="1.33" height="6.88" transform="matrix(0, -1, 1, 0, 140.36, 413.81)"/><rect class="cls-38" x="318.34" y="273.1" width="1.33" height="19.31" transform="translate(153.31 426.93) rotate(-89.75)"/><path class="cls-37" d="M290.65,306.74l8.52,0,0-8-8.52,0Zm.66-7.39,7.26,0,0,6.81-7.25,0Z" transform="translate(118.43 -173.62)"/><rect class="cls-37" x="305.16" y="299.19" width="1.33" height="6.88" transform="translate(119.86 433.08) rotate(-89.67)"/><rect class="cls-38" x="318.26" y="293.03" width="1.33" height="19.31" transform="translate(133.3 446.69) rotate(-89.75)"/><path class="cls-37" d="M290.57,326.68l8.52,0,0-8-8.52,0Zm.66-7.4,7.26,0,0,6.81-7.26,0Z" transform="translate(118.43 -173.62)"/><rect class="cls-37" x="305.07" y="319.12" width="1.33" height="6.88" transform="translate(100.33 453.34) rotate(-89.76)"/><rect class="cls-38" x="318.17" y="312.97" width="1.33" height="19.31" transform="translate(113.28 466.45) rotate(-89.75)"/><path class="cls-37" d="M308.24,261a1.48,1.48,0,0,1,1.21-1.42V258a3,3,0,0,0-2.81,2.91l-3.74,0a2.65,2.65,0,0,0-2.73,2.55V264l9.25,0v-1.7A1.49,1.49,0,0,1,308.24,261Z" transform="translate(118.43 -173.62)"/><path class="cls-38" d="M319.4,263.55a2.65,2.65,0,0,0-2.71-2.57H313a3.06,3.06,0,0,0-3.14-3c-.12,0-.24,0-.35,0v1.5a1.37,1.37,0,0,1,.36,0,1.47,1.47,0,1,1,0,2.93,2,2,0,0,1-.35,0v1.7l10,0Z" transform="translate(118.43 -173.62)"/><polygon class="cls-39" points="413.42 132.16 408.69 123.89 409.7 123.38 413.43 129.93 419.17 120.22 420.17 120.73 413.42 132.16"/><path class="cls-40" d="M319.65,282.52S312,280.77,305,287.67c1.44-.12,3.55-.27,6.13-.36,3.8-.13,4.38,0,4.91.27,3.13,1.45,3.66,6.65,4.69,5.55.31-.33,3-4.46,3-4.46Z" transform="translate(118.43 -173.62)"/><path class="cls-41" d="M328.08,284.08l-5.38-3.53a1.55,1.55,0,0,0-1-.46l-9.09-.63a1.6,1.6,0,0,0-1,.28s-7,5.78-7.83,7.11a1.57,1.57,0,0,0,.56,2.19c.88.36,1.95-.59,2.68-.94a17.15,17.15,0,0,0,2.17-1.37l3.32-2.3a1.56,1.56,0,0,1,1.48-.16l3.44,1.44a1.55,1.55,0,0,1,.95,1.37l0,1.34a1.56,1.56,0,0,1-.53,1.23,1.4,1.4,0,0,1-.52.29l-1.14.39a1.5,1.5,0,0,1-.89,0l-1.17-.3c-1.34-.35-2.7-.63-4.05-.92a16.72,16.72,0,0,0-3-.64,1.44,1.44,0,0,0-1.35.57,2.79,2.79,0,0,0-.58,1.5,1.94,1.94,0,0,0,.15.94c.1.25.28.19.51.34a19.37,19.37,0,0,0,2.09.83,81.82,81.82,0,0,1,10.59,4.87,1.41,1.41,0,0,0,.6.16l5.93,1c.69.05,5.35,1.28,5.58.63l1.76-11.09C332.62,287.68,328.5,284.5,328.08,284.08Z" transform="translate(118.43 -173.62)"/><path class="cls-41" d="M322.7,280.55a1.55,1.55,0,0,0-1-.46l-9.09-.63a1.6,1.6,0,0,0-1,.28s-7,5.78-7.83,7.11a1.57,1.57,0,0,0,.56,2.19c.88.36,1.95-.59,2.68-.94a17.15,17.15,0,0,0,2.17-1.37l3.32-2.3a1.56,1.56,0,0,1,1.48-.16l3.44,1.44a1.55,1.55,0,0,1,.95,1.37l0,1.34a1.56,1.56,0,0,1-.53,1.23l10.26,6.8,4.28-8.21c.2-.56-3.92-3.74-4.34-4.16Z" transform="translate(118.43 -173.62)"/><path class="cls-42" d="M302,297.15l2.17-2.38-1.81-1.2c-.71,1.51-1.1,2.37-1.35,2.91Z" transform="translate(118.43 -173.62)"/><polygon class="cls-39" points="435.27 96.4 437.11 93.63 439.52 97.22 438.2 99.22 435.27 96.4"/><path class="cls-43" d="M314.53,280.92,311,278.6c-.23.35-.44.7-.66,1l3.44,2.28Z" transform="translate(118.43 -173.62)"/><path class="cls-43" d="M309.6,280.94c-2.23,3.69-4.29,7.35-7.43,12.67l2,1.32c3.68-5,6.26-8.29,8.78-11.78Z" transform="translate(118.43 -173.62)"/><path class="cls-39" d="M316.84,270.7a1.38,1.38,0,0,0-1.43-.19c-1,.35-2.13,1.52-3.31,3.49-2.43,3.92-5.72,8.64-5.76,8.68A2.53,2.53,0,0,0,309,280.5c.9-1.35,4.94-7,5-7.05a1.6,1.6,0,0,1,.65-.53c.18-.06.45-.08.72.39s.44.4.59.36c.58-.2.85-2.22.92-2.83v-.08Z" transform="translate(118.43 -173.62)"/><path class="cls-39" d="M313.82,281.93l-3.44-2.28-.78,1.29,3.33,2.21C313.23,282.75,313.52,282.34,313.82,281.93Z" transform="translate(118.43 -173.62)"/><path class="cls-43" d="M320.42,272.06l-3.52-2.33c-2.42,3.5-4.24,6.27-5.86,8.87l3.49,2.32C316.3,278.41,318.14,275.66,320.42,272.06Z" transform="translate(118.43 -173.62)"/><path class="cls-43" d="M301,296.48a4.79,4.79,0,0,0-.29.7,3.71,3.71,0,0,0-.17,1.08,5.15,5.15,0,0,0,.82-.52,5.32,5.32,0,0,0,.63-.59Z" transform="translate(118.43 -173.62)"/><path class="cls-41" d="M317.36,289.94l-1.14.39a1.5,1.5,0,0,1-.89,0l-1.17-.3c-1.34-.35-2.7-.63-4.05-.92a16.72,16.72,0,0,0-3-.64,1.44,1.44,0,0,0-1.35.57,2.79,2.79,0,0,0-.58,1.5,1.94,1.94,0,0,0,.15.94c.1.25.28.19.51.34a19.37,19.37,0,0,0,2.09.83,81.82,81.82,0,0,1,10.59,4.87,1.41,1.41,0,0,0,.6.16l5.71.38c.69.05,2.27.51,2.5-.14l.78-1.5-10.26-6.8A1.4,1.4,0,0,1,317.36,289.94Z" transform="translate(118.43 -173.62)"/><path class="cls-44" d="M308.25,289.85a3.38,3.38,0,0,1-.1,1.11,3.17,3.17,0,0,1-.57,1.12l-2.22-.57a1.94,1.94,0,0,1-.15-.94,2.53,2.53,0,0,1,.68-1.51s0,0,0,0Z" transform="translate(118.43 -173.62)"/><polygon class="cls-32" points="446.06 128.39 452.13 130.47 457.79 114.45 451.21 112.85 446.06 128.39"/><polygon class="cls-19" points="464.57 115.47 453.84 112.88 449.52 130.46 463.42 135.37 464.57 115.47"/><path class="cls-45" d="M280.13,331.31c.07.07.34.09.43.11l.82.21c.84.21.64.5,1.48.71,2,.52,4.14.72,6.17,1.24l2.25.57c.13,0,.71.27.82.19s.11-.32.14-.39.14-.36.28-.68a13.84,13.84,0,0,1,.76-1.54,55.11,55.11,0,0,0,3.76-4.17c.23-.66.35-1.4.53-2.08l.73-2.89c.05-.21.13-.44.17-.65a2,2,0,0,0-.52-1.84,1.29,1.29,0,0,0-1.28-.28,1.72,1.72,0,0,0-.64.89,7,7,0,0,0-.44,1.43c-.14.63-.37.83-.48.69s.08-.73.13-.93l3.38-13.27c.09-.37.23-.76.29-1.15a.7.7,0,0,0-.09-.42l-.07-.11h0l-.17-.22a1.89,1.89,0,0,0-2.11-.55l-.24.1h0a.78.78,0,0,0-.26.17.67.67,0,0,0-.19.31c-.06.22-.11.43-.17.64-.2.81-2.3,9.3-2.48,9.75s-.52.23-.47-.14a10.9,10.9,0,0,1,.28-1.09,16.41,16.41,0,0,0,.55-2.46c-.11-.87-1.39-1.37-2.15-1.09a1.53,1.53,0,0,0-.93,1.1l-.36,1.4a6.45,6.45,0,0,1-.27,1.07c-.13.31-.33.27-.53.06s.06-1.54.18-2a1.83,1.83,0,0,0-.17-1.53,1.66,1.66,0,0,0-2-.53c-.52.2-.66.61-.79,1.1s-.47,2.36-.88,2.28c-.18,0-.09-.65-.06-.83a1.42,1.42,0,0,0-1-1.63,1.65,1.65,0,0,0-1.58.51h0s0,0,0,0l0,0h0c-.19.37-1.31,5.06-1.8,7l-.55,2.16a5.27,5.27,0,0,0,.29,2.88,23.78,23.78,0,0,1,.17,2.39c0,.09-.33,1.39-.56,2.31-.1.38-.18.69-.21.82S280.07,331.24,280.13,331.31Z" transform="translate(118.43 -173.62)"/><rect class="cls-2" x="278.85" y="331.67" width="14.45" height="2.82" transform="translate(599.59 552.82) rotate(-165.72)"/><polygon class="cls-19" points="410.25 172.88 412.87 162.54 395.33 158.08 392.07 172.8 410.25 172.88"/><path class="cls-46" d="M296.71,309.07c.67.28,1.45-.25,1.74-1.17l.24-.77.06-.19-.17-.22a1.89,1.89,0,0,0-2.11-.55l-.24.1h0l-.19.61A1.78,1.78,0,0,0,296.71,309.07Z" transform="translate(118.43 -173.62)"/></g><g id="_9" data-name="9"><path class="cls-47" d="M258.13,327.93l-52.82-.72a6.67,6.67,0,0,0-6.76,6.58l-.58,43a6.67,6.67,0,0,0,6.57,6.76l52.82.72a6.67,6.67,0,0,0,6.76-6.58l.58-43A6.67,6.67,0,0,0,258.13,327.93Z" transform="translate(118.43 -173.62)"/><rect class="cls-48" x="200.32" y="330.4" width="29.86" height="51.32" transform="translate(123.29 -176.51) rotate(0.78)"/><rect class="cls-48" x="232.48" y="330.84" width="29.86" height="51.32" transform="translate(123.32 -176.96) rotate(0.78)"/><rect class="cls-2" x="200.74" y="329.8" width="29.46" height="51.33" transform="translate(123.3 -176.53) rotate(0.78)"/><rect class="cls-2" x="232.47" y="330.23" width="29.46" height="51.32" transform="translate(123.31 -176.96) rotate(0.78)"/><path class="cls-49" d="M229.46,333.71c0,1.17-.67,2.11-1.47,2.09s-1.43-1-1.42-2.13.68-2.11,1.48-2.1S229.48,332.54,229.46,333.71Z" transform="translate(118.43 -173.62)"/><path class="cls-49" d="M229.35,342.47c0,1.17-.68,2.11-1.48,2.1s-1.44-1-1.42-2.14.68-2.11,1.48-2.1S229.36,341.3,229.35,342.47Z" transform="translate(118.43 -173.62)"/><path class="cls-49" d="M229.23,351.23c0,1.17-.68,2.11-1.48,2.1s-1.43-1-1.42-2.14.68-2.1,1.48-2.1S229.24,350.06,229.23,351.23Z" transform="translate(118.43 -173.62)"/><path class="cls-49" d="M229.11,360c0,1.17-.68,2.11-1.48,2.1s-1.43-1-1.42-2.13.68-2.11,1.48-2.1S229.12,358.83,229.11,360Z" transform="translate(118.43 -173.62)"/><path class="cls-49" d="M229,368.76c0,1.17-.68,2.11-1.48,2.09s-1.43-1-1.42-2.13.68-2.11,1.48-2.1S229,367.59,229,368.76Z" transform="translate(118.43 -173.62)"/><path class="cls-49" d="M228.87,377.52c0,1.17-.68,2.11-1.48,2.1s-1.43-1-1.42-2.14.68-2.11,1.48-2.1S228.88,376.35,228.87,377.52Z" transform="translate(118.43 -173.62)"/><path class="cls-49" d="M237.32,334c0,1.17-.68,2.11-1.48,2.1s-1.43-1-1.42-2.14.68-2.11,1.48-2.1S237.33,332.84,237.32,334Z" transform="translate(118.43 -173.62)"/><path class="cls-49" d="M237.2,342.77c0,1.17-.68,2.11-1.48,2.1s-1.43-1-1.42-2.13.68-2.11,1.48-2.1S237.21,341.6,237.2,342.77Z" transform="translate(118.43 -173.62)"/><path class="cls-49" d="M237.08,351.54c0,1.17-.68,2.1-1.48,2.09s-1.43-1-1.42-2.13.68-2.11,1.48-2.1S237.09,350.37,237.08,351.54Z" transform="translate(118.43 -173.62)"/><path class="cls-49" d="M237,360.3c0,1.17-.68,2.11-1.48,2.1s-1.43-1-1.42-2.14.68-2.11,1.48-2.1S237,359.13,237,360.3Z" transform="translate(118.43 -173.62)"/><path class="cls-49" d="M236.84,369.06c0,1.17-.68,2.11-1.48,2.1s-1.43-1-1.41-2.14.67-2.11,1.47-2.09S236.86,367.89,236.84,369.06Z" transform="translate(118.43 -173.62)"/><path class="cls-49" d="M236.72,377.83c0,1.16-.68,2.1-1.48,2.09s-1.43-1-1.41-2.13.67-2.11,1.47-2.1S236.74,376.66,236.72,377.83Z" transform="translate(118.43 -173.62)"/><path class="cls-48" d="M234.87,335.49l-5.54-.08a1.15,1.15,0,0,1-1.14-1.17h0a1.16,1.16,0,0,1,1.18-1.14l5.54.08a1.16,1.16,0,0,1,1.14,1.17h0A1.16,1.16,0,0,1,234.87,335.49Z" transform="translate(118.43 -173.62)"/><path class="cls-48" d="M234.76,344.12l-5.55-.08a1.17,1.17,0,0,1-1.14-1.17h0a1.16,1.16,0,0,1,1.18-1.14l5.54.07a1.17,1.17,0,0,1,1.14,1.18h0A1.17,1.17,0,0,1,234.76,344.12Z" transform="translate(118.43 -173.62)"/><path class="cls-48" d="M234.64,352.74l-5.54-.07a1.16,1.16,0,0,1-1.14-1.18h0a1.16,1.16,0,0,1,1.17-1.14l5.54.08a1.15,1.15,0,0,1,1.14,1.17h0A1.16,1.16,0,0,1,234.64,352.74Z" transform="translate(118.43 -173.62)"/><path class="cls-48" d="M234.52,361.37l-5.54-.08a1.15,1.15,0,0,1-1.14-1.17h0A1.16,1.16,0,0,1,229,359l5.54.07a1.16,1.16,0,0,1,1.14,1.18h0A1.15,1.15,0,0,1,234.52,361.37Z" transform="translate(118.43 -173.62)"/><path class="cls-48" d="M234.4,370l-5.54-.07a1.16,1.16,0,0,1-1.14-1.18h0a1.17,1.17,0,0,1,1.17-1.14l5.54.08a1.17,1.17,0,0,1,1.15,1.17h0A1.16,1.16,0,0,1,234.4,370Z" transform="translate(118.43 -173.62)"/><path class="cls-48" d="M234.29,378.62l-5.55-.08a1.16,1.16,0,0,1-1.14-1.17h0a1.16,1.16,0,0,1,1.18-1.14l5.54.07a1.17,1.17,0,0,1,1.14,1.18h0A1.17,1.17,0,0,1,234.29,378.62Z" transform="translate(118.43 -173.62)"/><rect class="cls-50" x="204.3" y="332.56" width="3.37" height="6.02" transform="translate(-13.96 363.31) rotate(-89.21)"/><rect class="cls-51" x="220.81" y="332.79" width="3.37" height="6.02" transform="translate(2.18 380.17) rotate(-89.23)"/><polygon class="cls-51" points="321.34 166.4 321.34 166.74 343.87 167.04 343.88 166.71 321.34 166.4"/><polygon class="cls-51" points="321.27 171.72 343.8 172.03 343.81 171.69 321.27 171.38 321.27 171.72"/><polygon class="cls-51" points="321.2 176.7 343.74 177.01 343.74 176.67 321.21 176.36 321.2 176.7"/><polygon class="cls-51" points="321.13 181.68 343.67 181.99 343.67 181.65 321.14 181.35 321.13 181.68"/><polygon class="cls-51" points="321.07 186.67 343.6 186.97 343.6 186.63 321.07 186.33 321.07 186.67"/><polygon class="cls-51" points="321 191.65 343.53 191.96 343.54 191.62 321 191.31 321 191.65"/><polygon class="cls-51" points="320.93 196.63 343.46 196.94 343.47 196.6 320.93 196.29 320.93 196.63"/><polygon class="cls-51" points="320.86 201.62 343.39 201.92 343.4 201.58 320.87 201.28 320.86 201.62"/><rect class="cls-50" x="256.58" y="333.28" width="3.37" height="6.02" transform="translate(36.88 416.29) rotate(-89.21)"/><rect class="cls-51" x="240.06" y="333.05" width="3.37" height="6.02" transform="translate(20.91 399.68) rotate(-89.23)"/><polygon class="cls-51" points="379.64 167.19 379.63 167.53 357.1 167.22 357.1 166.88 379.64 167.19"/><polygon class="cls-51" points="379.56 172.51 357.03 172.21 357.04 171.87 379.57 172.17 379.56 172.51"/><polygon class="cls-51" points="379.5 177.5 356.96 177.19 356.97 176.85 379.5 177.16 379.5 177.5"/><polygon class="cls-51" points="379.43 182.48 356.9 182.17 356.9 181.83 379.43 182.14 379.43 182.48"/><polygon class="cls-51" points="379.36 187.46 356.83 187.16 356.83 186.81 379.37 187.12 379.36 187.46"/><polygon class="cls-51" points="379.29 192.44 356.76 192.14 356.76 191.8 379.3 192.11 379.29 192.44"/><polygon class="cls-51" points="379.23 197.43 356.69 197.12 356.7 196.78 379.23 197.09 379.23 197.43"/><polygon class="cls-51" points="379.16 202.41 356.62 202.1 356.63 201.76 379.16 202.07 379.16 202.41"/><polygon class="cls-52" points="331.97 156.05 337.31 156.13 337.41 148.64 334.71 151.04 332.03 148.53 331.97 156.05"/><polygon class="cls-53" points="324.54 155.95 329.88 156.03 330 146.93 327.29 149.85 324.62 146.82 324.54 155.95"/><polygon class="cls-50" points="368.03 183.65 365.29 171.95 366.26 171.66 368.3 180.33 373.13 168.7 374.05 169.17 368.03 183.65"/></g><g id="_7" data-name="7"><polygon class="cls-51" points="191.49 197.08 118.25 183.52 58.06 196.73 152.3 214.79 191.49 197.08"/><polygon class="cls-54" points="190.78 193.28 117.53 179.71 57.35 192.92 151.59 210.99 190.78 193.28"/><polygon class="cls-51" points="191.79 188.12 118.55 174.56 58.37 187.76 152.6 205.83 191.79 188.12"/><polygon class="cls-54" points="195.41 183.99 122.17 170.43 61.98 183.63 156.22 201.7 195.41 183.99"/><polygon class="cls-51" points="192.82 181.01 119.58 167.44 59.4 180.65 153.63 198.72 192.82 181.01"/><polygon class="cls-54" points="196.48 176.6 123.24 163.03 63.05 176.24 157.29 194.31 196.48 176.6"/><polygon class="cls-51" points="197.5 171.44 124.26 157.88 64.07 171.08 158.31 189.15 197.5 171.44"/><polygon class="cls-54" points="201.12 167.31 127.87 153.74 67.69 166.95 161.93 185.02 201.12 167.31"/><polygon class="cls-51" points="201.94 163.56 128.69 149.99 68.51 163.2 162.75 181.27 201.94 163.56"/><polygon class="cls-49" points="163.88 174.5 93.18 161.08 87.61 162.38 159.89 176.15 163.88 174.5"/><polygon class="cls-49" points="171.19 171.47 103.43 158.69 98.33 159.88 167.55 172.98 171.19 171.47"/><polygon class="cls-49" points="177.88 168.7 112.83 156.49 108.15 157.58 174.55 170.08 177.88 168.7"/><polygon class="cls-49" points="184.03 166.16 121.47 154.47 117.17 155.48 180.97 167.42 184.03 166.16"/><polygon class="cls-49" points="189.7 163.81 129.45 152.61 125.47 153.54 186.87 164.98 189.7 163.81"/><polygon class="cls-55" points="59.05 159.09 117.94 170.38 102.53 149.55 59.05 159.09"/><path class="cls-56" d="M12.4,321.65c-6.43,4.46-15.23,4-22.34.22l-6,1.3L-.49,344l35.35,6.78,39.19-17.71Z" transform="translate(118.43 -173.62)"/><path class="cls-55" d="M12.4,321.65.81,319.51l-10.75,2.36C-2.83,325.62,6,326.11,12.4,321.65Z" transform="translate(118.43 -173.62)"/><polygon class="cls-57" points="150.44 172.04 154.42 170.4 111.99 162.34 114.04 165.11 150.44 172.04"/><polygon class="cls-58" points="111.99 162.34 83.72 156.97 78.15 158.27 114.04 165.11 111.99 162.34"/><polygon class="cls-57" points="161.73 167.37 108.24 157.27 110.1 159.79 158.1 168.87 161.73 167.37"/><polygon class="cls-58" points="93.97 154.58 88.88 155.77 110.1 159.79 108.24 157.27 93.97 154.58"/><polygon class="cls-58" points="103.37 152.39 98.69 153.48 106.53 154.95 104.83 152.66 103.37 152.39"/><polygon class="cls-57" points="168.42 164.6 104.83 152.66 106.53 154.95 165.09 165.98 168.42 164.6"/><polygon class="cls-57" points="112.02 150.37 107.71 151.37 171.51 163.32 174.57 162.05 112.02 150.37"/><polygon class="cls-57" points="120 148.51 116.02 149.44 177.42 160.87 180.24 159.7 120 148.51"/><path class="cls-59" d="M53.61,327.24l-.19,2a1.43,1.43,0,0,1-1.57,1.26l-2-.19.32-3.4Z" transform="translate(118.43 -173.62)"/><path class="cls-51" d="M52.46,324.1a1.42,1.42,0,0,1,1.3,1.52l-.15,1.62-3.46-.33.29-3Z" transform="translate(118.43 -173.62)"/><polygon class="cls-47" points="105.05 150.72 104.76 150.69 104.77 150.6 105.05 150.72"/><polygon class="cls-60" points="105.66 144.32 105.36 144.39 105.37 144.29 105.66 144.32"/><polygon class="cls-61" points="160.66 152.54 165.69 153.02 165.37 156.42 161.78 156.08 105.05 150.72 105.37 147.32 160.66 152.54"/><polygon class="cls-53" points="162.38 149.68 165.97 150.01 165.69 153.02 160.66 152.54 105.37 147.32 105.66 144.32 162.38 149.68"/><polygon class="cls-62" points="168.25 150.23 168.87 150.29 168.58 153.29 167.97 153.23 165.69 153.02 165.97 150.01 168.25 150.23"/><polygon class="cls-63" points="167.97 153.23 168.58 153.29 168.26 156.69 167.65 156.63 165.37 156.42 165.69 153.02 167.97 153.23"/><polygon class="cls-64" points="101.92 146.99 101.71 149.24 95.75 146.61 96.36 146.47 101.92 146.99"/><polygon class="cls-65" points="101.92 146.99 96.36 146.47 102.1 145.14 101.92 146.99"/><polygon class="cls-66" points="105.08 147.29 105.37 147.32 105.05 150.72 104.77 150.6 101.71 149.24 101.92 146.99 105.08 147.29"/><polygon class="cls-67" points="105.36 144.39 105.66 144.32 105.37 147.32 105.08 147.29 101.92 146.99 102.1 145.14 105.36 144.39"/><path class="cls-62" d="M-4.16,332.58l6.4,1.5c.11-1.47.23-2.95.35-4.43l-6.56.49Z" transform="translate(118.43 -173.62)"/><polygon class="cls-62" points="177.56 158.6 184.32 159.13 180.3 167.03 175.41 166.64 177.56 158.6"/><path class="cls-68" d="M37.34,338.92l.67-8.56-2.53-.12-.66,8.4Z" transform="translate(118.43 -173.62)"/><path class="cls-65" d="M32.39,330.12c-8.8-.32-17.41-.38-30-.7-.13,1.62-.25,3.24-.38,4.86,12.53,1.65,21,2.94,29.78,4Z" transform="translate(118.43 -173.62)"/><path class="cls-65" d="M57.89,332.89a2.78,2.78,0,0,0-1.07-2.75c-1.63-1.47-4.84-2.29-9.54-2.44C37.88,327.24,26.16,326,26,326s1.6,3.94,6.56,2.6c3.32.27,17.43,1.9,17.57,1.92a3.41,3.41,0,0,1,1.58.63c.28.26.6.72,0,1.67-.47.78-.29,1.19-.06,1.41.94.84,4.81-.67,6-1.15l.15-.06Z" transform="translate(118.43 -173.62)"/><path class="cls-62" d="M34.82,338.64l.66-8.4-3.09-.12-.64,8.16Z" transform="translate(118.43 -173.62)"/><path class="cls-65" d="M59,340.64c.23-2.87.45-5.73.68-8.6-8.67-.86-15.43-1.36-21.69-1.68l-.67,8.56C43.57,339.58,50.33,340.14,59,340.64Z" transform="translate(118.43 -173.62)"/><path class="cls-68" d="M-4,330.14a8.39,8.39,0,0,0-1.53.18,8.44,8.44,0,0,0-2.11.76,10.82,10.82,0,0,0,1.76.95,11.3,11.3,0,0,0,1.69.55C-4.1,331.76-4,331-4,330.14Z" transform="translate(118.43 -173.62)"/></g><g class="cls-69"><path class="cls-70" d="M186.07,312.77c-4.16-1.25-7.61-2.29-9.48-2.84l-3.44-10.08-.28.25v-9.87a12.42,12.42,0,0,0,2.65-2.57,14.15,14.15,0,0,0,2.13-4.5c.69-2.44.39-6.28,2.23-8.24,1.67-1.77,3.33-2.46,4.53-4.9a29,29,0,0,0,2.49-13.95c-.07-1.3-.77-3.49-2.47-2.24-.77.57-.39,2-1.11,2.45l-.06,0c.63-2.09,1.26-4.26,1.46-5.25a66.93,66.93,0,0,0,1-9.86c.88-8,1.32-15.62-3.6-22.3-5.26-7.16-13-11.35-17.22-10.82-.24,0-3,.29-2.7.61-1.48-1.34-4.08-1.43-5.92-1.87-9.77-2.33-22.13,3.75-29.24,10.24-7.49,6.85-6.39,15.67-5.53,24.14.29,3,.27,6.22,1.08,9a17.63,17.63,0,0,1,.73,4.57,1.59,1.59,0,0,0-.51-1c-1.7-1.25-2.39.94-2.46,2.24A29,29,0,0,0,122.86,270c1.19,2.44,2.86,3.13,4.53,4.9,1.84,2,1.54,5.8,2.23,8.24a13.94,13.94,0,0,0,2.13,4.5,15.39,15.39,0,0,0,3.76,3.38v9.11l-.33-.3-3.44,10.08-6,1.78c-.5.15-1,.33-1.58.48s-1.26.39-1.92.58c-6.06,1.84-13.65,4.15-20.17,6.16h0l-2.17-1.35a2.16,2.16,0,0,0-.62-.57l-5-4-1.38-4-.16.28c-.25-.7-.55-1.62-.86-2.71A14.81,14.81,0,0,0,95,304.89c5-3.61,7.57-7,9.2-13.1a93,93,0,0,0,3.45-29c-.12-2.23-.31-4.49-.62-6.74-2.59-18.85-18.66-34.79-38.85-31-5,.95-12.63,2.32-14.86,7.84-9-.77-13,12.6-14.14,19.5-.24,1.4-.44,2.81-.6,4.22-.73,6.56-.38,13.17,0,19.74.33,5.89,1.56,12.64,4.81,17.7,2.53,3.95,6.28,9.57,10.51,11.85a30.29,30.29,0,0,0,4.46,1.92c0,.28-.09.55-.14.82,0,.11,0,.22,0,.33l0,0-1.38,4-5,4a2,2,0,0,0-.6.57c-1.86,1.16-3.5,2.12-3.93,2.3-6.29,2.5-10.78,2.67-17.32,4.37-.8.22-1.65.43-2.52.66a103.62,103.62,0,0,0,37.26,46.31h0a90.51,90.51,0,0,0,8.27,5.15h0c.89.53,1.78,1,2.69,1.46.31.17.64.34,1,.5a4.77,4.77,0,0,0,.6.29c1.18.6,2.4,1.18,3.6,1.72a103.19,103.19,0,0,0,42.45,9.08A105,105,0,0,0,141,387.92c2.82-.5,5.61-1.1,8.34-1.82,1.28-.33,2.54-.68,3.8-1.06.52-.16,1-.31,1.56-.49a2.54,2.54,0,0,0,.51-.17c1.74-.54,3.46-1.16,5.17-1.82a103.75,103.75,0,0,0,59.43-59.41C215.49,321.7,197.85,316.35,186.07,312.77Z" transform="translate(118.43 -173.62)"/></g><g id="_4" data-name="4"><path class="cls-71" d="M50.63,236.44,52,235.05Z" transform="translate(118.43 -173.62)"/><path class="cls-72" d="M107.64,262.83c-.12-2.23-.31-4.49-.62-6.74-2.59-18.85-18.66-34.79-38.85-31-5,.95-12.63,2.32-14.86,7.84-9-.77-13,12.6-14.14,19.5-.24,1.4-.44,2.81-.6,4.22-.73,6.56-.38,13.17,0,19.74.33,5.89,1.56,12.64,4.81,17.7,2.53,3.95,6.28,9.57,10.51,11.85,8.69,4.65,18.15,4.19,27.56,2.73,4.64-.72,9.49-.9,13.56-3.81,5-3.61,7.57-7,9.2-13.1A93,93,0,0,0,107.64,262.83Z" transform="translate(118.43 -173.62)"/><path class="cls-73" d="M58.19,308.71c-1.39,6.76,16.16,19.71,16.16,19.71l11.68-6L58.19,294.21S59.58,302,58.19,308.71Z" transform="translate(118.43 -173.62)"/><path class="cls-74" d="M90.77,291.21c1.21-8.13-32.58,3-32.58,3l29.33,30,5.86-13.25A38.77,38.77,0,0,1,90.77,291.21Z" transform="translate(118.43 -173.62)"/><path class="cls-75" d="M91.28,291c1.76-2.37,2.12-5,2.44-7.79C93.86,282,95,281.67,96,281c2.1-1.39,2.61-2.77,3.22-5.92,1-5.28,2.14-7.09-3.37-8.87-10.16-3.29-22.7-7.09-31.72-13.34-2-1.36-9.66-5-9.37-7.67-.6,5.57-3.5,9.24-6.19,13.8l0,.07a25.63,25.63,0,0,1-2.83,5,34.94,34.94,0,0,0-2,4.19,8.22,8.22,0,0,0-.11,3c.23,1.65,1.35,9.64,4.94,9.85.85.05,1.32,1.06,1.46,1.9,1.1,6.38,5.44,10.84,10.3,15.21l1,.86c3.73,3.31,7.41,4.82,11.07,4.58,3.64.24,7.33-1.27,11-4.58q1.05-.92,2.07-1.86A45.18,45.18,0,0,0,91.28,291Z" transform="translate(118.43 -173.62)"/><path class="cls-54" d="M90.74,337.82c-3.65-4.76-9.11-9.88-15.23-11.45-6.12,1.57-11.59,6.69-15.23,11.45a2.33,2.33,0,0,0-.3,2.34L75,375.64a2.37,2.37,0,0,0,.47.71,2.56,2.56,0,0,0,.46-.71L91,340.16A2.35,2.35,0,0,0,90.74,337.82Z" transform="translate(118.43 -173.62)"/><path class="cls-76" d="M75.63,377.84c-.91-.47-1.8-.93-2.69-1.46h0a90.51,90.51,0,0,1-8.27-5.15h0a103.62,103.62,0,0,1-37.26-46.31c.87-.23,1.72-.44,2.52-.66,6.54-1.7,11-1.87,17.32-4.37.43-.18,2.07-1.14,3.93-2.3s4-2.6,5.23-3.55h0c.27-.21.48-.38.66-.54s.38-.39.38-.48q2.88,9.35,5.75,18.72c.21.67.41,1.35.62,2,.62,2,1.22,4,1.82,5.94v0q1.95,6.3,3.87,12.56c.64,2.06,1.26,4.11,1.9,6.16q2.06,6.71,4.12,13.4c0-.1.06-.22.1-.33v4.7Z" transform="translate(118.43 -173.62)"/><path class="cls-77" d="M141.5,371c0,5.66-.17,11.41-.48,16.94a105,105,0,0,1-17.77,1.51,103.19,103.19,0,0,1-42.45-9.08c-1.2-.54-2.42-1.12-3.6-1.72a4.77,4.77,0,0,1-.6-.29c-.33-.16-.66-.33-1-.5l0-1.63v-4.7l1-3.22c1-3.29,2-6.56,3-9.85.64-2.05,1.25-4.12,1.89-6.18q2-6.27,3.88-12.58c.61-2,1.21-3.95,1.82-5.92.19-.58.36-1.18.54-1.76,1-3.18,2-6.37,2.94-9.55l2.9-9.44c0,.09.14.25.37.48s.39.33.66.52c1.22.95,3.37,2.37,5.28,3.57l2.17,1.35h0c.85.5,1.49.85,1.72.95,6.3,2.5,10.79,2.67,17.31,4.37a78.64,78.64,0,0,1,8.56,2.52,18.67,18.67,0,0,1,7.18,4.45,7.9,7.9,0,0,1,.69.84,7.52,7.52,0,0,1,1,2.26c.29,1,.56,2.17.83,3.58v0a126.91,126.91,0,0,1,1.51,13.38C141.29,357.22,141.5,364,141.5,371Z" transform="translate(118.43 -173.62)"/><path class="cls-78" d="M83.62,361.85a.56.56,0,0,1,0,.36l-6.4,16.42a4.77,4.77,0,0,1-.6-.29c-.33-.16-.66-.33-1-.5-.91-.47-1.8-.93-2.69-1.46h0l-5.5-14.17a.56.56,0,0,1,0-.36L68,359l1.49-6.76.16-.69,3-13.69a3.42,3.42,0,0,0-.31-2.24l-1.69-3.14-.33-.62a.67.67,0,0,1,.16-.66l2-2.05c.39-.39.87-.77,1.26-1.18l.23-.29c.27-.37.45-.79.74-1.14a2,2,0,0,1,.46-.45c.47-.31.87.06,1.16.49a3.15,3.15,0,0,1,.33.58s0,0,0,.05a6.06,6.06,0,0,0,1.47,1.69c.76.77,1.53,1.53,2.31,2.3a.6.6,0,0,1,.13.66l-.33.6-1.66,3.16a3.19,3.19,0,0,0-.31,2.24l.54,2.48v0l2.48,11.21v0l.13.63L83,359.08Z" transform="translate(118.43 -173.62)"/><path class="cls-2" d="M96.83,320.32,92.89,309l-3.18,5.76c-3.58,5.06-11.42,10.16-14.2,10.24-2.78-.08-10.27-4.93-14.21-10.24L58.13,309l-4,11.31a.88.88,0,0,0,0,.51l7.23,23.39c.2.66,1.09,4.16,1.49.25l4-7a14.3,14.3,0,0,1,1.65-2.31l6.93-8.64,6.93,8.64a14.88,14.88,0,0,1,1.64,2.31l4,7c.4,3.91,1.28.41,1.49-.25l7.22-23.39A.81.81,0,0,0,96.83,320.32Z" transform="translate(118.43 -173.62)"/><path class="cls-79" d="M95.9,334.51s6.65,11.91,6.65,11.93c.43.75-13.56,20.63-21.75,33.91-1.2-.54-2.42-1.12-3.6-1.72a4.77,4.77,0,0,1-.6-.29c-.33-.16-.66-.33-1-.5-.91-.47-1.8-.93-2.69-1.46h0a90.51,90.51,0,0,1-8.27-5.15h0C57,359.52,48.12,347,48.45,346.44c0,0,6.68-11.93,6.68-11.93l-9.08,1c.85-2.65,2.69-14.89,5.09-17.9a2,2,0,0,1,.6-.57l5-4,.1-.08.2.6,6.13,18.24.66,2,1.94,5.73,2,5.94,1.88,6.2L75.51,371l1.09-3.59,4.78-15.73v0l1.88-6.22,2-5.94,1.92-5.73.58-1.72L91,322.36l3-8.87.19-.6.1.08,5,4a2.16,2.16,0,0,1,.62.57,7.43,7.43,0,0,1,.95,1.72c1.9,4.49,3.37,13.9,4.11,16.18Z" transform="translate(118.43 -173.62)"/><path class="cls-80" d="M100.39,268.68l-.82-2.19-2,.41h0l-3.21.63a7,7,0,0,0-.74-1c-1.72-1.86-5-2.93-9-2.93s-8.54,1.11-10.51,3.57l0-.12a6.19,6.19,0,0,1-2.85.78,6.06,6.06,0,0,1-2.82-.78l-.06.12c-2-2.46-6.64-3.57-10.51-3.57s-7.22,1.07-9,2.93a5.09,5.09,0,0,0-.71,1l-3.87-.71-.68-.14-.47,2.19.43.08,3.91.66a4.85,4.85,0,0,0,0,1.08c.41,5.36,5.56,8.17,10.44,8.17a2.68,2.68,0,0,0,.4,0,10.9,10.9,0,0,0,2.67-.39,11.82,11.82,0,0,0,8-7.24,4.39,4.39,0,0,0,.29-1.51,6.73,6.73,0,0,0,3.91,0,4.16,4.16,0,0,0,.29,1.51,11.78,11.78,0,0,0,8,7.24,11.06,11.06,0,0,0,2.69.39,2.42,2.42,0,0,0,.39,0c4.88,0,10-2.81,10.43-8.17a4.85,4.85,0,0,0,0-1.08l4.77-.84ZM67,270.42a9.65,9.65,0,0,1-6.56,6,9.8,9.8,0,0,1-2.19.31h-.32c-3.9,0-8-2.11-8.29-6.15A3.14,3.14,0,0,1,50.5,268c1.3-1.41,4-2.25,7.38-2.25,4,0,7.8,1.24,9,2.93A1.72,1.72,0,0,1,67,270.42Zm17.6,6.27h-.33a10.06,10.06,0,0,1-2.19-.31,9.65,9.65,0,0,1-6.56-6,1.74,1.74,0,0,1,.18-1.74c1.16-1.69,4.93-2.93,9-2.93,3.33,0,6.08.84,7.37,2.25a3.14,3.14,0,0,1,.85,2.54C92.59,274.58,88.5,276.69,84.61,276.69Z" transform="translate(118.43 -173.62)"/><polygon class="cls-81" points="253.94 132.07 274.29 150.75 280.78 143.41 253.94 116.66 253.94 132.07"/><polygon class="cls-82" points="291.3 112.56 253.94 114.79 253.94 116.66 280.78 143.41 291.3 131.52 291.3 112.56"/><path class="cls-83" d="M186.9,256.07c-.07-1.3-.77-3.49-2.47-2.24-.77.57-.39,2-1.11,2.45-1.72,1.13-1.89-1.43-2-2.56-.43-4.31,1.51-8.45,1-12.69-.72-5.9-6.23-9.9-11.42-11.9a26.61,26.61,0,0,0-17.25-.12,26.58,26.58,0,0,0-17.24.12c-5.19,2-10.7,6-11.42,11.9-.52,4.24,1.42,8.38,1,12.69-.11,1.13-.28,3.69-2,2.56-.71-.47-.34-1.88-1.11-2.45-1.7-1.25-2.39.94-2.46,2.24A29,29,0,0,0,122.86,270c1.19,2.44,2.86,3.13,4.53,4.9,1.84,2,1.54,5.8,2.23,8.24a13.94,13.94,0,0,0,2.13,4.5c2.05,2.82,5.61,4.14,7.95,6.71,2.2,2.4,4.23,4.8,7.24,6.35,1.82.94,4.36.95,6.69.84,2.34.11,4.87.1,6.69-.84,3-1.55,5.05-4,7.25-6.35,2.34-2.57,5.9-3.89,8-6.71a14.15,14.15,0,0,0,2.13-4.5c.69-2.44.39-6.28,2.23-8.24,1.67-1.77,3.33-2.46,4.53-4.9A29,29,0,0,0,186.9,256.07Z" transform="translate(118.43 -173.62)"/><path class="cls-84" d="M122.61,250.24a19.15,19.15,0,0,1,.72,6.7c0,.33,0,.83,0,1.36h3.1c0-.65,0-1.26,0-1.64a43.56,43.56,0,0,1,.07-5c.12-2.38-.17-4.83.07-7.2.62-6.23,5.94-10.62,11.86-11.08,4.35-.34,8.7.55,13.06.56,5.38,0,7.8-2.58,12.05-5.22,1.13-.71.46-.8,1.64-.5.77.2,1.76,1.25,2.43,1.66,4,2.46,11.27,4.91,12.43,10.12.92,4.09.73,8.28.62,12.44a44,44,0,0,0-.39,5.84h2.42c.77-2.51,1.81-5.92,2.07-7.24a66.93,66.93,0,0,0,1-9.86c.88-8,1.32-15.62-3.6-22.3-5.26-7.16-13-11.35-17.22-10.82-.24,0-3,.29-2.7.61-1.48-1.34-4.08-1.43-5.92-1.87-9.77-2.33-22.13,3.75-29.24,10.24-7.49,6.85-6.39,15.67-5.53,24.14C121.82,244.15,121.8,247.42,122.61,250.24Z" transform="translate(118.43 -173.62)"/><path class="cls-85" d="M172.86,337.22l-17.63,47.16a2.54,2.54,0,0,1-.51.17l-1.58-3.81v0L140.88,351.3l-5.36-12.9c0-.32.95-1.62,2.48-3.42.15-.21.35-.43.54-.66l1.63-1.88a.2.2,0,0,0,.07-.1c2.44-2.74,5.41-6,7.94-8.67,1.2-1.31,2.3-2.49,3.19-3.42.26-.29.51-.55.7-.78.85-.87,1.34-1.39,1.34-1.39h2.32l2.87,3.19,9.52,10.65.08.08,2.26,2.55Z" transform="translate(118.43 -173.62)"/><path class="cls-78" d="M163.55,358.49l-6.1-27.68a3.81,3.81,0,0,1,.36-2.59l2.31-4.35a.67.67,0,0,0-.16-.76l-2.67-2.66a7.36,7.36,0,0,1-1.69-2c-.25-.56-.94-1.83-1.74-1.29s-.94,1.21-1.4,1.83a15.26,15.26,0,0,1-1.71,1.7l-2.39,2.38a.69.69,0,0,0-.15.76l2.31,4.35a3.81,3.81,0,0,1,.36,2.59l-6.1,27.68a.71.71,0,0,0,0,.41l8.45,21.7a.67.67,0,0,0,.9.38.7.7,0,0,0,.92-.38l8.44-21.7A.71.71,0,0,0,163.55,358.49Z" transform="translate(118.43 -173.62)"/><path class="cls-86" d="M153.16,385c-1.26.38-2.52.73-3.8,1.06-2.73.72-5.52,1.32-8.34,1.82a105,105,0,0,1-17.77,1.51,103.19,103.19,0,0,1-42.45-9.08c-1.2-.54-2.42-1.12-3.6-1.72a4.77,4.77,0,0,1-.6-.29V348.06a12.78,12.78,0,0,1,1.29-5.61c.33-.68.66-1.35,1-2.05v0c1-2,2-4.05,3-6,.64-1.32,1.26-2.58,1.86-3.76,1.63-3.23,2.94-5.79,3.5-6.73l.29-.39a3.88,3.88,0,0,1,.37-.16c.5-.17,1.47-.5,2.81-.91a1.61,1.61,0,0,1,.29-.09c1.57-.51,3.58-1.13,5.86-1.84l4-1.22,1.22-.37h0c6.52-2,14.11-4.32,20.17-6.16.66-.19,1.3-.38,1.92-.58s1.08-.33,1.58-.48l6-1.78c.34-.12.64-.19.87-.27l.62-.2L139.12,329l1,3.46.93,3.06,5.05,16.76v0l6.95,23.1,0,4.89v.47Z" transform="translate(118.43 -173.62)"/><path class="cls-87" d="M215.69,323.81c-10.49,27.23-28,48.28-55.29,58.75-1.71.66-3.43,1.28-5.17,1.82a2.54,2.54,0,0,1-.51.17c-.52.18-1,.33-1.56.49l0-4.3v-.47l0-4.89.81,2.71v-.41L162,351.55l4.86-15.66.2-.6v0l1-3.35,6.95-22.46.64.2c.23.08.52.15.87.27,1.86.54,5.32,1.59,9.49,2.84C197.85,316.35,211.35,322.36,215.69,323.81Z" transform="translate(118.43 -173.62)"/><path class="cls-88" d="M173.15,299.85l-18.49,16.68a.75.75,0,0,1-1,0l-18.49-16.68L131,312l8,26.45L153.56,318a.74.74,0,0,1,1.21,0L169.3,338.4l8-26.45Z" transform="translate(118.43 -173.62)"/><path class="cls-89" d="M178.11,326.54l9.7,4.1L160.4,382.56c-1.71.66-3.43,1.28-5.17,1.82a2.54,2.54,0,0,1-.51.17c-.52.18-1,.33-1.56.49-1.26.38-2.52.73-3.8,1.06L141.5,371l-21-40.34,9.16-3.87.54-.23-11.15-5.48a77.67,77.67,0,0,1,3.19-8.29c.66-.19,1.3-.38,1.92-.58s1.08-.33,1.58-.48l6-1.78c.34-.12.64-.19.87-.27l6.5,19.32,1.12,3.36,1,3,3,9,2.09,6.87L153.62,375l8.23-24.22,2.19-6.42,2.84-8.44.2-.6v0L168.2,332l7.51-22.34c.23.08.52.15.87.27,1.86.54,5.32,1.59,9.49,2.84a77.67,77.67,0,0,1,3.19,8.29Z" transform="translate(118.43 -173.62)"/></g></g></g></g></svg>