<svg id="Layer_1" data-name="Layer 1" xmlns="http://www.w3.org/2000/svg" xmlns:xlink="http://www.w3.org/1999/xlink" viewBox="0 0 280.94 213.01"><defs><style>.cls-1{fill:url(#linear-gradient);}.cls-2{fill:#2e3192;}.cls-3{fill:#5f5ca9;}.cls-4{fill:url(#linear-gradient-2);}.cls-5{fill:url(#linear-gradient-3);}.cls-6{fill:url(#linear-gradient-4);}.cls-7{fill:#fed8b6;}.cls-8{fill:url(#linear-gradient-5);}.cls-9{fill:url(#linear-gradient-6);}.cls-10{fill:url(#linear-gradient-7);}.cls-11{fill:url(#linear-gradient-8);}.cls-12{fill:url(#linear-gradient-9);}.cls-13{fill:url(#linear-gradient-10);}.cls-14{fill:url(#linear-gradient-11);}.cls-15{fill:url(#linear-gradient-12);}.cls-16{fill:url(#linear-gradient-13);}.cls-17{fill:url(#linear-gradient-14);}.cls-18{fill:url(#linear-gradient-15);}.cls-19{fill:url(#linear-gradient-16);}.cls-20{fill:url(#linear-gradient-17);}.cls-21{fill:url(#linear-gradient-18);}.cls-22{fill:url(#linear-gradient-19);}.cls-23{fill:url(#linear-gradient-20);}.cls-24{fill:url(#linear-gradient-21);}.cls-25{fill:url(#linear-gradient-22);}.cls-26{fill:url(#linear-gradient-23);}.cls-27{fill:url(#linear-gradient-24);}.cls-28{fill:#fff;}</style><linearGradient id="linear-gradient" x1="273.82" y1="238.15" x2="554.76" y2="238.15" gradientUnits="userSpaceOnUse"><stop offset="0" stop-color="#3753a4"/><stop offset="0.47" stop-color="#648ac7"/><stop offset="0.81" stop-color="#80acdc"/><stop offset="1" stop-color="#8bb9e4"/></linearGradient><linearGradient id="linear-gradient-2" x1="-6741.78" y1="-501.21" x2="-6741.78" y2="-449.62" gradientTransform="translate(-5065.03 4245.83) rotate(139.86)" gradientUnits="userSpaceOnUse"><stop offset="0" stop-color="#2a307c"/><stop offset="0.1" stop-color="#22296b"/><stop offset="0.29" stop-color="#182055"/><stop offset="0.48" stop-color="#111945"/><stop offset="0.71" stop-color="#0c153b"/><stop offset="1" stop-color="#0b1438"/></linearGradient><linearGradient id="linear-gradient-3" x1="-4705.7" y1="-1466.52" x2="-4705.7" y2="-1414.92" gradientTransform="translate(248.18 5203.3) rotate(74.84)" xlink:href="#linear-gradient-2"/><linearGradient id="linear-gradient-4" x1="-3041.48" y1="142.69" x2="-3041.48" y2="121.66" gradientTransform="translate(3402.05 521.97) rotate(7.05)" gradientUnits="userSpaceOnUse"><stop offset="0" stop-color="#fcd1c2"/><stop offset="0.39" stop-color="#fccfc0"/><stop offset="0.59" stop-color="#fbc8b8"/><stop offset="0.75" stop-color="#fabdaa"/><stop offset="0.88" stop-color="#f9ad98"/><stop offset="1" stop-color="#f79980"/></linearGradient><linearGradient id="linear-gradient-5" x1="-3055.47" y1="137.97" x2="-3027.48" y2="137.97" gradientTransform="translate(3402.05 521.97) rotate(7.05)" xlink:href="#linear-gradient-2"/><linearGradient id="linear-gradient-6" x1="-3031.67" y1="125.64" x2="-3031.67" y2="82.58" gradientTransform="translate(3402.05 521.97) rotate(7.05)" xlink:href="#linear-gradient-2"/><linearGradient id="linear-gradient-7" x1="-2896.33" y1="426.91" x2="-2899.12" y2="425.29" gradientTransform="translate(2985.37 -551.98) rotate(-4.32)" gradientUnits="userSpaceOnUse"><stop offset="0" stop-color="#e1b691"/><stop offset="1" stop-color="#ef9367"/></linearGradient><linearGradient id="linear-gradient-8" x1="-2881.21" y1="433.61" x2="-2890.65" y2="428.16" gradientTransform="translate(3259.19 -420.33) rotate(-4.32)" xlink:href="#linear-gradient-4"/><linearGradient id="linear-gradient-9" x1="-2882.43" y1="427.14" x2="-2899.84" y2="417.09" gradientTransform="translate(3259.19 -420.33) rotate(-4.32)" xlink:href="#linear-gradient-4"/><linearGradient id="linear-gradient-10" x1="358.31" y1="420.79" x2="384.5" y2="420.79" gradientTransform="matrix(-1, 0.08, 0.08, 1, 746.33, -230.14)" xlink:href="#linear-gradient-2"/><linearGradient id="linear-gradient-11" x1="-2887.91" y1="425.21" x2="-2892.47" y2="422.58" gradientTransform="translate(3259.19 -420.33) rotate(-4.32)" xlink:href="#linear-gradient-4"/><linearGradient id="linear-gradient-12" x1="383.21" y1="478.26" x2="348.22" y2="443.27" gradientTransform="matrix(-1, 0.08, 0.08, 1, 746.33, -230.14)" gradientUnits="userSpaceOnUse"><stop offset="0" stop-color="#6d64ac"/><stop offset="0.02" stop-color="#6e66ad"/><stop offset="0.46" stop-color="#7e93cb"/><stop offset="0.8" stop-color="#87afdd"/><stop offset="1" stop-color="#8bb9e4"/></linearGradient><linearGradient id="linear-gradient-13" x1="416.4" y1="261.35" x2="431.1" y2="246.11" gradientTransform="matrix(1, 0, 0, 1, 0, 0)" xlink:href="#linear-gradient-12"/><linearGradient id="linear-gradient-14" x1="115.7" y1="578.54" x2="107.91" y2="607.56" gradientTransform="translate(91.69 -265.23) rotate(-19.36)" xlink:href="#linear-gradient-4"/><linearGradient id="linear-gradient-15" x1="374.27" y1="443.17" x2="391.86" y2="443.17" gradientTransform="translate(-34.83 -171.32) rotate(-4.32)" gradientUnits="userSpaceOnUse"><stop offset="0" stop-color="#1c174b"/><stop offset="0.18" stop-color="#1f1b50"/><stop offset="0.41" stop-color="#26255f"/><stop offset="0.65" stop-color="#323777"/><stop offset="0.91" stop-color="#445099"/><stop offset="1" stop-color="#4b5aa8"/></linearGradient><linearGradient id="linear-gradient-16" x1="375.58" y1="442.56" x2="389.37" y2="442.56" gradientTransform="translate(-34.83 -171.32) rotate(-4.32)" gradientUnits="userSpaceOnUse"><stop offset="0.05" stop-color="#f8f2f8"/><stop offset="0.23" stop-color="#f4f0f7"/><stop offset="0.41" stop-color="#e9ebf6"/><stop offset="0.58" stop-color="#d5e2f3"/><stop offset="0.75" stop-color="#bad6ef"/><stop offset="0.92" stop-color="#97c7ea"/><stop offset="1" stop-color="#84bee7"/></linearGradient><linearGradient id="linear-gradient-17" x1="107.72" y1="586.34" x2="104.89" y2="575.78" gradientTransform="translate(91.69 -265.23) rotate(-19.36)" xlink:href="#linear-gradient-4"/><linearGradient id="linear-gradient-18" x1="-3942.33" y1="-1815.73" x2="-3945.58" y2="-1786.36" gradientTransform="translate(4615.61 1299.55) rotate(-10.62)" xlink:href="#linear-gradient-4"/><linearGradient id="linear-gradient-19" x1="416.33" y1="256.46" x2="396.64" y2="239.26" gradientTransform="matrix(1, 0, 0, 1, 0, 0)" xlink:href="#linear-gradient-12"/><linearGradient id="linear-gradient-20" x1="-5616.07" y1="-821.46" x2="-5618.38" y2="-843.28" gradientTransform="translate(-1415.45 5681.92) rotate(99.6)" xlink:href="#linear-gradient-4"/><linearGradient id="linear-gradient-21" x1="-5630.05" y1="-826.09" x2="-5604.13" y2="-826.09" gradientTransform="translate(-1415.45 5681.92) rotate(99.6)" xlink:href="#linear-gradient-2"/><linearGradient id="linear-gradient-22" x1="-5614.51" y1="-839.57" x2="-5619.16" y2="-883.57" gradientTransform="translate(-1415.45 5681.92) rotate(99.6)" xlink:href="#linear-gradient-2"/><linearGradient id="linear-gradient-23" x1="456.97" y1="217.11" x2="456.97" y2="236.52" gradientUnits="userSpaceOnUse"><stop offset="0" stop-color="#f9fcfd"/><stop offset="0.01" stop-color="#f8fbfd"/><stop offset="0.18" stop-color="#e2e9f5"/><stop offset="0.36" stop-color="#d5def1"/><stop offset="0.51" stop-color="#d0daef"/></linearGradient><linearGradient id="linear-gradient-24" x1="456.52" y1="272.67" x2="456.52" y2="324.87" xlink:href="#linear-gradient-23"/></defs><title>login</title><path class="cls-1" d="M554.76,344.65V139.19a7.53,7.53,0,0,0-7.54-7.54h-50.4l-215.47.52a7.55,7.55,0,0,0-7.53,7.55V344.65Z" transform="translate(-273.82 -131.65)"/><circle class="cls-2" cx="155.96" cy="123.37" r="79.36"/><path class="cls-3" d="M497.84,293c0,3.17-39,5.74-87.17,5.74S323.5,296.18,323.5,293s39-5.74,87.17-5.74S497.84,289.84,497.84,293Z" transform="translate(-273.82 -131.65)"/><path class="cls-4" d="M386.6,239.23c6.25,4.41,11.51,10.18,16.51,15.92,2.49,2.85,9.95,14.65,12.22,17.68,4.31,5.73,2.3,5.64-5.4,9.75a8.53,8.53,0,0,1-3.14.95c-12.93,1.32-18.9-15.62-22.79-24.73-1.68-4-3.51-8.85-4.94-12.9C380.18,238.67,386.6,239.23,386.6,239.23Z" transform="translate(-273.82 -131.65)"/><path class="cls-5" d="M383,282.76c6.63-3.8,14.09-6.14,21.4-8.25,3.64-1.05,17.49-2.83,21.19-3.61,7-1.49,6.08.3,6.56,9a8.57,8.57,0,0,1-.46,3.25c-4.27,12.27-22.15,10.53-32.05,10.2-4.3-.14-9.5-.55-13.78-1C379.81,288.34,383,282.76,383,282.76Z" transform="translate(-273.82 -131.65)"/><path class="cls-6" d="M380.46,285.52a9.33,9.33,0,0,0-.31-1.94c0-.18-.3-1.95-.28-2.14.29-2.78,1.88-10.36,1.88-10.36l-7.63-1.2s.13,6.78-1.5,10.52h0c-3.66,1.39-10.05,3-10.05,3s-7,.13-7.37.23a6.47,6.47,0,0,0-2.45,1s-1.06,1.65,7.28,4.22a28.53,28.53,0,0,0,9.61,1.27l3.89.22c1.33.08,5.3.52,5.87.21a1.56,1.56,0,0,0,.49-.39C380.77,289.09,380.44,286.85,380.46,285.52Z" transform="translate(-273.82 -131.65)"/><path class="cls-7" d="M377.49,276.83c.09.44.16.88.22,1.32.21-.39.41-.79.61-1.19Z" transform="translate(-273.82 -131.65)"/><path class="cls-8" d="M380.15,283.58c0-.11-.12-.74-.2-1.29l-.92.32c-3.5,1.17-7,.49-10.38-.75l-.18-.08c-3,.91-5.89,1.65-5.89,1.65s-7,.13-7.37.23a6.47,6.47,0,0,0-2.45,1s-1.06,1.65,7.28,4.22a28.53,28.53,0,0,0,9.61,1.27l3.89.22c1.33.08,5.3.52,5.87.21a1.56,1.56,0,0,0,.49-.39c.87-1.11.54-3.35.56-4.68A9.33,9.33,0,0,0,380.15,283.58Z" transform="translate(-273.82 -131.65)"/><path class="cls-9" d="M382.64,239.17h-.06a6.58,6.58,0,0,0-6.75,6c-.81,8.45-2,21-2.61,28.12l7.87,1.49a149.76,149.76,0,0,0,5.26-21.62,113.56,113.56,0,0,0,1.17-11.64c0-.59-.95-1.61-.92-2.26A28.75,28.75,0,0,0,382.64,239.17Z" transform="translate(-273.82 -131.65)"/><polygon class="cls-10" points="127.56 88.37 129.02 92.78 126.48 93.62 127.56 88.37"/><path class="cls-11" d="M409.08,224.24c.09,1.44.44,9.91.44,9.91.94.91,5.17.95,6.83-.68a4.07,4.07,0,0,0,1.39-2.39l-1.45-12.29Z" transform="translate(-273.82 -131.65)"/><path class="cls-12" d="M415,209.49l.79,4.36L417,220.5l.34,1.88c-3.72,7.59-10.75,8.9-13.23,6.64s-4.56-16-4.56-16Z" transform="translate(-273.82 -131.65)"/><path class="cls-13" d="M414.49,228.9s-6.25-11-8-11.81-7.27.94-10.59-3.3-1.68-6.62-.53-6.93,3.66,3.86,7.34,1,11.77-3.53,13.24-.49c0,0,5.06.13,4.49,7.07s-2,12.84-3.68,13.47Z" transform="translate(-273.82 -131.65)"/><path class="cls-14" d="M410.28,216.75c1.84,1.26,2.07,5.29-1.11,7.75L407.3,218A2,2,0,0,1,410.28,216.75Z" transform="translate(-273.82 -131.65)"/><path class="cls-15" d="M417.21,231.37c-4.78.56-12.29,2-13.67,7.47a21.69,21.69,0,0,0-.11,9c.42,2.32.79,4.65,1.07,7,.46,4,1,8.43-.07,12.34l-4.47,8.2s21.73,9.59,32.51-3.11c0,0-.69-31.63-5.74-39-.61-.9-2.15-1.31-3.12-1.54A17.75,17.75,0,0,0,417.21,231.37Z" transform="translate(-273.82 -131.65)"/><path class="cls-16" d="M426.73,233.27c-.61-.9-2.15-1.31-3.12-1.54a17.38,17.38,0,0,0-4.85-.48V278.8c4.79-.39,9.8-1.89,13.71-6.5C432.47,272.3,431.78,240.67,426.73,233.27Z" transform="translate(-273.82 -131.65)"/><path class="cls-17" d="M378,243.38a14.49,14.49,0,0,0,2.91,6.83c2.4,2.74,5.13,3.83,7.38,6.73,1.77,2.28,19.34,19.13,21.13,13a3.8,3.8,0,0,0-.38-2.44c-3-7.27-10.24-10.34-16.59-14.16L390,251.72s-1-4.14-3.59-6.42Z" transform="translate(-273.82 -131.65)"/><path class="cls-18" d="M377.15,233.2l-5.28,6a1,1,0,0,0,.08,1.42l10.73,9.72a1,1,0,0,0,1.43-.07l5.19-5.71a1,1,0,0,0-.06-1.42l-10.63-10A1,1,0,0,0,377.15,233.2Z" transform="translate(-273.82 -131.65)"/><path class="cls-19" d="M372.93,239.83l9.14,8.32,4.91-5.41-9.05-8.57Z" transform="translate(-273.82 -131.65)"/><path class="cls-20" d="M383.4,250.29s.8-.48.47-2-1-5.11-1-5.11,0-1.29.52-1a4.36,4.36,0,0,1,2,3.3,7.54,7.54,0,0,0,.94,2.41,6.6,6.6,0,0,1,2,4S384.73,253.05,383.4,250.29Z" transform="translate(-273.82 -131.65)"/><path class="cls-21" d="M410.12,269.84A6.83,6.83,0,0,0,411,266c.12-3.59.29-7.18.45-10.76.07-1.6.14-3.2.2-4.79.11-3.27.33-8.06-3.95-8.84a3.6,3.6,0,0,0-2.83,1.2,4.18,4.18,0,0,0-.91,2,32.32,32.32,0,0,0-.34,5.15c-.17,3-.28,5.93-.3,8.91,0,1.91,0,3.82.1,5.74.09,1.58,0,3.57.76,5s2.68,1.81,4.09,1.41A3.31,3.31,0,0,0,410.12,269.84Z" transform="translate(-273.82 -131.65)"/><path class="cls-22" d="M413.51,256.86c-.59-4.43,0-20.34-6.31-21-7-.72-5.66,21.19-5.66,21.19Z" transform="translate(-273.82 -131.65)"/><path class="cls-23" d="M337.56,293.52a9.36,9.36,0,0,0,1.87-.63c.17-.07,1.86-.63,2.05-.64,2.79-.19,10.53.09,10.53.09l-.11-7.73s-6.66,1.29-10.62.32h0A58.64,58.64,0,0,0,335,277s-1.47-3.74-1.63-4.1,1-1.23.06-2.23c0,0-.19-5.17-1.31,3.48,0,0-2,3.58-.93,9.53l.45,3.87c.15,1.32.39,5.31.79,5.82a1.59,1.59,0,0,0,.47.41C334.09,294.44,336.25,293.73,337.56,293.52Z" transform="translate(-273.82 -131.65)"/><path class="cls-24" d="M339.39,292.9a21.51,21.51,0,0,1-.13-5.81,11.79,11.79,0,0,1,1-3.89c-1.79-3.36-3.72-7.65-3.72-7.65s-1.36-4.92-1.53-5.28a6.59,6.59,0,0,0-1.41-2.24s-1.75-2.7-2.87,6a28.68,28.68,0,0,0,.38,9.69l.45,3.87c.15,1.32.39,5.31.79,5.82a1.59,1.59,0,0,0,.47.41c1.23.67,3.39,0,4.7-.25A8.41,8.41,0,0,0,339.39,292.9Z" transform="translate(-273.82 -131.65)"/><path class="cls-25" d="M348.28,292.31c9.11,1.27,29.11,3,40.41-.85,1.78-.61,3.68-2.41,3.88-4.36.15-1.51-.47-3.73-1.77-4.64-1.08-.75-4.64-1-5.88-.95-3.51.16-25.92,1.95-36.51,2.8Z" transform="translate(-273.82 -131.65)"/><path class="cls-26" d="M444,238.42a21.92,21.92,0,1,1,25.9,0h9.56a28.4,28.4,0,0,0,6.19-17.6,28.7,28.7,0,1,0-57.4,0,28.4,28.4,0,0,0,6.19,17.6Z" transform="translate(-273.82 -131.65)"/><path class="cls-27" d="M486.47,227.6H426.58a4.33,4.33,0,0,0-4.33,4.33v56.74a4.33,4.33,0,0,0,4.33,4.34h59.89a4.33,4.33,0,0,0,4.33-4.34V231.93A4.33,4.33,0,0,0,486.47,227.6Zm-25.29,30V274a2.19,2.19,0,0,1-2.2,2.2h-4a2.2,2.2,0,0,1-2.2-2.2V257.65a8.68,8.68,0,0,1-4.58-7.62,8.8,8.8,0,0,1,17.59.05A8.68,8.68,0,0,1,461.18,257.65Z" transform="translate(-273.82 -131.65)"/><path class="cls-28" d="M297.39,156.42h-4.53v2.81h5.07v3H289.2V148h8.45v3h-4.79v2.41h4.53Z" transform="translate(-273.82 -131.65)"/><path class="cls-28" d="M303.38,159.11l-.71,3.16H299L302.76,148h4.76l3.77,14.28h-3.85l-.78-3.16Zm2.84-2.73-.57-2.62c-.19-.8-.43-2.08-.63-2.94h0c-.19.86-.41,2.16-.59,3l-.56,2.61Z" transform="translate(-273.82 -131.65)"/><path class="cls-28" d="M313.83,151.15h-3.3V148h10.31v3.16h-3.35v11.12h-3.66Z" transform="translate(-273.82 -131.65)"/></svg>