<svg xmlns="http://www.w3.org/2000/svg" viewBox="0 0 1078.29 245.33"><defs><style>.cls-1{isolation:isolate;}.cls-2{fill:#a3c13d;}.cls-3{fill:#a7cb40;}.cls-4{fill:#d7e6e8;}.cls-5{fill:#010101;opacity:0.5;mix-blend-mode:multiply;}.cls-6{fill:#00a890;}.cls-7{fill:#00816c;}.cls-8{fill:#ee5e2a;}.cls-9{fill:#f48059;}.cls-10,.cls-13{fill:#fff;}.cls-10,.cls-12{mix-blend-mode:soft-light;}.cls-11,.cls-17{fill:#2e3641;}.cls-11{opacity:0.32;}.cls-14{fill:#546478;}.cls-15{fill:#becacd;}.cls-16{fill:#d7e5e9;}</style></defs><title>mart</title><g class="cls-1"><g id="Layer_3" data-name="Layer 3"><g id="_1" data-name="1"><polygon class="cls-2" points="0 245.33 355.99 245.33 0 2.35 0 245.33"/><polygon class="cls-3" points="1078.29 0 0 0 0 2.35 355.99 245.33 1078.29 245.33 1078.29 0"/></g></g><g id="Layer_2" data-name="Layer 2"><ellipse class="cls-4" cx="811.49" cy="229.82" rx="54.69" ry="2.8"/><rect class="cls-5" x="571.64" y="216.2" width="68.4" height="20.21" transform="translate(77.89 72.01) rotate(-22.35)"/><rect class="cls-6" x="571.64" y="215.43" width="68.4" height="20.21" transform="translate(78.18 71.95) rotate(-22.35)"/><rect class="cls-7" x="573.57" y="225.16" width="68.4" height="10.1" transform="translate(76.54 73.03) rotate(-22.35)"/><rect class="cls-8" x="575.86" y="236.43" width="7.2" height="1.07" transform="matrix(0.92, -0.38, 0.38, 0.92, 71.85, 62.78)"/><rect class="cls-9" x="575.45" y="235.43" width="7.2" height="1.07" transform="translate(72.2 62.55) rotate(-22.35)"/><rect class="cls-8" x="629.05" y="214.56" width="7.2" height="1.07" transform="translate(84.16 81.36) rotate(-22.35)"/><rect class="cls-9" x="628.64" y="213.57" width="7.2" height="1.07" transform="translate(84.5 81.13) rotate(-22.35)"/><circle class="cls-7" cx="695.52" cy="56.16" r="2.95"/><rect class="cls-7" x="580.61" y="224.79" width="11.24" height="5.89" transform="translate(75.87 64.66) rotate(-22.35)"/><rect class="cls-10" x="567.95" y="216.16" width="68.4" height="0.76" transform="translate(81.32 69.87) rotate(-22.35)"/><rect class="cls-11" x="789.82" y="264.73" width="68.86" height="44.01" transform="translate(930.19 984.01) rotate(-108.36)"/><rect class="cls-9" x="788.31" y="265.23" width="68.86" height="44.01" transform="translate(927.74 983.24) rotate(-108.36)"/><polygon class="cls-8" points="951.21 72.29 972.9 137.65 931.13 151.51 951.21 72.29"/><rect class="cls-10" x="767.88" y="293.54" width="68.86" height="0.95" transform="translate(894.43 972.77) rotate(-108.36)"/><ellipse class="cls-8" cx="805.76" cy="270.64" rx="4.67" ry="9.31" transform="translate(74.2 92.27) rotate(-18.36)"/><path class="cls-11" d="M569.22,272.61c.67-7.5-2.69-13.89-8.35-15.18-6.19-1.41-11.53,2.49-14.15,10.05l-5.55-1.26-12.89,41.44,40.13,9.15h.06l6.33-42.94Zm-20.78-.22a1.73,1.73,0,0,1-.21.53l-.09.16c0,.05-.08.09-.11.14l-.12.13-.14.12-.14.12-.15.09a1,1,0,0,1-.18.08.61.61,0,0,1-.14.07l-.21.05-.15,0h-.36a2.32,2.32,0,0,1-.38-.05,2.29,2.29,0,0,1-.37-.12l-.11-.06-.21-.12-.12-.09-.16-.14-.1-.12a.83.83,0,0,1-.12-.16l-.1-.14-.08-.17-.07-.16c0-.06,0-.12,0-.18s0-.12,0-.18a1.09,1.09,0,0,1,0-.18.59.59,0,0,1,0-.19h0a2.58,2.58,0,0,1,0-.38A2,2,0,0,1,546,270l-.09.39s0,.07,0,.1h0a1,1,0,0,0,1.88.32l.09-.37A2,2,0,0,1,548.44,272.39Zm12-13.1c4.57,1,7.35,6.53,6.89,12.89l-18.75-4.27C550.88,261.37,555.26,258.11,560.44,259.29Zm8.82,18.23h0l-.09.17-.09.16L569,278l-.12.14-.13.11-.15.12-.14.09-.18.09-.15.06-.2,0-.15,0-.24,0h-.13a1.65,1.65,0,0,1-.38,0,1.9,1.9,0,0,1-.36-.12l-.11-.06a1.05,1.05,0,0,1-.21-.12l-.12-.09-.16-.14-.11-.12-.12-.16-.09-.14a1.3,1.3,0,0,1-.08-.17,1.11,1.11,0,0,1-.07-.16,1.21,1.21,0,0,1,0-.18,1,1,0,0,1,0-.18c0-.06,0-.12,0-.18s0-.12,0-.18a2.6,2.6,0,0,1,0-.39,2,2,0,0,1,1.48-1.49c0,.15-.05.29-.09.43a1,1,0,0,0,.72,1.14.94.94,0,0,0,1.14-.72c0-.11,0-.23.08-.34a2,2,0,0,1,.56,1.87A1.9,1.9,0,0,1,569.26,277.52Z" transform="translate(118.43 -175.33)"/><path class="cls-4" d="M574.8,273.12l-33.63-7.66L528.28,306.9l40.19,9.16Zm-28.74,0a2,2,0,1,1,2.38-1.5A2,2,0,0,1,546.06,273.13ZM567,277.9a2,2,0,1,1,2.39-1.5A2,2,0,0,1,567,277.9Z" transform="translate(118.43 -175.33)"/><g class="cls-12"><polygon class="cls-13" points="659.43 90.87 693.06 98.53 686.84 140.72 686.89 140.73 693.23 97.79 659.6 90.13 646.71 131.57 646.76 131.58 659.43 90.87"/><path class="cls-13" d="M566.82,278.64a2,2,0,0,0,2.39-1.5,2.32,2.32,0,0,0,0-.38,2,2,0,0,1-3.82-.87,2.29,2.29,0,0,0-.12.37A2,2,0,0,0,566.82,278.64Z" transform="translate(118.43 -175.33)"/><path class="cls-13" d="M545.89,273.87a2,2,0,0,0,2.39-1.5,2.45,2.45,0,0,0,0-.38,2,2,0,0,1-3.81-.87,2.6,2.6,0,0,0-.13.36A2,2,0,0,0,545.89,273.87Z" transform="translate(118.43 -175.33)"/></g><path class="cls-14" d="M567.6,275.59a1,1,0,0,1-.72-1.14c1.73-7.58-1.16-14.72-6.44-15.93-5.9-1.34-10.77,3.09-12.7,11.56a1,1,0,1,1-1.86-.42c2.16-9.48,8-14.58,15-13,6.41,1.46,9.87,9.45,7.87,18.2A1,1,0,0,1,567.6,275.59Z" transform="translate(118.43 -175.33)"/><path class="cls-10" d="M560.7,257.41c6.25,1.43,9.69,9.07,8,17.57l0-.11c2-8.75-1.46-16.74-7.87-18.2-7-1.59-12.83,3.51-15,13,0,0,0,.06,0,.1C548.14,260.7,553.91,255.86,560.7,257.41Z" transform="translate(118.43 -175.33)"/><path class="cls-15" d="M550.71,301.06c3.6-.61,10.69-4.74,12.42-8.27,1.24-2.5,2.28-6-1.35-8.48-3.1-2.12-7.6,1.51-7.6,1.51s-1.85-5.36-6.2-4.66c-3.87.63-4.93,4.27-4.9,7.06C543.12,292.15,547.8,299,550.71,301.06Z" transform="translate(118.43 -175.33)"/><path class="cls-11" d="M760.66,216.44l-5.53-1.51c1-7.47-2.08-14-7.68-15.54-6.12-1.67-11.63,2-14.58,9.43l-5.48-1.5-14.68,40.85h0l39.7,10.88ZM751.49,220a.64.64,0,0,1-.08-.14l-.08-.17a1.15,1.15,0,0,1-.06-.17,1.16,1.16,0,0,1,0-.18,1.16,1.16,0,0,1,0-.18V219c0-.06,0-.12,0-.19h0a1.8,1.8,0,0,1,.07-.38A2,2,0,0,1,752.8,217c0,.14-.07.28-.11.42a1,1,0,0,0,1.84.5c0-.11.05-.22.08-.34a2,2,0,0,1,.49,1.9,3.84,3.84,0,0,1-.14.36s-.07.1-.1.16l-.1.15a1.49,1.49,0,0,1-.12.14l-.12.13-.14.11-.15.11-.15.08-.18.08-.15.06-.21,0-.15,0H753l-.38-.06-.35-.14-.11-.07-.21-.13-.11-.09c-.05,0-.11-.1-.15-.15l-.11-.13Zm-19.58-8.29s0,.07,0,.1h0a1,1,0,0,0,1.86.41c0-.13.07-.25.11-.37a2,2,0,0,1,.53,1.94,1.92,1.92,0,0,1-.14.36h0a.86.86,0,0,1-.1.16c0,.05-.06.11-.09.15l-.13.14-.12.13-.14.11-.15.11-.15.08-.18.09-.15.05-.21,0-.15,0h-.24a.56.56,0,0,1-.13,0,2.38,2.38,0,0,1-.37-.06,1.92,1.92,0,0,1-.36-.14l-.11-.06-.2-.13-.12-.1-.15-.15-.1-.12-.12-.16a1.09,1.09,0,0,1-.08-.15l-.08-.17-.06-.17a1.36,1.36,0,0,1,0-.17,1.84,1.84,0,0,1,0-.37,1.2,1.2,0,0,1,0-.19h0a2.38,2.38,0,0,1,.06-.37,2,2,0,0,1,1.48-1.41Zm15-10.49c4.52,1.24,7.06,6.85,6.33,13.19l-18.55-5.09C737.3,202.9,741.82,199.83,746.94,201.23Z" transform="translate(118.43 -175.33)"/><path class="cls-6" d="M760.66,215.68l-33.27-9.12L712.71,247.4l39.75,10.9Zm-28.72-1.24a2,2,0,1,1,2.45-1.4A2,2,0,0,1,731.94,214.44Zm20.7,5.67a2,2,0,1,1,2.46-1.39A2,2,0,0,1,752.64,220.11Z" transform="translate(118.43 -175.33)"/><g class="cls-12"><polygon class="cls-13" points="845.62 31.96 878.88 41.08 870.83 82.95 870.89 82.97 879.08 40.35 845.82 31.23 831.13 72.07 831.19 72.09 845.62 31.96"/><path class="cls-13" d="M752.44,220.85a2,2,0,0,0,2.45-1.4,1.59,1.59,0,0,0,.07-.38,2,2,0,0,1-3.78-1,1.91,1.91,0,0,0-.13.36A2,2,0,0,0,752.44,220.85Z" transform="translate(118.43 -175.33)"/><path class="cls-13" d="M731.74,215.17a2,2,0,0,0,2.45-1.4,2.38,2.38,0,0,0,.06-.37,2,2,0,0,1-3.77-1,1.42,1.42,0,0,0-.14.36A2,2,0,0,0,731.74,215.17Z" transform="translate(118.43 -175.33)"/></g><path class="cls-14" d="M753.36,217.83a1,1,0,0,1-.67-1.17c2-7.5-.52-14.76-5.75-16.19-5.84-1.6-10.89,2.61-13.19,11a1,1,0,1,1-1.84-.5c2.57-9.37,8.67-14.21,15.54-12.33,6.34,1.74,9.45,9.88,7.08,18.53A1,1,0,0,1,753.36,217.83Z" transform="translate(118.43 -175.33)"/><path class="cls-10" d="M747.25,199.37c6.18,1.69,9.29,9.49,7.24,17.9,0,0,0-.07,0-.11,2.37-8.65-.74-16.79-7.08-18.53-6.87-1.88-13,3-15.54,12.33,0,0,0,.07,0,.1C734.56,202.11,740.54,197.53,747.25,199.37Z" transform="translate(118.43 -175.33)"/><circle class="cls-8" cx="856.82" cy="56.91" r="10.4"/><path class="cls-5" d="M715.81,197.54l-1.06-4.45c-.18-.77-1-1.35-2.24-1.76a10.43,10.43,0,0,0-1.2-.31c-.44-.09-.92-.16-1.44-.22s-1.06-.11-1.64-.14-1.2,0-1.84,0c-1.29,0-2.7,0-4.21.14s-3.12.27-4.81.49c-.84.11-1.71.23-2.59.37l-1.34.21c-2.7.46-5.55,1-8.48,1.73a118,118,0,0,0-13.29,4l-1.15.44c-.75.29-1.48.58-2.17.88-1.4.59-2.68,1.18-3.82,1.77-.75.39-1.43.77-2,1.14l-.54.33a17.74,17.74,0,0,0-2,1.47c-.19.16-.37.32-.53.48-.94.94-1.37,1.82-1.19,2.58h0l1.06,4.45c.84,3.48,14.17,3.27,29.79-.47S716.65,201,715.81,197.54Z" transform="translate(118.43 -175.33)"/><ellipse class="cls-16" cx="686.47" cy="199.1" rx="29.08" ry="6.48" transform="translate(90.94 -9.97) rotate(-13.47)"/><path class="cls-15" d="M659.26,210.32c.84,3.48,14.17,3.27,29.79-.47s27.6-9.59,26.76-13.08l-1.06-4.45c.83,3.49-11.15,9.34-26.77,13.08s-29,3.95-29.78.47Z" transform="translate(118.43 -175.33)"/><path class="cls-10" d="M685.14,193.53c15.06-3.6,28-3.93,29.65-.82a1.72,1.72,0,0,0,0-.39c-.83-3.48-14.17-3.27-29.79.47s-27.6,9.6-26.76,13.08a1.78,1.78,0,0,0,.14.36C658.41,202.71,670.08,197.14,685.14,193.53Z" transform="translate(118.43 -175.33)"/><path class="cls-11" d="M663.75,258.35c0-.23-.07-.46-.12-.68a6.62,6.62,0,0,0-.68-1.78,6.22,6.22,0,0,0-.72-1c-.14-.16-.28-.32-.43-.47a6.72,6.72,0,0,0-2.82-1.62l-14.71-4.16c3.59,0,8.57-1,9.06-2.27a.82.82,0,0,0-.46-1,1.65,1.65,0,0,0-.47-.19c-2.4-.68-8.87,1.83-10.23,2.38-1.22-1-7.43-6-10.13-6.79a2.79,2.79,0,0,0-.65-.1c-.64,0-.78.35-.81.51-.05.31-.17,1,4.43,3.75,1.41.85,2.88,1.66,4.18,2.31l-14-3.95a7.05,7.05,0,0,0-2-.25h0a6.71,6.71,0,0,0-5,2.47,6.3,6.3,0,0,0-.37.53,6.5,6.5,0,0,0-.83,1.81l-.93,3.32a.44.44,0,0,0-.55.3.44.44,0,0,0,.31.54l-.94,3.32a6.62,6.62,0,0,0,4.57,8.17L636,268.08h0a.44.44,0,1,0,.84.24h0L653.27,273a6.61,6.61,0,0,0,8.16-4.57l.94-3.32a.44.44,0,0,0,.24-.84l.94-3.32a6.77,6.77,0,0,0,.23-1.32A6.51,6.51,0,0,0,663.75,258.35Zm-32-16.82h0c1.64.46,4.83,2.74,7.17,4.53A44.22,44.22,0,0,1,631.76,241.53ZM644,247.74c2.63-1,6.67-2.24,8.21-1.8a1.28,1.28,0,0,1,.26.1l.05,0C651.88,246.74,647.34,247.82,644,247.74Z" transform="translate(118.43 -175.33)"/><rect class="cls-4" x="615.34" y="246.65" width="48.32" height="21.01" rx="5.88" transform="translate(1303.41 503.18) rotate(-164.22)"/><path class="cls-15" d="M619.76,262.49,653.53,272a6.61,6.61,0,0,0,8.16-4.57l-46.5-13.14A6.62,6.62,0,0,0,619.76,262.49Z" transform="translate(118.43 -175.33)"/><path class="cls-6" d="M615.83,250.46a.44.44,0,0,0,.3.55L639,257.46l-2.74,9.68a.44.44,0,0,0,.85.24l2.73-9.69,22.83,6.46a.44.44,0,0,0,.24-.85L640,256.85l2.63-9.31c3.37.5,10.34-.64,10.92-2.15a.82.82,0,0,0-.46-1,1.93,1.93,0,0,0-.46-.19c-2.4-.68-8.88,1.83-10.24,2.38-1.21-1-7.43-6-10.13-6.78a2.32,2.32,0,0,0-.64-.11c-.65,0-.79.36-.82.51-.05.31-.17,1,4.44,3.75a50.53,50.53,0,0,0,6.54,3.4l-2.62,9.3-22.83-6.45A.43.43,0,0,0,615.83,250.46Zm23.41-5.32a44.31,44.31,0,0,1-7.22-4.55h0C633.7,241.06,636.9,243.34,639.24,245.14Zm5,1.66c2.64-1,6.67-2.24,8.22-1.8a.82.82,0,0,1,.25.11l.05,0C652.14,245.81,647.6,246.88,644.21,246.8Z" transform="translate(118.43 -175.33)"/><rect class="cls-11" x="669.76" y="223.96" width="52.88" height="43.8" transform="translate(76.38 58.98) rotate(-18.55)"/><rect class="cls-9" x="669.31" y="222.62" width="52.88" height="43.8" transform="translate(76.78 58.77) rotate(-18.55)"/><rect class="cls-10" x="662.46" y="223.74" width="52.88" height="0.76" transform="translate(82.92 55.53) rotate(-18.55)"/><rect class="cls-8" x="665.28" y="230.96" width="52.88" height="3.17" transform="translate(80.39 56.86) rotate(-18.55)"/><rect class="cls-8" x="666.62" y="234.93" width="52.88" height="3.17" transform="translate(79.19 57.49) rotate(-18.55)"/><circle class="cls-8" cx="803.28" cy="86.05" r="5.99"/><rect class="cls-5" x="659.56" y="285.2" width="46.51" height="36.44" transform="translate(162.51 -259.62) rotate(7.3)"/><rect class="cls-6" x="659.56" y="284.43" width="46.51" height="36.44" transform="matrix(0.99, 0.13, -0.13, 0.99, 162.41, -259.63)"/><rect class="cls-8" x="664.84" y="286.4" width="9.22" height="7.47" transform="translate(160.71 -258.03) rotate(7.3)"/><rect class="cls-8" x="661.64" y="315.08" width="25.92" height="1.16" transform="translate(164 -258.48) rotate(7.3)"/><rect class="cls-8" x="661.91" y="312.92" width="25.92" height="1.16" transform="translate(163.72 -258.53) rotate(7.3)"/><rect class="cls-8" x="662.19" y="310.75" width="25.92" height="1.16" transform="translate(163.45 -258.58) rotate(7.3)"/><rect class="cls-4" x="695.38" y="299.34" width="10.87" height="6.13" transform="translate(162.52 -261.91) rotate(7.3)"/><rect class="cls-15" x="695.19" y="302.39" width="10.87" height="3.06" transform="translate(162.72 -261.88) rotate(7.3)"/><rect class="cls-10" x="661.83" y="284.58" width="46.51" height="0.76" transform="translate(160.18 -260.06) rotate(7.3)"/><rect class="cls-11" x="706.58" y="288.04" width="68.4" height="20.21" transform="translate(90.78 339.98) rotate(-37.7)"/><rect class="cls-4" x="705.99" y="287.27" width="68.4" height="20.21" transform="translate(91.12 339.46) rotate(-37.7)"/><rect class="cls-15" x="709.08" y="296.32" width="68.4" height="10.1" transform="translate(89.32 342.18) rotate(-37.7)"/><rect class="cls-7" x="714.17" y="314.85" width="7.2" height="1.07" transform="translate(75.43 329.51) rotate(-37.7)"/><rect class="cls-6" x="713.52" y="314" width="7.2" height="1.07" transform="translate(75.81 328.93) rotate(-37.7)"/><rect class="cls-7" x="759.67" y="279.68" width="7.2" height="1.07" transform="translate(106.44 349.99) rotate(-37.7)"/><rect class="cls-6" x="759.02" y="278.83" width="7.2" height="1.07" transform="translate(106.82 349.41) rotate(-37.7)"/><circle class="cls-9" cx="832.47" cy="135.4" r="2.95"/><rect class="cls-9" x="716.24" y="301.75" width="11.24" height="5.89" transform="translate(82.82 329.78) rotate(-37.7)"/><rect class="cls-10" x="700.04" y="289.31" width="68.4" height="0.76" transform="matrix(0.79, -0.61, 0.61, 0.79, 94.59, 334.22)"/><path class="cls-17" d="M736.51,324l-91-8.79a5.87,5.87,0,0,0-1.74.12l-10.58-8.81a3,3,0,0,0-1.94-.7h-7.13a5.77,5.77,0,0,0-1.25-1.46,5.85,5.85,0,1,0,.75,8.23,6.76,6.76,0,0,0,.49-.7H629a3,3,0,0,1,1.94.7l8.39,7a6.52,6.52,0,0,0-.16,3L647,367.75a6,6,0,0,0,5.76,5.09H660l-7.1,9c-1.46,1.71-.82,5.06,2.73,5.06h71.68a2.25,2.25,0,1,0,0-4.49H660.72c-1.29,0-2.17-.85-1-2.45l5.17-7.12H724.7a5.91,5.91,0,0,0,5.57-4.28l11.27-36.4A6.2,6.2,0,0,0,736.51,324Zm-87.83,9.81-1.91-11,1.91.18Zm9,31.55h-3.5l-1-5.69v-4.23h4.48Zm0-14.41h-4.48V340.47h4.48Zm0-15h-4.48V323.47l4.48.43Zm9,29.41h-4.49v-9.92h4.49Zm0-14.41h-4.49V340.47h4.49Zm0-15h-4.49V324.33l4.49.44Zm9,29.41h-4.48v-9.92h4.48Zm0-14.41h-4.48V340.47h4.48Zm0-15h-4.48V325.2l4.48.43Zm9,29.41h-4.49v-9.92h4.49Zm0-14.41h-4.49V340.47h4.49Zm0-15h-4.49v-9.91l4.49.43Zm9,29.41h-4.49v-9.92h4.49Zm0-14.41h-4.49V340.47h4.49Zm0-15h-4.49v-9.05l4.49.43Zm9,29.41H698v-9.92h4.49Zm0-14.41H698V340.47h4.49Zm0-15H698V327.8l4.49.43Zm9,29.41H707v-9.92h4.49Zm0-14.41H707V340.47h4.49Zm0-15H707v-7.32l4.49.44Zm9,29.41H716v-9.92h4.49Zm0-14.41H716V340.47h4.49Zm0-15H716v-6.45l4.49.43ZM725,360.52v-5h1.57Zm3-9.54h-3V340.47h6.22Zm4.65-15H725V330.4l9.06.87Z" transform="translate(118.43 -175.33)"/><path class="cls-17" d="M665,388.26a8.85,8.85,0,1,0,8.84,8.85A8.85,8.85,0,0,0,665,388.26Zm0,12.17a3.32,3.32,0,1,1,3.32-3.32A3.32,3.32,0,0,1,665,400.43Z" transform="translate(118.43 -175.33)"/><path class="cls-17" d="M714.45,388.26a8.85,8.85,0,1,0,8.85,8.85A8.85,8.85,0,0,0,714.45,388.26Zm0,12.17a3.32,3.32,0,1,1,3.32-3.32A3.32,3.32,0,0,1,714.45,400.43Z" transform="translate(118.43 -175.33)"/><path class="cls-14" d="M736.51,323.23l-91-8.79a5.27,5.27,0,0,0-1.74.12l-10.58-8.82a3,3,0,0,0-1.94-.7h-7.13a5.91,5.91,0,0,0-1.25-1.45,5.85,5.85,0,1,0,.75,8.23,6.89,6.89,0,0,0,.49-.71H629a3,3,0,0,1,1.94.71l8.39,7a6.52,6.52,0,0,0-.16,3L647,366.94a6,6,0,0,0,5.76,5.09H660l-7.1,9c-1.46,1.7-.82,5,2.73,5h71.68a2.24,2.24,0,1,0,0-4.48H660.72c-1.29,0-2.17-.85-1-2.45l5.17-7.13H724.7a5.9,5.9,0,0,0,5.57-4.27l11.27-36.4A6.2,6.2,0,0,0,736.51,323.23ZM648.68,333l-1.91-11,1.91.18Zm9,31.55h-3.5l-1-5.69v-4.24h4.48Zm0-14.42h-4.48V339.66h4.48Zm0-15h-4.48V322.66l4.48.44Zm9,29.41h-4.49v-9.93h4.49Zm0-14.42h-4.49V339.66h4.49Zm0-15h-4.49V323.53l4.49.43Zm9,29.41h-4.48v-9.93h4.48Zm0-14.42h-4.48V339.66h4.48Zm0-15h-4.48V324.4l4.48.43Zm9,29.41h-4.49v-9.93h4.49Zm0-14.42h-4.49V339.66h4.49Zm0-15h-4.49v-9.92l4.49.44Zm9,29.41h-4.49v-9.93h4.49Zm0-14.42h-4.49V339.66h4.49Zm0-15h-4.49v-9.05l4.49.43Zm9,29.41H698v-9.93h4.49Zm0-14.42H698V339.66h4.49Zm0-15H698V327l4.49.44Zm9,29.41H707v-9.93h4.49Zm0-14.42H707V339.66h4.49Zm0-15H707v-7.32l4.49.43Zm9,29.41H716v-9.93h4.49Zm0-14.42H716V339.66h4.49Zm0-15H716v-6.45l4.49.43ZM725,359.72v-5.06h1.57Zm3-9.55h-3V339.66h6.22Zm4.65-15H725v-5.59l9.06.88Z" transform="translate(118.43 -175.33)"/><path class="cls-14" d="M665,387.46a8.85,8.85,0,1,0,8.84,8.85A8.85,8.85,0,0,0,665,387.46Zm0,12.17a3.32,3.32,0,1,1,3.32-3.32A3.32,3.32,0,0,1,665,399.63Z" transform="translate(118.43 -175.33)"/><path class="cls-14" d="M714.45,387.46a8.85,8.85,0,1,0,8.85,8.85A8.85,8.85,0,0,0,714.45,387.46Zm0,12.17a3.32,3.32,0,1,1,3.32-3.32A3.32,3.32,0,0,1,714.45,399.63Z" transform="translate(118.43 -175.33)"/><g class="cls-12"><rect class="cls-13" x="798.52" y="174.84" width="4.49" height="0.8"/><rect class="cls-13" x="789.54" y="189.26" width="4.49" height="0.8"/><rect class="cls-13" x="798.52" y="159.84" width="4.49" height="0.8"/><rect class="cls-13" x="798.52" y="189.26" width="4.49" height="0.8"/><rect class="cls-13" x="807.49" y="159.84" width="4.49" height="0.8"/><rect class="cls-13" x="807.49" y="189.26" width="4.49" height="0.8"/><rect class="cls-13" x="807.49" y="174.84" width="4.49" height="0.8"/><path class="cls-13" d="M639.17,319.47a6.63,6.63,0,0,0-.09,1.55,6.7,6.7,0,0,1,.25-1.42Z" transform="translate(118.43 -175.33)"/><rect class="cls-13" x="816.47" y="159.84" width="4.49" height="0.8"/><path class="cls-13" d="M660,372l-7.1,9a3.17,3.17,0,0,0-.7,2.43,3.15,3.15,0,0,1,.7-1.63l7.74-9.81Z" transform="translate(118.43 -175.33)"/><path class="cls-13" d="M614.58,305.14a5.85,5.85,0,0,1,8.24-.75,5.77,5.77,0,0,1,1.25,1.46h7.13a3,3,0,0,1,1.94.7l10.58,8.81a5.87,5.87,0,0,1,1.74-.12l91,8.79a6.06,6.06,0,0,1,5.31,5.81,6.12,6.12,0,0,0-5.31-6.61l-91-8.79a5.27,5.27,0,0,0-1.74.12l-10.58-8.82a3,3,0,0,0-1.94-.7h-7.13a5.91,5.91,0,0,0-1.25-1.45,5.84,5.84,0,0,0-9.57,4.9A5.8,5.8,0,0,1,614.58,305.14Z" transform="translate(118.43 -175.33)"/><rect class="cls-13" x="771.6" y="159.84" width="4.49" height="0.8"/><rect class="cls-13" x="789.54" y="174.84" width="4.49" height="0.8"/><rect class="cls-13" x="789.54" y="159.84" width="4.49" height="0.8"/><rect class="cls-13" x="771.6" y="174.84" width="4.49" height="0.8"/><polygon class="cls-13" points="772.58 190.06 776.08 190.06 776.08 189.26 772.58 189.26 771.6 183.57 771.6 184.37 772.58 190.06"/><rect class="cls-13" x="816.47" y="189.26" width="4.49" height="0.8"/><polygon class="cls-13" points="846.35 175.65 849.6 165.13 849.36 165.13 846.35 174.84 843.39 174.84 843.39 175.65 846.35 175.65"/><polygon class="cls-13" points="844.96 180.13 844.71 180.13 843.39 184.38 843.39 185.19 844.96 180.13"/><rect class="cls-13" x="780.57" y="174.84" width="4.49" height="0.8"/><rect class="cls-13" x="780.57" y="159.84" width="4.49" height="0.8"/><path class="cls-13" d="M727.28,381.61H660.72a1.47,1.47,0,0,1-1.48-.76c0,.46.61,1.56,2.52,1.56h65.52a2.25,2.25,0,0,1,2.21,1.84,2.58,2.58,0,0,0,0-.4A2.24,2.24,0,0,0,727.28,381.61Z" transform="translate(118.43 -175.33)"/><rect class="cls-13" x="780.57" y="189.26" width="4.49" height="0.8"/><rect class="cls-13" x="825.44" y="189.26" width="4.49" height="0.8"/><polygon class="cls-13" points="850.99 160.65 852.45 155.94 852.21 155.91 850.99 159.84 843.39 159.84 843.39 160.65 850.99 160.65"/><rect class="cls-13" x="825.44" y="159.84" width="4.49" height="0.8"/><rect class="cls-13" x="816.47" y="174.84" width="4.49" height="0.8"/><rect class="cls-13" x="825.44" y="174.84" width="4.49" height="0.8"/><rect class="cls-13" x="834.42" y="189.26" width="4.49" height="0.8"/><rect class="cls-13" x="834.42" y="174.84" width="4.49" height="0.8"/><rect class="cls-13" x="834.42" y="159.84" width="4.49" height="0.8"/></g><g class="cls-12"><path class="cls-13" d="M665,388.26a8.84,8.84,0,0,1,8.83,8.45c0-.14,0-.27,0-.4a8.85,8.85,0,1,0-17.69,0c0,.13,0,.26,0,.4A8.85,8.85,0,0,1,665,388.26Z" transform="translate(118.43 -175.33)"/><path class="cls-13" d="M665,400.43a3.32,3.32,0,0,0,3.32-3.32c0-.14,0-.27,0-.4a3.32,3.32,0,0,1-6.59,0c0,.13,0,.26,0,.4A3.32,3.32,0,0,0,665,400.43Z" transform="translate(118.43 -175.33)"/></g><g class="cls-12"><path class="cls-13" d="M714.45,388.26a8.85,8.85,0,0,1,8.84,8.45c0-.14,0-.27,0-.4a8.85,8.85,0,1,0-17.7,0c0,.13,0,.26,0,.4A8.85,8.85,0,0,1,714.45,388.26Z" transform="translate(118.43 -175.33)"/><path class="cls-13" d="M714.45,400.43a3.32,3.32,0,0,0,3.32-3.32,2.6,2.6,0,0,0,0-.4,3.32,3.32,0,0,1-6.59,0c0,.13,0,.26,0,.4A3.32,3.32,0,0,0,714.45,400.43Z" transform="translate(118.43 -175.33)"/></g><rect class="cls-14" x="816.47" y="163.53" width="4.49" height="0.8"/><rect class="cls-14" x="816.47" y="178.53" width="4.49" height="0.8"/><polygon class="cls-14" points="816.47 150.86 816.47 151.66 820.96 152.09 820.96 151.29 816.47 150.86"/><polygon class="cls-14" points="807.49 149.99 807.49 150.8 811.98 151.23 811.98 150.43 807.49 149.99"/><rect class="cls-14" x="807.49" y="178.53" width="4.49" height="0.8"/><polygon class="cls-14" points="825.44 151.72 825.44 152.53 829.93 152.96 829.93 152.16 825.44 151.72"/><rect class="cls-14" x="807.49" y="163.53" width="4.49" height="0.8"/><polygon class="cls-14" points="834.42 152.59 834.42 153.39 838.9 153.83 838.9 153.02 834.42 152.59"/><rect class="cls-14" x="834.42" y="178.53" width="4.49" height="0.8"/><polygon class="cls-14" points="843.39 153.46 843.39 154.26 852.21 155.11 852.45 154.33 843.39 153.46"/><polygon class="cls-14" points="843.39 163.53 843.39 164.33 849.36 164.33 849.6 163.53 843.39 163.53"/><rect class="cls-14" x="825.44" y="178.53" width="4.49" height="0.8"/><rect class="cls-14" x="825.44" y="163.53" width="4.49" height="0.8"/><rect class="cls-14" x="798.52" y="178.53" width="4.49" height="0.8"/><rect class="cls-14" x="834.42" y="163.53" width="4.49" height="0.8"/><polygon class="cls-14" points="843.39 178.53 843.39 179.33 844.71 179.33 844.96 178.53 843.39 178.53"/><path class="cls-14" d="M639.33,318l-8.39-7a3,3,0,0,0-1.94-.7h-4.94a8.17,8.17,0,0,1-.49.71,5.84,5.84,0,0,1-10.32-3.34,5.84,5.84,0,0,0,10.32,4.14,6.89,6.89,0,0,0,.49-.71H629a3,3,0,0,1,1.94.71l8.23,6.85A5,5,0,0,1,639.33,318Z" transform="translate(118.43 -175.33)"/><polygon class="cls-14" points="765.2 145.91 765.34 146.73 767.11 146.9 767.11 146.09 765.2 145.91"/><polygon class="cls-14" points="771.6 146.53 771.6 147.33 776.08 147.76 776.08 146.96 771.6 146.53"/><rect class="cls-14" x="771.6" y="178.53" width="4.49" height="0.8"/><rect class="cls-14" x="771.6" y="163.53" width="4.49" height="0.8"/><path class="cls-14" d="M741.54,330.56,730.27,367a5.9,5.9,0,0,1-5.57,4.28H664.87l-4.66,6.41a4.59,4.59,0,0,0-1,2.41,2.92,2.92,0,0,1,.46-.89l5.17-7.13H724.7a5.9,5.9,0,0,0,5.57-4.27l11.27-36.4a6.68,6.68,0,0,0,.28-2.33A6.33,6.33,0,0,1,741.54,330.56Z" transform="translate(118.43 -175.33)"/><path class="cls-14" d="M727.28,385.29H655.6c-2.18,0-3.21-.71-3.43-1.82.06.83.83,2.62,3.43,2.62h71.68a2.24,2.24,0,0,0,2.25-2.24,2.58,2.58,0,0,0,0-.4A2.24,2.24,0,0,1,727.28,385.29Z" transform="translate(118.43 -175.33)"/><path class="cls-14" d="M659.34,372l.63-.8h-7.2a6,6,0,0,1-5.76-5.09L639.17,321a6.06,6.06,0,0,1-.09-.73,6.71,6.71,0,0,0,.09,1.54L647,366.94a6,6,0,0,0,5.76,5.09Z" transform="translate(118.43 -175.33)"/><polygon class="cls-14" points="798.52 149.13 798.52 149.93 803.01 150.36 803.01 149.56 798.52 149.13"/><rect class="cls-14" x="789.54" y="163.53" width="4.49" height="0.8"/><rect class="cls-14" x="789.54" y="178.53" width="4.49" height="0.8"/><rect class="cls-14" x="798.52" y="163.53" width="4.49" height="0.8"/><polygon class="cls-14" points="780.57 147.39 780.57 148.2 785.06 148.63 785.06 147.83 780.57 147.39"/><rect class="cls-14" x="780.57" y="163.53" width="4.49" height="0.8"/><polygon class="cls-14" points="789.54 148.26 789.54 149.06 794.03 149.5 794.03 148.69 789.54 148.26"/><rect class="cls-14" x="780.57" y="178.53" width="4.49" height="0.8"/><path class="cls-14" d="M665,392.18a3.32,3.32,0,0,0-3.32,3.32c0,.14,0,.27,0,.4a3.32,3.32,0,0,1,6.59,0c0-.13,0-.26,0-.4A3.32,3.32,0,0,0,665,392.18Z" transform="translate(118.43 -175.33)"/><path class="cls-14" d="M665,404.35a8.85,8.85,0,0,1-8.84-8.45c0,.14,0,.27,0,.41a8.85,8.85,0,0,0,17.69,0c0-.14,0-.27,0-.41A8.84,8.84,0,0,1,665,404.35Z" transform="translate(118.43 -175.33)"/><path class="cls-14" d="M714.45,392.18a3.32,3.32,0,0,0-3.32,3.32c0,.14,0,.27,0,.4a3.32,3.32,0,0,1,6.59,0,2.6,2.6,0,0,0,0-.4A3.32,3.32,0,0,0,714.45,392.18Z" transform="translate(118.43 -175.33)"/><path class="cls-14" d="M714.45,404.35a8.85,8.85,0,0,1-8.84-8.45c0,.14,0,.27,0,.41a8.85,8.85,0,0,0,17.7,0c0-.14,0-.27,0-.41A8.85,8.85,0,0,1,714.45,404.35Z" transform="translate(118.43 -175.33)"/><circle class="cls-5" cx="855.11" cy="99.34" r="3.51"/><circle class="cls-4" cx="855.11" cy="98.57" r="3.51"/><path class="cls-10" d="M736.68,271.16a3.51,3.51,0,0,1,3.49,3.13c0-.13,0-.25,0-.38a3.51,3.51,0,0,0-7,0c0,.13,0,.25,0,.38A3.51,3.51,0,0,1,736.68,271.16Z" transform="translate(118.43 -175.33)"/><circle class="cls-5" cx="910.81" cy="54.08" r="3.51"/><circle class="cls-4" cx="910.81" cy="53.32" r="3.51"/><path class="cls-10" d="M792.38,225.9a3.51,3.51,0,0,1,3.49,3.13c0-.13,0-.25,0-.38a3.51,3.51,0,1,0-7,0c0,.13,0,.25,0,.38A3.51,3.51,0,0,1,792.38,225.9Z" transform="translate(118.43 -175.33)"/><circle class="cls-5" cx="773.36" cy="49.17" r="3.51"/><circle class="cls-4" cx="773.36" cy="48.41" r="3.51"/><path class="cls-10" d="M654.93,221a3.51,3.51,0,0,1,3.49,3.13c0-.12,0-.25,0-.38a3.51,3.51,0,0,0-7,0c0,.13,0,.26,0,.38A3.51,3.51,0,0,1,654.93,221Z" transform="translate(118.43 -175.33)"/><circle class="cls-5" cx="888.81" cy="64.7" r="3.51"/><circle class="cls-9" cx="888.81" cy="63.94" r="3.51"/><path class="cls-10" d="M770.38,236.52a3.51,3.51,0,0,1,3.49,3.13c0-.13,0-.25,0-.38a3.51,3.51,0,1,0-7,0,2.43,2.43,0,0,0,0,.38A3.5,3.5,0,0,1,770.38,236.52Z" transform="translate(118.43 -175.33)"/><circle class="cls-5" cx="763.66" cy="119.01" r="3.51"/><circle class="cls-9" cx="763.66" cy="118.24" r="3.51"/><path class="cls-10" d="M645.23,290.83a3.51,3.51,0,0,1,3.49,3.13c0-.13,0-.25,0-.38a3.51,3.51,0,1,0-7,0,2.43,2.43,0,0,0,0,.38A3.5,3.5,0,0,1,645.23,290.83Z" transform="translate(118.43 -175.33)"/><circle class="cls-5" cx="700.88" cy="36.32" r="3.51"/><circle class="cls-9" cx="700.88" cy="35.56" r="3.51"/><path class="cls-10" d="M582.45,208.14a3.51,3.51,0,0,1,3.49,3.13c0-.12,0-.25,0-.38a3.51,3.51,0,0,0-7,0,2.34,2.34,0,0,0,0,.38A3.5,3.5,0,0,1,582.45,208.14Z" transform="translate(118.43 -175.33)"/><circle class="cls-5" cx="769.85" cy="24.03" r="3.51"/><circle class="cls-6" cx="769.85" cy="23.27" r="3.51"/><path class="cls-10" d="M651.42,195.86a3.51,3.51,0,0,1,3.49,3.12c0-.12,0-.25,0-.38a3.51,3.51,0,0,0-7,0c0,.13,0,.26,0,.38A3.51,3.51,0,0,1,651.42,195.86Z" transform="translate(118.43 -175.33)"/><circle class="cls-5" cx="726.1" cy="98.27" r="3.51"/><circle class="cls-6" cx="726.1" cy="97.51" r="3.51"/><path class="cls-10" d="M607.67,270.09a3.51,3.51,0,0,1,3.49,3.13c0-.12,0-.25,0-.38a3.51,3.51,0,0,0-7,0c0,.13,0,.26,0,.38A3.51,3.51,0,0,1,607.67,270.09Z" transform="translate(118.43 -175.33)"/><circle class="cls-5" cx="896.77" cy="87.24" r="3.51"/><circle class="cls-6" cx="896.77" cy="86.48" r="3.51"/><path class="cls-10" d="M778.34,259.06a3.51,3.51,0,0,1,3.49,3.13c0-.12,0-.25,0-.38a3.51,3.51,0,0,0-7,0c0,.13,0,.26,0,.38A3.51,3.51,0,0,1,778.34,259.06Z" transform="translate(118.43 -175.33)"/></g></g></svg>