<svg id="Layer_1" data-name="Layer 1" xmlns="http://www.w3.org/2000/svg" xmlns:xlink="http://www.w3.org/1999/xlink" viewBox="0 0 281.44 402.72"><defs><style>.cls-1{fill:none;}.cls-2{fill:#253863;}.cls-3{fill:#af9ccb;opacity:0.4;}.cls-4{clip-path:url(#clip-path);}.cls-5{fill:#f3f3f3;}.cls-13,.cls-6{fill:#fff;}.cls-7{fill:#f8d9e8;}.cls-8,.cls-9{fill:#ea94bf;}.cls-8{opacity:0.46;}.cls-10{fill:#4f66af;opacity:0.89;}.cls-11{fill:#c8d8ef;opacity:0.13;}.cls-12{fill:#f9f9fa;}.cls-13{font-size:41.32px;font-family:Colaborate-Bold, Colaborate Bold;font-weight:700;letter-spacing:-0.05em;}</style><clipPath id="clip-path" transform="translate(-277.03 -178.85)"><circle class="cls-1" cx="421.22" cy="369.46" r="91.25" transform="matrix(0.16, -0.99, 0.99, 0.16, -10, 727.19)"/></clipPath></defs><title>signup</title><path class="cls-2" d="M550.89,178.85H284.52c-3.86,0-7,5.91-7,13.2V581.57H558.47V193.16C558.47,185.26,555.08,178.85,550.89,178.85Z" transform="translate(-277.03 -178.85)"/><path class="cls-1" d="M558.16,191.3l0,360.67c0,6.74-3,12.21-6.72,12.25L283.82,567c-3.74,0-6.79-5.46-6.79-12.25v-106l.14-257.7c0-6.76,3-12.24,6.76-12.24l267.48.19C555.14,179.05,558.16,184.53,558.16,191.3Z" transform="translate(-277.03 -178.85)"/><circle class="cls-3" cx="421.22" cy="369.46" r="91.25" transform="matrix(0.16, -0.99, 0.99, 0.16, -287.03, 548.34)"/><circle class="cls-3" cx="421.42" cy="354.74" r="105.36" transform="translate(-404.44 223.04) rotate(-45)"/><g class="cls-4"><path class="cls-5" d="M451.94,370.74H390.5c-22.78,0-41.25,17.7-41.25,39.55v81.2h144v-81.2C493.2,388.44,474.73,370.74,451.94,370.74Z" transform="translate(-277.03 -178.85)"/><path class="cls-6" d="M383.39,408.72a.43.43,0,0,0-.43.43v15.36l-8.45-19.95a.43.43,0,0,0-.56-.23.44.44,0,0,0-.23.57L383,426.72v64.77a.43.43,0,0,0,.86,0V409.15A.43.43,0,0,0,383.39,408.72Z" transform="translate(-277.03 -178.85)"/><path class="cls-6" d="M469.52,404.33a.44.44,0,0,0-.57.23l-8.08,19.09V409.29a.43.43,0,0,0-.86,0v16.39l-.33.78a.44.44,0,0,0,.22.57l.11,0v64.44a.43.43,0,1,0,.86,0V425.85l8.87-21A.43.43,0,0,0,469.52,404.33Z" transform="translate(-277.03 -178.85)"/><path class="cls-7" d="M435.71,365.45a12.6,12.6,0,0,1-2.69.3h-22.3a12.62,12.62,0,0,1-2.7-.3,12.47,12.47,0,0,1-6.44-3.68v7.81a20.29,20.29,0,0,0,40.57,0v-7.81A12.43,12.43,0,0,1,435.71,365.45Z" transform="translate(-277.03 -178.85)"/><path class="cls-8" d="M410.72,365.75a12.62,12.62,0,0,1-2.7-.3,20.31,20.31,0,0,0,27.69,0,12.6,12.6,0,0,1-2.69.3Z" transform="translate(-277.03 -178.85)"/><path class="cls-7" d="M395.21,329.44s0,0,0,0-.09.06-.15.06a.42.42,0,0,1-.42-.42,4,4,0,0,1,3.55-4.29v-2c-.18-.27-.35-.54-.51-.82a7.87,7.87,0,0,0,.51,15.29V334A5.36,5.36,0,0,1,395.21,329.44Z" transform="translate(-277.03 -178.85)"/><path class="cls-7" d="M451.87,329.49a7.88,7.88,0,0,0-6.06-7.66c-.09.23-.18.46-.28.69v2l.52.22a4,4,0,0,1,3.76,4.31.42.42,0,0,1-.42.42h0c0,2.15-1.57,4-3.84,4.93v2.84A7.89,7.89,0,0,0,451.87,329.49Z" transform="translate(-277.03 -178.85)"/><path class="cls-9" d="M449,329a3.19,3.19,0,0,0-3.15-3.49.45.45,0,0,1-.29-.12v8.95c2.27-.93,3.83-2.78,3.84-4.93A.42.42,0,0,1,449,329Z" transform="translate(-277.03 -178.85)"/><path class="cls-9" d="M395.49,329a.4.4,0,0,1-.27.36s0,0,0,0a5.36,5.36,0,0,0,3,4.55V325.6A3.13,3.13,0,0,0,395.49,329Z" transform="translate(-277.03 -178.85)"/><path class="cls-8" d="M445.82,324.71l.23,0-.52-.22v.32A.45.45,0,0,1,445.82,324.71Z" transform="translate(-277.03 -178.85)"/><path class="cls-2" d="M445.53,324.83v.6a.45.45,0,0,0,.29.12A3.19,3.19,0,0,1,449,329a.42.42,0,0,0,.4.41h0a.42.42,0,0,0,.42-.42,4,4,0,0,0-3.76-4.31l-.23,0A.45.45,0,0,0,445.53,324.83Z" transform="translate(-277.03 -178.85)"/><path class="cls-2" d="M394.65,329a.42.42,0,0,0,.42.42c.06,0,.1,0,.15-.06a.4.4,0,0,0,.27-.36,3.13,3.13,0,0,1,2.71-3.44v-.85A4,4,0,0,0,394.65,329Z" transform="translate(-277.03 -178.85)"/><path class="cls-2" d="M445.53,325.43v-2.91c.1-.23.19-.46.28-.69.52-1.31,1-2.6,1.48-3.62,4-8.29,6.62-21.63-5.47-23.25a11.37,11.37,0,0,0-1.64-.1A12.25,12.25,0,0,1,429.72,289l0-.07a15.47,15.47,0,0,0-13-7.08,15.83,15.83,0,0,0-15.45,16.32,7.62,7.62,0,0,0-6.71,4.89,13.19,13.19,0,0,0-.3,6.22,54.79,54.79,0,0,0,2.07,9.28,17.39,17.39,0,0,0,1.4,3.36c.16.28.33.55.51.82v30.49A12.55,12.55,0,0,0,408,365.45a12.62,12.62,0,0,0,2.7.3H433a12.6,12.6,0,0,0,2.69-.3,12.55,12.55,0,0,0,9.82-12.22v-27.8Z" transform="translate(-277.03 -178.85)"/><path class="cls-7" d="M402.9,330.64V313.69c0-4.41,3.14-8,7-8H409a7.7,7.7,0,0,0-7.49,7.9v16.76a7.82,7.82,0,0,0,5.79,7.69A8,8,0,0,1,402.9,330.64Z" transform="translate(-277.03 -178.85)"/><path class="cls-7" d="M434.6,305.7h-.77c3.86,0,7,3.58,7,8v16.95a8.07,8.07,0,0,1-4.22,7.32,7.84,7.84,0,0,0,5.48-7.6V313.6A7.71,7.71,0,0,0,434.6,305.7Z" transform="translate(-277.03 -178.85)"/><path class="cls-8" d="M402.9,330.64V313.69c0-4.41,3.14-8,7-8H409a7.7,7.7,0,0,0-7.49,7.9v16.76a7.82,7.82,0,0,0,5.79,7.69A8,8,0,0,1,402.9,330.64Z" transform="translate(-277.03 -178.85)"/><path class="cls-8" d="M434.6,305.7h-.77c3.86,0,7,3.58,7,8v16.95a8.07,8.07,0,0,1-4.22,7.32,7.84,7.84,0,0,0,5.48-7.6V313.6A7.71,7.71,0,0,0,434.6,305.7Z" transform="translate(-277.03 -178.85)"/><path class="cls-7" d="M433.83,305.7h-1.16a11.25,11.25,0,0,1-22.19,0h-.57c-3.87,0-7,3.58-7,8v16.95a8,8,0,0,0,4.41,7.41,6.17,6.17,0,0,0,2.6.57H414a6.56,6.56,0,0,1,6.06-4.12h4.4a6.56,6.56,0,0,1,6.06,4.12h3.28a6.12,6.12,0,0,0,2.78-.66,8.07,8.07,0,0,0,4.22-7.32V313.69C440.83,309.28,437.69,305.7,433.83,305.7Z" transform="translate(-277.03 -178.85)"/><path class="cls-2" d="M432.07,328.55h0a1,1,0,0,0,1-1v-2a1,1,0,0,0-1-1h0a1,1,0,0,0-1,1v2A1,1,0,0,0,432.07,328.55Z" transform="translate(-277.03 -178.85)"/><path class="cls-2" d="M412.64,328.55h0a1,1,0,0,0,1-1v-2a1,1,0,0,0-1-1h0a1,1,0,0,0-1,1v2A1,1,0,0,0,412.64,328.55Z" transform="translate(-277.03 -178.85)"/><path class="cls-2" d="M429.44,321.56a3.07,3.07,0,0,0,1.65.6c.61.1,1.23.23,1.75.36s1.13.32,1.72.52a3,3,0,0,0,1.73.26c.51-.15.87-.87.54-1.95a4.46,4.46,0,0,0-3.15-2.84,4,4,0,0,0-3.95,1C429,320.36,429,321.17,429.44,321.56Z" transform="translate(-277.03 -178.85)"/><path class="cls-2" d="M408.25,323.36a3.42,3.42,0,0,0,1.87-.23c.63-.2,1.27-.38,1.84-.51s1.22-.25,1.88-.34a3.27,3.27,0,0,0,1.76-.59c.41-.39.39-1.24-.46-2.11a4.8,4.8,0,0,0-4.38-1.15,4.24,4.24,0,0,0-3.23,2.88C407.25,322.43,407.69,323.19,408.25,323.36Z" transform="translate(-277.03 -178.85)"/><path class="cls-6" d="M422.9,348.36l-2.24.13c-1.09.06-2-.5-2.05-1.25l-.27-4.81,12.38-.55C431.09,348.38,427.41,348.11,422.9,348.36Z" transform="translate(-277.03 -178.85)"/><path class="cls-2" d="M425.3,332.21H421a3,3,0,0,1-2.42-1.27,2.93,2.93,0,0,1-.32-2.72l2.32-9a.42.42,0,0,1,.51-.3.42.42,0,0,1,.3.51l-2.33,9.07a2.07,2.07,0,0,0,.22,2,2,2,0,0,0,1.72.91h4.28a.42.42,0,0,1,0,.84Z" transform="translate(-277.03 -178.85)"/><path class="cls-10" d="M430,400.15l-2-4-2.45,4.71a1.69,1.69,0,0,1-1.5.87h-3a1.64,1.64,0,0,1-1.41-.77l-3.06-5.23-2,4.06,4.31,8.08,0,0-4.53,53.28a.94.94,0,0,0,.06.47l7.15,19.57a1.1,1.1,0,0,0,2.08,0l6.7-19.56a1.3,1.3,0,0,0,.05-.44L426.21,408a2.84,2.84,0,0,0,.22-.34Zm-3.75,31a.56.56,0,0,1,0,.22L423,440.85a.54.54,0,0,1-1,0l-3.48-9.54a.45.45,0,0,1,0-.23l1.89-22.23a1.65,1.65,0,0,0,.31,0h3.89Z" transform="translate(-277.03 -178.85)"/><path class="cls-10" d="M424.5,408.9h-3.88a1.65,1.65,0,0,1-.31,0l-1.89,22.23a.45.45,0,0,0,0,.23l3.48,9.54a.54.54,0,0,0,1,0l3.26-9.53a.56.56,0,0,0,0-.22l-1.73-22.2Z" transform="translate(-277.03 -178.85)"/><path class="cls-11" d="M424.5,408.9h-3.88a1.65,1.65,0,0,1-.31,0l-1.89,22.23a.45.45,0,0,0,0,.23l3.48,9.54a.54.54,0,0,0,1,0l3.26-9.53a.56.56,0,0,0,0-.22l-1.73-22.2Z" transform="translate(-277.03 -178.85)"/><path class="cls-10" d="M416.53,395.68l3.06,5.23a1.64,1.64,0,0,0,1.41.77h3a1.69,1.69,0,0,0,1.5-.87L428,396.1l-5.83-11.65Z" transform="translate(-277.03 -178.85)"/><path class="cls-11" d="M416.53,395.68l3.06,5.23a1.64,1.64,0,0,0,1.41.77h3a1.69,1.69,0,0,0,1.5-.87L428,396.1l-5.83-11.65Z" transform="translate(-277.03 -178.85)"/><polygon class="cls-6" points="167.26 186.22 145.11 204.3 122.97 186.22 111.89 202.83 136.35 223.13 137.47 220.89 139.5 216.83 145.11 205.6 150.94 217.25 152.97 221.3 153.88 223.13 178.33 202.83 167.26 186.22"/></g><path class="cls-7" d="M515.45,350.62a3.14,3.14,0,0,0-4.41,1.65c-.9,2.19-1.82,4.37-2.71,6.57.3-.73,2.26-17.07,2.34-18.57,0-.75.49-3-.19-4.15a2,2,0,0,0-1.53-.75,3.12,3.12,0,0,0-1.84.25A2.77,2.77,0,0,0,506,337a8.08,8.08,0,0,0-.43,1.76c-.8,4.85-1.64,9.69-2.32,14.56.14-6.68.79-13.29,1.21-20a7.93,7.93,0,0,0-.21-3.11,2.41,2.41,0,0,0-4.6-.44,8.14,8.14,0,0,0-.76,2.81l-1.32,9.17c-.23,1.55-.45,3.1-.67,4.65l-.33,2.26a6.58,6.58,0,0,1-.37,2.17,27.1,27.1,0,0,1,.13-4.12l.15-4.33c.1-2.84.2-5.69.29-8.53a14.22,14.22,0,0,0-.11-3.13,5,5,0,0,0-1.38-2.74,3,3,0,0,0-2.9-.72,3.17,3.17,0,0,0-1.61,1.37,7.92,7.92,0,0,0-.81,2,60,60,0,0,0-1.62,8c-.42,2.84-.79,5.7-1.12,8.56-.13,1.17-.32,2.79-1.54,3.36a1.85,1.85,0,0,1-2.59-1.15c-.54-1.94-1-3.89-1.54-5.84a6.55,6.55,0,0,0-2.34-3.83,4.05,4.05,0,0,0-6.21,2.44,8.06,8.06,0,0,0,0,2.64q1.44,14.14,2.77,28.28l29.22,7.1,10.37-24.58C516.73,352.29,516.36,351.17,515.45,350.62Z" transform="translate(-277.03 -178.85)"/><path class="cls-8" d="M489,365a.4.4,0,0,0,.3-.32c1.8-10.14-5.57-14.82-5.64-14.86a.39.39,0,0,0-.54.12.4.4,0,0,0,.13.54c.28.18,7,4.46,5.29,14.07a.39.39,0,0,0,.31.45Z" transform="translate(-277.03 -178.85)"/><path class="cls-5" d="M474,372.73a4.63,4.63,0,0,0-5.68,3.82L458.17,444.9c0,.44,0,.87,0,1.3.07,26.41,38.68,29,42.18,2.78l8.48-63.55a4.62,4.62,0,0,0-3.49-5.11l-.39-.09-29.22-7.1Z" transform="translate(-277.03 -178.85)"/><path class="cls-12" d="M506.72,397.49a.83.83,0,0,0,.71-.64.85.85,0,0,0-.63-1l-32.14-7.44a.1.1,0,0,1-.07-.07L472.7,379a.84.84,0,1,0-1.64.33l1.88,9.36a1.77,1.77,0,0,0,1.34,1.37l32.14,7.45A.76.76,0,0,0,506.72,397.49Z" transform="translate(-277.03 -178.85)"/><path class="cls-12" d="M478.92,385.79a3,3,0,0,1-2.2-3.53h0a2.94,2.94,0,1,1,3.25,3.58A3.12,3.12,0,0,1,478.92,385.79Zm-.56-3.15h0a1.26,1.26,0,1,0,1.51-.94,1.14,1.14,0,0,0-.45,0A1.26,1.26,0,0,0,478.36,382.64Z" transform="translate(-277.03 -178.85)"/><path class="cls-10" d="M342.66,286.22a37.59,37.59,0,0,1,31.18,58.57l.4,2c.7,2.89,2.51,8.2,6.86,12,3.36,2.84-6.64,5.08-13.84.32a14.07,14.07,0,0,1-3.95-3.87l0,0a37.58,37.58,0,1,1-20.62-69Z" transform="translate(-277.03 -178.85)"/><text class="cls-13" transform="translate(45.37 158.23)">hi!</text><path class="cls-6" d="M311.62,212.9H304.7v4.29h7.74v4.65H299.1V200H312v4.64H304.7v3.69h6.92Z" transform="translate(-277.03 -178.85)"/><path class="cls-6" d="M320.76,217l-1.08,4.83H314L319.81,200h7.27l5.75,21.82H327L325.77,217Zm4.33-4.18-.87-4c-.28-1.23-.66-3.19-1-4.5h-.06c-.29,1.31-.62,3.3-.9,4.51l-.85,4Z" transform="translate(-277.03 -178.85)"/><path class="cls-6" d="M336.71,204.85h-5V200h15.74v4.83H342.3v17h-5.59Z" transform="translate(-277.03 -178.85)"/><path class="cls-6" d="M337.74,521.81l-6.13-29.31h8l1.46,10.8c.47,3.35.89,7.09,1.31,10.26h.09c.45-3.38,1.06-6.8,1.67-10.33L346,492.5h7.49l1.74,11.09c.53,3.34.92,6.39,1.31,9.84h.09c.37-3.4.83-6.76,1.3-10.2l1.5-10.73H367l-6.54,29.31h-8.09l-1.76-10.3c-.44-2.57-.83-5.48-1.2-9h-.09c-.52,3.52-.92,6.43-1.47,9.06l-2,10.28Z" transform="translate(-277.03 -178.85)"/><path class="cls-6" d="M387,509.81h-9.3v5.77h10.4v6.23H370.22V492.5h17.34v6.24h-9.83v5H387Z" transform="translate(-277.03 -178.85)"/><path class="cls-6" d="M392.39,492.5h7.52v23h10v6.31H392.39Z" transform="translate(-277.03 -178.85)"/><path class="cls-6" d="M431.9,521.17a17.19,17.19,0,0,1-6.51,1c-10.16,0-14.53-6.83-14.53-14.57,0-10.49,7.19-15.54,15.15-15.54a14.79,14.79,0,0,1,6.37,1.15l-1.38,6a11.46,11.46,0,0,0-4.56-.91c-4.15,0-7.65,2.68-7.65,8.84,0,5.56,2.94,8.67,7.72,8.67a14.9,14.9,0,0,0,4.46-.7Z" transform="translate(-277.03 -178.85)"/><path class="cls-6" d="M459.39,506.76c0,9.92-5.17,15.49-13.27,15.49-8.58,0-12.78-7.12-12.78-15,0-8.15,4.82-15.19,13.24-15.19C455.56,492.06,459.39,499.59,459.39,506.76Zm-18.14.42c0,5.93,2.06,9,5.2,9s5-3.61,5-9.11c0-5.05-1.79-8.87-5.07-8.87C443.31,498.17,441.25,501.48,441.25,507.18Z" transform="translate(-277.03 -178.85)"/><path class="cls-6" d="M486.1,511.7c-.1-3-.21-6.83-.19-11h-.11c-.77,3.65-1.88,7.81-2.65,10.6l-2.66,9.87h-5.76l-2.32-9.85c-.65-2.74-1.5-6.87-2.1-10.62h-.08c-.16,3.81-.33,7.93-.46,11l-.46,10.11h-6.77l1.95-29.31H474l1.91,8.35c.79,3.37,1.62,7.11,2.19,10.62h.13c.69-3.47,1.57-7.43,2.38-10.67l2.1-8.3H492l1.57,29.31h-7.12Z" transform="translate(-277.03 -178.85)"/><path class="cls-6" d="M515,509.81H505.7v5.77h10.39v6.23H498.18V492.5h17.34v6.24H505.7v5H515Z" transform="translate(-277.03 -178.85)"/></svg>